<svg width="429" height="62" viewBox="0 0 429 62" fill="none" xmlns="http://www.w3.org/2000/svg">
    <path d="M115.606 48.5948C164.894 50.647 214.534 52.7677 264.173 52.5625C311.707 52.3573 361.522 50.2366 405.899 43.1221C420.457 40.7962 428.003 40.1122 428.966 29.5C429.668 21.7699 419.422 15 403.014 13.8209C380.738 10.1953 358.189 8.16546 334.861 5.56594C311.883 2.96642 286.975 2.21393 263.296 1.25621C219.796 -0.522404 176.12 -0.590812 132.795 2.21393C110.519 3.65051 89.1199 6.0448 67.3699 8.16546C54.0392 9.46522 40.3577 10.2861 27.2024 11.6543C15.8012 12.8856 10.9374 11.6219 5.49992 16C-2.04244 22.1568 -2.05043 33.801 9 39C35.3106 51.1767 76.4908 56.3933 115.606 59.4717C167.175 63.5078 221.024 61.9344 273.118 60.0874C301.885 59.0613 330.651 57.8299 359.066 56.1197C381.167 54.82 401.689 52.0152 416.423 45.1744C417.826 44.5587 413.792 45.0376 413.266 45.3796C399.76 51.81 374.502 53.1097 354.681 54.1359C331.703 55.3672 308.725 56.3933 285.747 57.3511C241.195 59.1297 195.415 60.6347 150.687 59.1297C113.501 57.8299 75.5727 55.0722 44 47C29.2661 43.2375 12.4899 40.204 6 33.5C3.5 30.9175 -0.160542 20.2053 8.25884 16.5797C12.4685 14.8011 19.3093 14.1854 25.0976 13.5697C37.5513 12.2015 50.3557 11.3806 62.9848 10.2177C81.2267 8.5075 99.1179 6.31843 117.535 4.88186C156.124 1.9403 195.239 1.1194 234.354 2.0087C276.1 2.96642 319.25 4.33459 358.365 10.4913C368.187 12.0647 378.458 11.3582 388.28 13C397.226 14.505 406.698 15.6679 415.293 17.5149C422.835 19.0883 425.952 22.5 426.957 25.5C427.961 32 428.526 37.3074 417.651 40.1122C405.899 43.0537 390.99 44.6271 377.659 46.0637C366.433 47.295 355.032 48.3212 343.631 49.0737C319.6 50.7839 295.044 51.6048 270.663 51.81C218.392 52.3573 166.473 50.305 114.729 48.1159C112.975 48.1159 115.08 48.5948 115.606 48.5948Z"
          fill="black" fill-opacity="0.8"/>
</svg>
