<svg fill="none" height="68" viewBox="0 0 160 68" width="160" xmlns="http://www.w3.org/2000/svg">
    <path d="m56.5932 58.3403c17.573-.1635 35.146-1.6356 52.6328-3.2713 12.687-1.2267 26.403-1.7174 38.318-6.5426 4.2-1.7175 8.229-4.2527 10.629-8.0965 3.001-4.8253 1.886-9.6505-.342-14.5574-5.572-12.4311-21.688-13.3307-33.775-15.7024-16.458-3.27131-32.1454-9.15969-49.1183-10.059305-16.2014-.899614-31.2885 3.843805-46.5469 8.260085-3.5146 1.06318-7.0292 2.04462-10.6296 2.69882-2.9145.4907-5.9147.8179-8.65782 1.881-3.9432 1.4721-6.77202 4.4163-8.143567 8.2601-4.200363 12.0221 6.171967 23.4718 15.858487 29.6873 13.7155 8.8326 31.117 14.3938 47.4899 16.0295 17.1443 1.7174 33.4315-1.881 47.4038-11.4497 1.372-.8996.172-1.3085-.857-.6542-21.6875 13.576-49.7185 10.7953-72.6919 2.2899-11.401-4.1709-23.7449-9.5686-31.03126-19.3826-3.68603-4.9888-6.85778-12.5946-3.68608-18.5647 2.91454-5.4795 12.00104-5.3159 17.48724-6.7063 12.6868-3.27128 24.8593-8.0147 37.889-9.65036 14.0583-1.71745 28.1168.81783 41.747 4.08915 6.257 1.55388 12.429 3.43491 18.687 4.82521 5.829 1.3085 11.744 1.9628 17.573 3.3531 5.4 1.3085 11.315 3.4349 15.258 7.3605 3.086 3.1077 5.829 9.1597 5.486 13.4942-.942 11.9403-17.744 14.5574-27.688 16.1112-7.886 1.2268-15.944 1.7993-23.916 2.6171-16.8016 1.5539-33.6887 2.9442-50.6616 3.026-.6858 0 .9429.6542 1.2858.6542z"
          fill="#000" fill-opacity=".8"/>
</svg>
