<svg fill="none" height="64" viewBox="0 0 246 64" width="246" xmlns="http://www.w3.org/2000/svg">
    <path d="m68.7566 59.6218c24.4 2.9773 48.9004 4.6915 73.5004 4.3306s50.2-1.7142 74.3-6.4057c11.9-2.3457 29.5-8.4807 29.4-21.7431 0-8.1198-7.2-14.2548-14.4-18.0441-9.4-4.8719-19.9-5.6839-30.5-6.2252-24.1-1.2631-48-6.13497-72-8.75136s-48.4004-4.05992-72.5004-1.26308c-11.3 1.3533-23 3.33815-33.6 7.12741-7.1 2.52613-14.2 6.13503-18.6 11.81883-4.199998 5.4133-5.50005 12.27-3.30005 18.5854 3.1 8.9319 10.60005 14.2549 20.50005 15.9691 12.9 2.3457 25.3 5.8643 38.4 7.2176 12.9 1.4435 25.9 1.624 38.8.9022 27.1004-1.4435 54.7004-6.0448 80.5004-13.8037.5-.1805 2.5-1.7142 1.1-1.4436-21.1 3.6991-41.9 8.6612-63.3 11.0069-21.3004 2.3458-42.9004 2.7066-64.1004-.5413-10.2-1.5337-20-4.4208-30.2-6.135-10.1-1.8044-17.9-7.398-20.4-16.6908-5.6-20.48 26.8-26.97585 42.5-29.68246 42-7.21764 85.1004-.63155 126.8004 4.96216 10.2 1.3533 20.2 2.4359 30.4 2.887 10.9.5413 21.5 1.8044 30.7 7.4883 7.4 4.6915 13.6 12.4504 10.1 20.9311-3.5 8.3905-14.9 11.9994-23.7 13.9842-11 2.436-22.6 3.4284-33.9 4.511-12.2 1.1729-24.5 1.8947-36.7 2.2555-26.8.7218-53.7004-.3608-80.2004-3.699-1.1-.1804 0 .4511.4.4511z"
          fill="#000" fill-opacity=".8"/>
</svg>
