<svg fill="none" height="76" viewBox="0 0 251 76" width="251" xmlns="http://www.w3.org/2000/svg">
    <path d="m67.0488 59.2795c28.1 2.5035 56.4002 5.0905 84.7002 4.8401 27.1-.2503 55.5-2.8373 80.8-11.516 8.3-2.8373 17.8-8.0946 18.1-16.4396.4-9.4298-11.6-13.4354-20.2-16.4396-12.7-4.4228-25.1-9.76357-38.4-12.93465-13.1-3.17109-27.3-4.08903-40.8-5.25733-24.8-2.169687-49.7-2.253137-74.4002 1.1683-12.7 1.75244-24.9 4.67317-37.3 7.26011-7.6 1.58557-15.4 2.58697-22.9 4.25597-6.5 1.5021-11.20002 3.0876-14.30002 8.4284-4.3 7.5104-2.50001 16.6064 3.79999 22.9486 15.00003 14.854 38.60003 23.199 60.90003 26.9542 29.4 4.9235 60.1002 3.0042 89.8002.7511 16.4-1.2518 32.8-2.7539 49-4.8401 12.6-1.5855 24.3-5.007 32.7-13.3519.8-.7511-1.5-.1669-1.8.2503-7.7 7.8443-22.1 9.4298-33.4 10.6816-13.1 1.502-26.2 2.7538-39.3 3.9221-25.4 2.1697-51.5 4.0056-77.0002 2.1697-21.2-1.5856-42.8-5.9249-60.8-15.772-8.4-4.5897-19.10003-10.9319-22.80003-19.11-2.4-5.3407-2.39999-12.6008 2.40001-17.0237 2.4-2.1697 6.30002-2.9207 9.60002-3.6718 7.1-1.6689 14.4-2.6703 21.6-4.089 10.4-2.0862 20.6-4.75661 31.1-6.50905 22-3.58833 44.3002-4.58973 66.6002-3.50488 23.8 1.16829 48.4 2.83728 70.7 10.34773 5.6 1.9194 11 3.9221 16.6 5.9249 5.1 1.8359 10.5 3.2546 15.4 5.5077 4.3 1.9194 8.4 4.5897 10.2 8.5119 2.8 6.3421-2.2 12.7678-8.4 16.1892-6.7 3.5883-15.2 5.5077-22.8 7.2601-6.4 1.5021-12.9 2.7538-19.4 3.6718-13.7 2.0862-27.7 3.0876-41.6 3.338-29.8.6676-59.4002-1.8359-88.9002-4.5063-1 0 .2.5841.5.5841z"
          fill="#000" fill-opacity=".8"/>
</svg>
