<svg fill="none" height="35" viewBox="0 0 136 35" width="136" xmlns="http://www.w3.org/2000/svg">
    <path d="m63.0102 6.03193c-20.9116-1.09303-50.7657-1.73377-61.22146 10.93027-1.582127 1.9223-2.407584 4.2214-1.238186 6.2944 1.306976 2.4499 5.090326 3.4298 9.423976 3.8821 13.48247 1.3569 27.30887 2.0353 40.92897 2.5253 14.1703.49 28.4095.6407 42.6486.3769 7.0849-.1131 14.2389-.3392 21.3239-.6784 5.435-.2262 5.773.3015 11.07-.5277 4.196-.6784 8.075-2.7137 9.313-5.0882 1.307-2.4876.688-5.4275-.344-7.9151-2.338-5.5405-9.905-8.0658-19.948-8.14118-5.503-.03769-6.075.4146-11.578.22614-6.2599-.18845-12.1757-1.31917-17.9539-2.63834-10.7997-2.41221-21.2555-5.352081-33.2934-5.2766996-11.694.0753814-22.9753 2.5252796-32.8808 5.8420596-4.8151 1.6207-9.97425 3.42985-13.89518 5.69132-3.02667 1.7337-3.16425 3.5806-1.78849 5.7666 2.27001 3.4299 4.54002 7.1236 7.56667 10.365 2.4076 2.6383 7.154 3.6183 12.038 4.4475 12.7258 2.1107 26.4146 2.1107 39.6219 2.1107 14.3079 0 28.6159-.4523 42.8552-1.2815 7.91-.49 18.641-1.2438 22.287-5.8044 4.054-4.1387-.894-11.2365-7.979-14.1387-9.699-3.95752-24.3512-6.55347-36.2516-8.0611-12.8634-1.6207-25.8643-.11307-38.7277.94227-7.154.56536-14.3079 1.13072-21.3931 1.73377-3.3706.26383-6.6725.52767-10.0431.7915-2.0636.15077-4.81516.22615-6.3285 1.16841-1.58212.97995-1.44455 2.52525.6191 3.20375.68788.2261.89424-.7162.27515-.9046.20636-.3392.41273-.6784.61909-1.0177-.13757-.7538.41273-1.13068 1.51336-1.16837.6191-.15077 1.307-.15077 1.926-.22615 1.5822-.15076 3.0955-.26383 4.6776-.3769 2.8891-.22615 5.7782-.45229 8.7361-.67844 5.7782-.45229 11.6252-.94226 17.4034-1.39455 11.0061-.86689 22.4938-2.29913 33.6374-1.73377 11.0749.60305 25.1078 2.25673 34.4628 5.46048 7.911 2.7137 17.61 8.0705 16.716 14.0256-.895 5.7667-14.033 6.7843-22.219 7.2743-11.7627.7161-23.5255 1.1307-35.3571 1.2438-11.35.1131-22.8376.1508-34.1189-.6031-5.847-.4146-11.8315-1.0553-17.3346-2.2991-6.1909-1.3945-7.7043-4.259-9.97427-7.4251-2.27001-3.1283-7.77306-7.915-2.61395-10.7795 3.64577-2.0353 8.39212-3.73137 12.72582-5.2013 8.8737-3.01526 18.5728-5.31439 28.8222-5.87975 10.3182-.603051 19.811.97996 29.235 3.16602 8.5297 1.9976 17.1282 4.29674 26.4838 4.59826 8.804.30153 14.054-1.39455 22.308.94227 5.228 1.4699 7.567 4.4098 8.393 7.4628.825 3.0529 1.444 6.935-3.784 8.9326-3.852 1.4323-3.805 1.6584-8.276 1.8846-5.778.3015-11.487.5653-17.266.7538-11.556.3769-23.1124.49-34.6689.3769-11.5564-.1131-23.1128-.5277-34.6004-1.1307-5.7782-.3015-11.4876-.6785-17.197-1.1307-5.3655-.4146-14.17038-.3016-16.57796-3.6183-3.85214-5.3898 6.67245-11.0434 14.17036-13.45562 9.08-2.90218 19.6734-3.656 29.9916-3.54292 5.7094.03769 11.4188.33921 17.1283.64074.6878.03769.6878-.90458-.0688-.94227z"
          fill="#000"/>
</svg>
