<svg fill="none" height="67" viewBox="0 0 126 67" width="126" xmlns="http://www.w3.org/2000/svg">
    <path d="m106.53 15.3094c-19.6998-21.38216-52.5997-16.059549-78.4997-9.63571-10.2 2.56953-21.40005 6.51561-26.00005 15.96781-4.4 9.2687-1.200009 21.0151 5.29999 28.8155 9.09996 10.9205 23.19996 9.2687 36.49996 9.8193 15.7.5506 30.7001 6.332 46.4001 6.6074 13.3997.2753 23.9997-4.1297 30.8997-14.9584 6.1-9.544 5.5-20.1892-5.3-26.613-7.5-4.4967-17.0997-6.4239-25.5997-8.5346-8.2-2.0189-16.5001-3.6707-24.8001-5.0473-8.8-1.3765-17.7999-2.8448-26.6999-2.66126-8 .18354-14 2.29426-20.5 6.42386-1.3.8259 1 .4588 1.5.0917 10.5-6.9744 28.1999-3.6707 39.8999-2.0189 13.5 1.9272 26.8 4.772 39.8 8.5345 12.0998 3.4873 29.3998 10.737 22.6998 25.3283-5.3 11.3794-16.3 16.5184-29.3997 16.6102-12.8.0918-25.2001-3.7625-37.8001-5.5979-11.4-1.6518-23.9999.9177-34.8999-2.6613-9.6-3.2119-15.50007-11.93-17.40007-20.7398-1.5-6.8827-.4-14.2242 5.5-19.2715 4.69997-4.0379 11.10007-6.05678 17.10007-7.61685 25.3-6.79091 59.4999-13.39828 79.3997 7.43325.4.1836 2.1 0 1.9-.2753z"
          fill="#000" fill-opacity=".8"/>
</svg>
