<svg width="8" height="7" viewBox="0 0 8 7" fill="none" xmlns="http://www.w3.org/2000/svg">
<path d="M6.52484 6.87305C7.81647 6.01926 8.31999 4.39924 7.79458 2.93246C7.29106 1.50947 5.97754 0.830811 4.51076 0.830811C3.00021 0.830811 1.33641 1.4219 0.482616 2.73543C-0.371176 4.02707 -0.108471 6.12872 1.40208 6.78548C3.78832 7.81441 8.5608 4.94654 6.08699 2.34137C4.9486 1.1373 3.28481 1.22487 1.92749 2.01299C0.592077 2.80111 -0.655773 4.68383 0.482616 6.1725C1.75236 7.81441 4.26995 6.63224 5.27699 5.3406C6.41538 3.87382 5.49591 1.68461 3.52562 2.16623C3.00021 2.29759 2.40912 2.62597 2.05885 3.04192C1.88371 3.26084 1.59911 3.72058 2.10263 3.74247C2.58426 3.76436 3.0221 4.04896 3.3067 4.44302C3.48184 4.68383 3.48184 4.92465 3.5913 5.18735C3.5913 5.27492 3.5913 5.3406 3.5913 5.42817C3.98535 5.25303 4.00725 5.16546 3.67887 5.23114C3.24102 4.96843 2.86886 5.03411 2.54048 4.5087C2.21209 3.96139 2.4748 3.61112 2.40912 3.06381C2.58426 2.823 2.54047 2.75732 2.27777 2.88867C2.34344 2.88867 2.43101 2.88867 2.49669 2.88867C2.7375 2.95435 2.95642 2.95435 3.19724 3.06381C3.63508 3.26084 4.02914 3.56733 4.26995 3.98328C4.62022 4.59626 4.59833 5.80033 3.76643 5.86601C1.24884 6.08493 1.94939 0.699458 4.53266 1.68461C6.32781 2.36326 6.45916 4.83708 5.47402 6.21629C5.34267 6.41332 6.30592 7.0044 6.52484 6.87305Z" fill="#DA368B"/>
</svg>
