<svg width="9" height="9" viewBox="0 0 9 9" fill="none" xmlns="http://www.w3.org/2000/svg">
<path d="M4.23781 8.75631C8.38883 7.58701 8.95399 5.87617 8.99297 1.43283C9.01246 1.35488 8.99297 1.29641 8.91502 1.23795C6.14767 0.0101802 1.64585 0.926131 0.496039 4.08324C-0.809683 7.61063 3.14646 10.2416 6.06971 8.39017C8.21344 7.02598 8.70065 2.71906 5.34865 2.8165C3.94548 2.85548 2.19153 3.71296 1.60688 5.07715C1.02223 6.4998 2.0746 8.52658 3.73111 8.56556C4.88092 8.58505 6.22562 7.63012 6.06971 6.40235C5.85534 4.74585 3.98446 4.96022 2.81516 5.40845C2.03562 5.72026 3.73111 5.91515 4.14037 5.72026C3.43878 6.05156 3.63367 5.68129 3.77009 6.28542C3.80906 6.48031 3.94548 6.63621 4.00395 6.8311C4.06241 7.02598 4.02343 7.35728 4.10139 7.51319C4.0819 7.59114 4.06241 7.6691 4.04292 7.74705C4.17934 7.57165 4.33525 7.39626 4.47167 7.22086C4.47167 7.06496 3.82855 6.59724 3.71162 6.38287C3.49725 6.01259 3.43878 5.64231 3.45827 5.23305C3.51674 4.23915 4.39371 3.6545 5.21223 4.33659C5.9333 4.92124 5.97227 6.09054 5.71892 6.90905C5.21223 8.62403 3.63367 7.72756 2.9126 6.61673C2.32795 5.72026 2.0746 4.47301 2.46437 3.45962C2.87362 2.44622 3.82855 1.84208 4.90041 1.78362C5.54353 1.74464 6.7713 1.82259 7.00516 2.54366C7.37544 3.6545 6.24511 5.77873 5.69944 6.63621C4.74451 8.11733 6.16716 7.35315 4.47167 7.84036C3.59469 8.07422 2.83464 9.14608 4.23781 8.75631Z" fill="black"/>
</svg>
