<svg width="8" height="7" viewBox="0 0 8 7" fill="none" xmlns="http://www.w3.org/2000/svg">
<path d="M2.97173 4.97782C4.41387 7.0241 8.62335 5.8548 7.92177 3.10693C7.02531 -0.43997 2.07527 0.670871 0.594155 3.08744C-0.380262 4.68549 0.496713 6.32252 2.21169 6.84871C3.61485 7.29694 5.34931 6.71229 6.28475 5.58196C7.25916 4.43214 7.06428 2.60023 5.38828 2.3079C4.19949 2.09353 2.5235 2.99 2.23118 4.19828C1.80243 5.99122 3.6928 6.41996 4.82312 5.42605C5.856 4.51009 6.59656 2.05455 5.05698 1.23604C4.64773 1.02166 2.8548 1.93762 3.16661 2.42483C3.71229 3.24335 4.33592 4.45163 3.53689 5.3481C4.0241 5.09475 4.49182 4.8414 4.97903 4.60754C4.25796 4.52958 4.33592 3.84749 4.21899 3.34079C4.14103 3.43823 4.04359 3.55516 3.96564 3.6526C4.14103 3.69158 4.27745 3.76953 4.41387 3.88646C4.62824 4.04237 4.78414 4.23726 4.88159 4.49061C4.97903 4.78293 4.95954 5.48452 4.68671 5.71838C4.37489 5.99122 3.84871 5.81582 3.47843 5.65991C2.79634 5.36759 2.15322 4.76344 2.11424 3.98391C2.03629 2.3079 4.14103 0.865756 5.48573 2.11302C5.95345 2.54176 6.26526 3.12642 6.28475 3.76953C6.30424 4.62703 5.21289 6.22508 4.16052 5.1727C3.96564 4.99731 2.71838 4.62703 2.97173 4.97782Z" fill="black"/>
</svg>
