<svg fill="none" height="109" viewBox="0 0 320 109" width="320" xmlns="http://www.w3.org/2000/svg">
    <path d="m55.2748 21.2672c-37.033 29.6275-56.078692 73.1713 0 70.9264 56.0792-2.2449 104.7502 22.4454 160.8292 8.5294 56.079-13.9166 90.466-29.6282 81.472-62.3976-8.994-32.76935-205.2682-46.68568-242.3012-17.0582z"
          fill="#da368b" fill-opacity=".8" stroke="#000"/>
    <path d="m143.002 19.2108c-47.4591-3.4812-115.213-5.5218-138.94245 34.8113-3.590641 6.122-5.46402 13.4444-2.81007 20.0465 2.96619 7.8026 11.55252 10.9236 21.38772 12.3641 30.5985 4.3214 61.9776 6.4821 92.8888 8.0426 32.159 1.5605 64.475 2.0406 96.791 1.2004 16.08-.3602 32.316-1.0804 48.395-2.1607 12.334-.7203 25.291-1.0804 37.312-3.7212 9.523-2.1608 17.485-6.6022 20.295-14.1647 2.966-7.9225 1.561-17.2856-.781-25.2082-5.308-17.6457-22.48-25.6883-45.273-25.9284-12.489-.12-25.135 1.3204-37.624.7202-14.206-.6002-27.632-4.2013-40.746-8.4027-24.51-7.68251-48.239-17.045554-75.559-16.80547625-26.5399.24007825-52.1427 8.04261625-74.6233 18.60607625-10.928 5.1617-22.6366 10.9235-31.5352 18.1259-6.86903 5.5218-7.18126 11.4037-4.05896 18.366 5.15176 10.9235 10.30356 22.6873 17.17266 33.0107 5.464 8.4027 16.2359 11.5237 27.3201 14.1648 28.8813 6.722 59.9477 6.722 89.9217 6.722 32.472 0 64.944-1.44 97.26-4.081 17.953-1.561 42.307-3.962 50.581-18.4863 9.679-16.9256-10.459-32.8907-26.539-42.1338-22.012-12.6041-46.835-23.7677-73.843-28.5693-29.193-5.1616-58.699-.3601-87.892 3.001-16.2362 1.8006-32.4722 3.6012-48.552 5.5218-7.6497.8403-15.1432 1.6806-22.7928 2.5208-4.6834.4802-10.928.7203-14.3626 3.7212-3.5906 3.1211-3.2784 8.0427 1.4051 10.2034 1.5611.7202 2.0295-2.2808.6244-2.881.4684-1.0803.9367-2.1607 1.4051-3.241-.3123-2.4008.9366-3.6012 3.4345-3.7212 1.405-.4802 2.9662-.4802 4.3712-.7203 3.5906-.4801 7.0252-.8402 10.6158-1.2004 6.5568-.7202 13.1137-1.4404 19.8266-2.1607 13.1137-1.4404 26.3834-3.0009 39.4971-4.4414 24.9786-2.7609 51.0496-7.3224 76.3406-5.5218 25.134 1.9206 48.551 10.0833 69.783 20.2866 17.953 8.6428 48.396 22.8074 46.366 41.7736-2.029 18.366-31.847 21.6068-50.425 23.1678-26.696 2.28-53.391 3.601-80.243 3.961-25.759.36-51.83.48-77.4331-1.921-13.2698-1.32-26.8518-3.361-39.341-7.322-14.0503-4.4414-17.4848-13.5644-22.6366-23.6477-5.1518-9.9632-17.64101-25.2082-5.9324-34.3312 8.2741-6.4821 19.046-11.8838 28.8813-16.5653 20.1388-9.6032 42.151-16.92556 65.4118-18.72614 23.418-1.92063 44.961 3.12101 66.349 10.08324 19.358 6.3621 38.873 13.6845 60.104 14.6448 19.983.9603 43.244-4.4414 61.978 3.001 11.865 4.6815 17.173 14.0446 19.046 23.7677 1.873 9.7232 3.278 22.0872-8.586 28.4493-8.743 4.5615-19.983 5.2817-30.13 6.0019-13.114.9603-26.072 1.8006-39.185 2.4008-26.228 1.2004-52.455 1.5605-78.682 1.2004-26.228-.3601-52.455-1.6805-78.526-3.6012-13.1137-.9603-26.0712-2.1607-39.0288-3.6011-12.1769-1.3205-32.15963-.9604-37.62365-11.5238-8.74243-17.1656 15.14315-35.1714 32.15965-42.8539 20.6072-9.243 44.6489-11.6438 68.0658-11.2837 12.958.12 25.915 1.0803 38.873 2.0407 1.561.12 1.561-2.881-.156-3.001z"
          fill="#000"/>
</svg>
