<svg fill="none" height="3" viewBox="0 0 770 3" width="770" xmlns="http://www.w3.org/2000/svg">
    <path d="m.21689.849466c6.44112.960264 12.88221 1.255734 19.43341 1.108004 2.9729-.07387 5.7255-.1108 8.5882.59093 1.6516.40626 2.9178.48013 4.6794.4432 2.092-.03694 4.184-.03694 6.276-.03694 11.1206-.03693 22.2411-.07386 33.3066-.11079 28.7925-.1108 57.5845-.18467 86.4325-.40627 4.184-.03693 8.368-.07387 12.552-.1108 3.137-.03693 5.725-.48013 8.863-.70173 7.597-.554 15.745-.03694 23.397-.03694 29.728.03694 59.457.03694 89.24.07387 12.277 0 24.498.03693 36.775.03693 3.083 0 6.111 0 9.194.03694 3.358 0 6.661.07386 10.019 0 6.937-.1108 13.598-.84947 20.535-.29547 8.147.6648 16.24.59093 24.388.62787 13.928.03693 27.856 0 41.784-.03694 28.573-.07386 57.255-.18466 85.937-.2216 3.413 0 6.826 0 10.185.03694 1.871 0 3.798.1108 5.67.14773 6.716.07387 13.378-1.181867 20.204-1.144934 9.414.036934 18.828.295464 28.187.369334 30.829.2216 61.603.36933 92.433.51707 27.581.14773 55.162.2216 82.743.51706 2.863.03694 5.671.07387 8.533.1108.606 0 .551-.8864-.055-.8864-22.296-.517064-44.702-.36933-67.053-.480131-32.646-.184666-65.292-.295466-97.938-.517066-11.066-.073867-22.076-.1108-33.142-.258533-4.844-.036933-9.689-.2216-14.589-.2216-6.771 0-13.377 1.29267-20.149 1.14493-1.706-.03693-3.413-.1108-5.12-.1108-23.947-.184664-47.95.07387-71.898.1108-26.48.07387-53.015.25854-79.495.03694-3.689-.03694-7.212-.221604-10.901-.554004-6.936-.5539994-13.598.184667-20.534.3324-3.358.073864-6.662.036933-10.02 0-8.313-.036933-16.57-.036933-24.883-.036933-30.279-.036933-60.558-.036933-90.837-.073867-10.955 0-21.855 0-32.811-.036933-2.862 0-5.78-.1108-8.643 0-3.413.1108-6.551.701737-9.964.775597-25.324.40627-50.649.36934-75.9175.4432-20.7547.07387-41.7296-.1108-62.6495.29547-3.7986.07387-7.1017-1.108-10.9554-1.07107-7.377.07387-14.36865.14774-21.690605-.960264-.3853662-.036933-.440419.517067-.110105.554z"
          fill="#000" opacity=".9"/>
</svg>
