<svg fill="none" height="20" viewBox="0 0 18 20" width="18" xmlns="http://www.w3.org/2000/svg">
    <path d="m10.5618 10.0651c2.3915-2.411 4.783-4.82202 7.1745-7.23303.4301-.43598.3072-2.206157-.1742-2.489805-.087-.099803-.1843-.126066-.2816-.026264-.0461.047275-.0922.089297-.1383.136571 0 0 0 0-.0051 0-.0102.010506-.0205.021011-.0358.03677-2.2482 2.195648-4.4604 4.428068-6.6727 6.660488-.98834.99802-1.00882 1.28693-2.12007.57255-.06658-.04202-.12803-.0893-.18948-.14182-.50698-.53053-1.01396-1.05581-1.52093-1.58633-.18948-.22062-.36871-.43073-.54795-.61458-1.67968-1.74391-3.36449-3.48257-5.04929-5.226484-.783511-.808924-1.136859 1.822704-.594034 2.384754 2.391504 2.49505 4.788124 4.99536 7.179624 7.49038-2.44271 2.4741-4.88542 4.9534-7.323012 7.4379-.537703.5463-.2099603 3.1937.599155 2.3795 1.357057-1.3709 2.714127-2.7367 4.071187-4.1076.96274-.9718 1.93061-1.9435 2.89335-2.9205.20484-.2049.94226-.8405 1.22904-1.2292.26117.3519.90129.9087 1.07031 1.0821.9218.9612 1.8384 1.9172 2.7602 2.8785 1.3724 1.4287 2.7397 2.8575 4.1121 4.2915.7836.8194 1.1215-1.8122.5992-2.3795-2.3198-2.4898-4.6806-4.9429-7.0362-7.3959z"
          fill="#da368b"/>
</svg>
