<svg fill="none" height="6" viewBox="0 0 1269 6" width="1269" xmlns="http://www.w3.org/2000/svg">
    <path d="m.357446 1.69893c10.615254 1.92053 21.230554 2.51147 32.027354 2.216 4.8994-.14773 9.4358-.2216 14.1537 1.18187 2.7219.81253 4.8086.96026 7.712.8864 3.4477-.07387 6.8954-.07387 10.3431-.07387 18.3272-.07387 36.6544-.14773 54.8914-.2216 47.451-.2216 94.902-.36933 142.444-.81253 6.896-.07387 13.791-.14774 20.686-.2216 5.172-.07387 9.436-.96027 14.608-1.40347 12.52-1.108 25.948-.07386 38.56-.07386 48.993.07386 97.987.07386 147.071.14773 20.233 0 40.375.07386 60.607.07386 5.081 0 10.071 0 15.152.07387 5.535 0 10.978.14773 16.513 0 11.432-.2216 22.41-1.69893 33.842-.59093 13.428 1.3296 26.765 1.18186 40.193 1.25573 22.954.07387 45.908 0 68.863-.07387 47.088-.14773 94.358-.36933 141.628-.4432 5.625 0 11.25 0 16.785.07387 3.085 0 6.26.2216 9.345.29547 11.069.14773 22.047-2.36373 33.297-2.28987 15.515.07387 31.03.59094 46.454.73867 50.807.4432 101.527.73867 152.337 1.03413 45.45.29547 90.91.4432 136.36 1.03413 4.72.07387 9.35.14774 14.07.2216.99 0 .9-1.7728-.1-1.7728-36.74-1.03413-73.67-.73866-110.5-.96026-53.81-.36933-107.61-.59093-161.41-1.034134-18.237-.147733-36.382-.2216-54.619-.517066-7.984-.073867-15.968-.4432-24.043-.4432-11.16 0-22.047 2.58533-33.207 2.28987-2.813-.07387-5.625-.2216-8.438-.2216-39.467-.36934-79.025.14773-118.492.2216-43.641.14773-87.372.51706-131.013.07386-6.079-.07386-11.885-.4432-17.964-1.108-11.432-1.107997-22.41.36934-33.842.6648-5.534.14774-10.978.07387-16.513 0-13.7-.07386-27.309-.07386-41.009-.07386-49.901-.07387-99.802-.07387-149.703-.14774-18.055 0-36.019 0-54.074-.07386-4.718 0-9.527-.2216-14.245 0-5.625.2216-10.797 1.40346-16.422 1.5512-41.735.81253-83.471.73866-125.115.88639-34.205.14774-68.7728-.2216-103.2498.59094-6.2603.14773-11.704-2.216-18.0551-2.14213-12.1577.14773-23.6802.29546-35.747196-1.920537-.6351028-.073867-.725832 1.034137-.181458 1.107997z"
          fill="#000" opacity=".2"/>
</svg>
