<svg fill="none" height="363" viewBox="0 0 156 363" width="156" xmlns="http://www.w3.org/2000/svg"
>
    <filter id="a" color-interpolation-filters="sRGB" filterUnits="userSpaceOnUse" height="361.98" width="154.49"
            x=".951172" y=".0448">
        <feFlood flood-opacity="0" result="BackgroundImageFix"/>
        <feColorMatrix in="SourceAlpha" type="matrix" values="0 0 0 0 0 0 0 0 0 0 0 0 0 0 0 0 0 0 127 0"/>
        <feOffset dx="-1" dy="3"/>
        <feGaussianBlur stdDeviation="2"/>
        <feColorMatrix type="matrix" values="0 0 0 0 0 0 0 0 0 0 0 0 0 0 0 0 0 0 0.13 0"/>
        <feBlend in2="BackgroundImageFix" mode="normal" result="effect1_dropShadow"/>
        <feBlend in="SourceGraphic" in2="effect1_dropShadow" mode="normal" result="shape"/>
    </filter>
    <g filter="url(#a)">
        <path d="m16.9589 354.605c-13.95423-11.178-.4383-51.872-1.1689-70.429 0-1.607 2.1917-26.52-1.8265-38.429-3.2877-11.178-4.23742-37.698-.3653-62.611 6.2831-41.206 10.1552-83.2874 6.2831-125.077 0-2.8493 0-5.5525 0-8.1826 0-3.5069 0-6.7214 0-9.7169 0-2.9954-2.9224-10.1551-2.9224-12.7122-2.484-25.49752 14.3926-21.26011 39.9632-25.13223h7.525 8.1096 4.8218c27.6895 1.09588 60.7845-4.31047 72.7665 1.38812 3.872 2.84929 1.607 13.07751 1.9 18.92221 2.557 56.6937-28.347 71.2324-55.0867 129.0216-12.5661 27.617-42.0088 55.525-54.7941 58.813-2.9954 23.525 13.662 51.36 18.1916 63.269 1.3882 5.844-4.6027 8.694-9.4245 21.552-3.3607 8.84 2.557 8.183-1.8265 16.877-1.169 2.337-2.7762 1.826-5.1141 7.159-4.2374 9.571.9497 13.297-1.0229 16.585-5.2602 8.694-24.4747 19.945-26.0089 18.703z"
              fill="#d25aa0"/>
        <g fill="#141414">
            <path d="m13.5981 4.21461c.7306 14.10039-.9497 27.83539-1.8264 41.86269-.8768 13.8081.6575 27.5432 1.315 41.2783.6575 13.6624.9498 27.2504 1.3881 40.9124.4384 14.393.6576 28.859-1.242 43.178-.2191 1.608 1.6804 2.777 1.9726.731 1.8265-13.662 1.7534-27.397 1.3151-41.205-.4384-14.101-.8037-28.274-1.5343-42.3744-.7305-13.9543-2.4109-27.9816-1.7534-41.9358.7306-14.2465 2.411-28.2007 1.5343-42.52024-.0731-.94977-1.169-.94977-1.169.07305z"/>
            <path d="m14.9133 4.14151c2.3379 1.16894 4.6758 2.04565 7.3059 2.33789 2.7762.36529 6.2831-.87671 8.8401.65752 1.4612.87671 1.7534 1.53424 3.5069 1.46118 2.2648-.14612 4.3104-1.31506 6.3561-2.19176 2.9223-1.16894 5.9908-.80365 9.0593-.65753 3.0684.07306 6.0638.21917 9.1323.21917 3.1415.07306 6.0639-.29223 9.2054-.80364 3.4338-.58447 6.137.14611 9.4246.94976 5.4794 1.31506 11.3241.07306 16.8766.3653 2.1918.07305 3.726-.29224 5.7715-.94977 3.069-1.09588 5.918-1.31506 9.132-1.16894 12.494.58447 24.987 1.89953 37.48 2.92235 1.169.07306 1.169-2.55706-.073-2.70317-12.055-.87671-24.183-1.97259-36.238-2.77624-2.849-.14612-5.698-.29223-8.474.43835-2.192.58447-4.0917 1.68036-6.3565 1.75342-3.1415.07305-6.21-.29224-9.3515-.07306-3.3607.21917-6.4292.29223-9.7168-.58447-2.5571-.65753-4.6028-1.16895-7.3059-.80365-2.8493.51141-5.5525 1.16894-8.4749 1.16894-5.8447.07306-12.2008-1.09588-17.9724-.21918-1.9726.29224-3.653 1.46118-5.5525 2.19177-1.6803.58447-3.5068 1.09588-5.1872.29223-.7306-.36529-1.242-1.09588-2.0456-1.38811-1.8265-.58447-3.7991-.07306-5.6986 0-3.2146.07306-6.3561-.65753-9.4246-2.04565-.7306-.29224-.8036 1.31506-.2192 1.60729z"/>
            <path d="m103.68 15.6849c-2.265 25.1322-6.7948 49.8261-13.5162 74.1547-3.3607 12.3474-6.7945 24.5474-12.4931 36.0184-5.1872 10.52-12.42 19.725-17.7533 30.173-2.5571 4.968-4.968 9.717-8.9132 13.662-5.6255 5.552-11.3241 11.178-16.9496 16.73-1.242 1.242-.0731 5.334 1.5342 3.726 8.4018-8.475 18.4108-16.365 23.9633-26.958 2.5571-4.822 4.7488-9.863 7.6712-14.466 3.4338-5.406 7.0136-10.667 10.009-16.365 5.9178-11.251 9.6438-23.087 12.7853-35.4337 3.1416-12.2009 5.9909-24.4747 8.3287-36.8947 2.7037-14.6118 4.7487-29.2966 5.9907-44.1276 0-.5114-.657-.8767-.657-.2191z"/>
            <path d="m88.4835 11.8126c-2.2648 24.4747-6.0639 48.8033-12.7122 72.4744-3.2877 11.6164-7.0867 23.014-11.178 34.338-2.0457 5.698-4.0913 11.543-6.9406 16.876-2.8493 5.334-7.0137 9.717-10.5205 14.612-7.452 10.374-12.493 22.283-17.5341 33.972-.6575 1.535 1.1689 3.872 2.0456 1.754 4.7489-11.032 9.5708-22.21 16.4383-32.146 3.4338-4.895 7.5981-9.279 10.5935-14.539 2.7763-4.895 4.6758-10.301 6.6484-15.634 8.2556-22.722 14.0273-46.2466 18.3377-69.9908 2.484-13.735 4.3836-27.5431 5.4795-41.4243.073-.5845-.5845-.9498-.6576-.2923z"/>
            <path d="m48.0818 10.3515c-6.3561 27.5432-10.8857 55.5247-12.7852 83.7985-.9498 14.1-2.8493 27.835-5.1872 41.79-2.3379 13.735-3.1416 27.543-2.1187 41.497.1461 2.265 2.557 2.265 2.4109-.073-.8767-14.1-.073-27.982 2.2648-41.936 2.2649-13.808 3.8722-27.397 4.7489-41.4241 1.7534-28.0546 5.3332-55.9631 11.178-83.4332.073-.4383-.4384-.73057-.5115-.2192z"/>
            <path d="m28.4292 12.8355c3.1415 13.9542 1.242 28.1276-1.4612 42.0088-2.557 12.9314-4.968 25.5706-5.5525 38.7942-1.242 27.6895-1.3881 55.4515-1.9726 83.1405-.073 2.046 2.1188 1.973 2.1918-.073.7306-28.2 1.0228-56.328 1.9726-84.5286.4384-13.8812 3.2876-27.251 5.6255-40.8399 2.1918-12.9314 3.4338-26.0089.0731-38.8673-.2922-.8036-1.0228-.2922-.8767.3653z"/>
            <path d="m126.547 5.45652c2.776 15.05008-3.287 30.31938-10.52 43.25078-.439.8768.438 2.3379 1.022 1.0959 6.503-14.3195 13.516-28.566 10.302-44.78503-.146-.80365-.877-.21918-.804.43835z"/>
            <path d="m55.3149 7.2831c-.8767 5.6986-1.8265 11.3972-3.5069 16.9496-1.4611 4.895-3.799 9.3516-5.7716 14.1004-1.8265 4.3835-2.411 8.4748-2.9224 13.0775-.5114 4.2374-4.0182 7.6712-3.5798 11.9817.1461 1.1689 1.3881 1.1689 1.315 0-.2922-2.9224 2.0457-5.1872 2.8493-7.7443.5845-1.7534.7306-3.6529.8767-5.4794.4384-5.1871 1.9726-9.6437 4.0913-14.3195 4.0913-9.2054 6.137-18.2647 7.379-28.27377.073-.58447-.6576-1.02282-.7306-.29223z"/>
            <path d="m111.132 3.77621c-2.338 5.11412-.804 10.37439-.366 15.70769.585 6.7214-3.214 12.3469-4.164 18.9222-.95 6.8675-.438 14.2465-3.945 20.5295-2.484 4.4566-6.2101 8.1826-6.5754 13.5159-.073 1.1689 1.3151 2.0456 1.3882.5845.4383-6.137 5.6982-10.3744 7.7442-15.9269 1.973-5.4063 1.826-11.251 2.484-16.9496.658-5.6255 3.726-10.5935 4.237-16.146.585-6.6483-3.068-13.2236-.365-19.72588.219-.43835-.219-1.09588-.438-.51141z"/>
            <path d="m12.8676 172.761c1.5343 3.361 3.9452 6.283 7.6712 6.503.5845.073 1.5342 0 2.3379.219.8767.219 1.315.657 2.2648.73.2192 0 3.1415-.73 2.8493-1.023-.2922-.365-.7306.95-.8767 1.169-.5845 1.242-.5845 2.85-.0731 4.092.5845 1.461 1.4612 1.169 2.3379 2.045 1.3881 1.462 1.169 5.114 4.8219 3.726-.3653-.146-.6575-.219-1.0228-.365 1.0228 1.827-.7306 5.041 2.6301 5.26-.2922-.876-.5114-1.753-.8036-2.63-1.7535 2.996-.8768 6.795 2.4109 8.256 1.3881.584 1.7534-2.63.5114-3.142-.4383-1.023-.9498-1.972-1.3881-2.995.4383-.804.3653-2.557-.8037-2.63.1462 0-.8767-3.872-1.1689-4.384-.2192-.365-.5845-.511-1.0228-.365-2.0457.804-1.6073-1.753-2.1187-2.557-.4384-.804-1.3151-.731-1.6804-1.169-1.6073-2.265 1.6073-4.53-.2922-6.721-.6575-.731-1.0959-.585-1.8265-.585-1.0228 0-1.0228 1.023-2.557.95-.9498 0-1.8265-1.023-2.7032-1.315-1.0959-.292-1.6073.219-2.6301.146-2.484-.146-4.4566-2.557-5.6256-4.676-.7306-1.315-1.6073.658-1.242 1.461z"/>
            <path d="m13.3059 170.57c-2.557 3.579-2.9223 7.671-2.7031 11.908.2922 6.137.7305 11.763-.4384 17.9-1.09587 5.99-2.92234 11.835-3.72599 17.899-.73059 5.479-.58447 11.032.07306 16.511 1.46117 12.932 4.09133 25.498 4.52963 38.502.4384 12.712-.073 25.425-.4383 38.137-.3653 14.246-.4384 28.493 1.242 42.666.1461 1.535 1.9726 1.023 1.8264-.438-2.6301-24.183-.2191-48.438-.4383-72.694-.1461-11.616-1.0959-23.159-2.9954-34.629-1.09591-6.284-2.1918-12.494-2.41097-18.85-.21918-6.064.80364-11.908 2.19177-17.826 1.3881-5.991 2.8493-12.055 2.8493-18.265 0-6.429-2.411-13.589 1.5342-19.36.4384-.731-.3653-2.557-1.0959-1.461z"/>
            <path d="m33.9086 197.163c-.8037 8.475-4.1644 16.73-3.726 25.351.2191 3.872 1.6073 7.233 2.7031 10.959 1.5343 4.968 1.242 10.301 1.3151 15.416.0731 6.502-1.3881 15.853 3.4338 21.187 1.9726 2.118 4.6757 3.141 7.525 3.579 2.2648.293 12.4931-1.168 12.5661 2.192.0731 1.9 1.8996 1.754 1.9726-.073.3653-7.306-8.6209-4.895-13.0775-5.041-4.968-.146-8.9132-2.338-10.0821-7.452-1.0228-4.383-.5845-9.278-.7306-13.735-.0731-3.945 0-7.89-.5114-11.835-.5845-4.311-2.7032-8.11-3.5799-12.347-1.9726-9.206 2.4109-18.703 3.2876-27.836.0731-.803-.9497-1.461-1.0958-.365z"/>
            <path d="m38.3651 201.254c3.5069 5.991 3.5069 12.785 4.6027 19.434 1.0229 6.137 3.5069 11.762 4.895 17.826 1.3881 6.21 1.0959 12.639 2.8493 18.776 1.6073 5.626 4.2374 11.032 7.1597 16.073.8037 1.388 1.8996-.803 1.4612-1.753-2.9954-6.21-6.2831-12.128-7.5981-18.995-1.169-6.137-1.169-12.347-3.0685-18.338-1.9726-6.356-4.0913-12.347-5.1141-18.996-.8036-5.26-1.6803-10.447-4.6027-15.05-.4384-.584-.8767.585-.5845 1.023z"/>
            <path d="m57.9449 274.971c.6575 3.652-3.3607 5.917-5.5525 7.817-1.7534 1.534-3.4337 3.141-4.8949 4.968-1.242 1.534-2.3379 3.141-3.1415 4.968-.9498 2.192-1.169 5.041-3.2146 6.502-2.8493 1.973-17.9725 5.626-10.7397 11.909 3.0685 2.703 8.0365 1.242 11.7625 1.68 3.0685.365 8.0365 2.265 10.0091-1.242 1.5342-2.776-.2192-7.452-.2923-10.228-.073-5.26-.2191-8.84-2.6301-13.589-.8036-1.607-2.1187.292-1.5342 1.461 1.1689 2.338 2.3379 4.676 2.557 7.306.1462 1.826-.073 3.726.0731 5.552.0731 1.608.5114 3.142.6575 4.676.2192 3.726-1.6803 4.384-4.6757 4.091-1.9726-.219-3.8722-.73-5.9178-.803-1.8265-.073-3.5799.219-5.4064.146-1.8264-.146-3.799-.219-3.726-2.411 0-1.753.9498-2.046 2.411-2.849 1.8265-1.096 3.726-1.827 5.6986-2.557 2.2648-.877 3.8721-1.754 4.8219-4.092 1.6072-3.945 2.7031-7.233 5.7716-10.447 3.5068-3.726 10.5935-7.087 9.0593-13.224-.4384-1.023-1.242-.438-1.0959.366z"/>
            <path d="m41.8719 311.646c-1.9726 1.607-3.9452 3.507-5.0411 5.845-.2191.511-.2922 1.023-.5114 1.534-1.4612 3.142-2.1917 3.215-4.8949 3.945-3.4338.877-10.0821 2.996-11.2511 6.868-1.0959 3.58 4.2374 4.602 6.5753 5.114 3.4338.657 6.21.146 9.4977 1.461 2.484 1.023 4.3835 1.68 6.9406.584 1.0228-.438.6575-2.995-.5115-2.484-3.9451 1.681-6.0638-1.68-9.7168-1.826-3.1415-.146-9.6438.731-11.6163-2.776.073.511.1461 1.023.1461 1.607.6575-2.484 4.8949-4.31 7.1597-5.187 2.0457-.804 4.4566-1.096 6.3562-2.338 1.315-.877 1.7534-1.753 2.3378-3.142 1.3151-3.287 2.6302-5.041 5.1142-7.598.5844-.511.2191-2.264-.5845-1.607z"/>
            <path d="m42.7487 335.829c3.2146-2.558 2.7762-6.503 2.4109-10.229-.2192-2.776-.5114-5.479-.7306-8.255-.1461-1.681 0-3.946-.8767-5.48-.3653-.584-.9497-.438-1.315 0 0 .073-.0731.073-.0731.146-.3653.512-.3653 1.681.2192 2.046 0 0 .073 0 .073.073.8037.511 1.169-.438 1.169-1.096 0-.073 0-.073 0-.146-.2923.438-.5845.877-.8037 1.315-.9497.073.3653 7.671.4384 8.256.5114 3.872 1.9726 8.913-.9498 12.201-.3653.365-.2192 1.607.4384 1.169z"/>
            <path d="m40.0454 335.317c-2.411.511-5.0411 1.023-6.7214 2.995-1.6073 1.827-1.169 5.553-3.3608 6.722-2.557 1.315-5.8447.877-8.4748 1.972-2.557 1.023-5.6986 6.357-8.5479 4.822-1.1689-.584-1.7534 2.484-.4383 2.777 2.3379.511 3.9452-.293 5.6255-2.046 2.7763-2.995 5.6255-3.434 9.4977-4.311 1.7534-.438 4.0182-.949 5.1141-2.484.5844-.876.5114-1.534.6575-2.484.8767-3.872 3.0685-4.748 6.6484-5.625 1.0228-.219.9497-2.484 0-2.338z"/>
            <path d="m30.4018 306.97c-5.9908-18.337-3.2876-37.698-4.6758-56.547-.6575-9.425-3.2146-18.703-3.4337-28.128-.2192-9.717 1.8995-19.214 5.6986-28.127.5114-1.169-.8767-3.069-1.6073-1.389-3.726 8.548-5.6256 17.681-5.6986 26.959-.0731 10.374 2.7762 20.457 3.6529 30.685 1.6073 19.214-.9497 38.794 5.1872 57.424.2922 1.096 1.0959-.146.8767-.877z"/>
            <path d="m15.2054 209.364c-.5844 2.265-1.4612 4.091-1.7534 6.429s-.4383 4.676-.5114 7.014c-.1461 4.968.2922 10.009.8036 14.977 1.0959 10.447 2.7032 20.894 3.9452 31.342.6575 5.698 1.3881 11.397 1.0959 17.169-.2192 5.406-1.7534 10.593-2.4109 15.927-1.0959 9.643 1.8264 19.506 3.2145 29.004.1462 1.169 1.3151.438 1.0959-.512-1.6803-10.155-4.2374-20.894-2.484-31.123.8037-4.456 1.8265-8.84 2.0457-13.369.2192-5.407-.3653-10.813-.9498-16.146-1.0959-9.79-2.484-19.58-3.6529-29.297-.6576-5.333-1.169-10.593-1.242-16-.0731-4.895-.1461-10.52.8036-15.415 0-.146.2192-.073 0 0z"/>
            <path d="m58.3103 53.6754c-4.2374 9.2054-4.3836 19.5067-5.4064 29.4427-1.1689 10.6666-2.7032 21.2599-4.8219 31.7809-4.3104 21.625-10.8857 42.666-19.1414 63.049-.5114 1.169.8767 3.069 1.6073 1.389 8.1826-19.726 14.3195-40.256 18.63-61.078 2.1187-10.52 3.7991-21.1136 4.968-31.7802 1.169-10.6666.7306-21.9177 5.1872-31.9998.1461-.7306-.5845-1.7534-1.0228-.8036z"/>
            <path d="m62.4744 82.1684c2.7032-6.2101 2.0457-12.8584 2.7032-19.4337.7306-7.5251 2.7762-14.8309 4.3835-22.1368 2.5571-11.3972 5.1872-26.082-.8036-36.89474-.5845-1.02282-1.3881.43836-1.169 1.09589 1.8265 6.06385 3.1416 11.68945 2.8493 18.11855-.2191 6.6484-1.6803 13.2237-3.0684 19.7259-1.3151 6.2831-2.7032 12.5661-3.1416 18.9953-.5114 6.7214.0731 13.589-2.3378 20.0181-.0731.4384.3652 1.0229.5844.5115z"/>
            <path d="m146.419 7.72135c-2.557 31.99975-6.356 65.38765-23.233 93.44265-3.872 6.429-8.401 12.42-13.589 17.899-5.041 5.26-10.4469 10.155-14.9766 15.854-9.1323 11.616-13.0045 26.009-19.7989 38.867-3.5799 6.721-8.0365 13.224-14.0273 18.046-6.0639 4.895-16.2191 9.716-23.598 4.895-1.4612-.95-2.1187 2.118-1.0228 2.849 11.6163 7.598 26.2281-3.945 33.1687-12.785 9.4976-12.055 13.3697-27.105 20.6026-40.329 7.8903-14.393 21.7713-23.89 30.9773-37.333 8.694-12.6392 14.757-27.0318 18.63-41.7896 5.114-19.3606 6.94-39.3788 8.109-59.25075.146-1.16894-1.169-1.53424-1.242-.3653z"/>
            <path d="m120.629 10.4976c-2.557 6.7945-4.383 13.8812-5.406 21.114-1.096 7.5981-.877 15.1962-1.023 22.8674-.292 15.9999-6.21 31.1961-10.886 46.319-2.045 6.722-4.3102 13.37-7.8901 19.434-3.2876 5.552-8.1095 9.79-11.5433 15.196-2.7031 4.311-5.6255 8.694-7.3789 13.516-2.1187 5.918-4.4566 11.616-7.9634 16.877-3.726 5.552-8.2557 10.52-13.5159 14.758-2.9223 2.337-6.0639 4.456-9.2785 6.429-2.8493 1.68-6.9406 4.749-10.3743 4.31-1.242-.146-1.242 2.703.073 2.849 2.9224.366 5.5525-1.534 8.0365-2.922 2.5571-1.461 5.0411-2.995 7.5251-4.676 5.041-3.506 9.7168-7.598 13.735-12.2 3.8722-4.457 7.0867-9.425 9.6438-14.831 2.6301-5.48 4.0913-11.251 7.1598-16.512 1.315-2.265 2.7762-4.602 4.1643-6.794 1.9726-3.069 4.6027-5.553 6.8675-8.402 4.1644-5.114 7.0868-11.105 9.3514-17.315 2.484-6.794 4.311-13.7349 6.502-20.6025 2.411-7.525 4.822-15.0501 6.064-22.8674 1.461-8.9131.512-17.6071.877-26.5934.365-10.0821 2.484-20.0181 5.845-29.5158.219-.3652-.366-1.16889-.585-.4383z"/>
        </g>
    </g>
</svg>
