<svg fill="none" height="50" viewBox="0 0 118 50" width="118" xmlns="http://www.w3.org/2000/svg">
    <g fill="#000">
        <path d="m117.439 26c-37.3207 0-74.6411 0-111.96145 0-.67632 0-.61483-3 .06148-3h111.96097c.677 0 .677 3-.061 3z"/>
        <path d="m38.4779 2.42589c-6.9 2-12.9 7.1-18.9 11.00001-6.1 4-12.29997 8-18.39997 12 0-.8-.1-1.5-.1-2.3 14.89997 6.9 29.29997 14.7 43.19997 23.4.9.6.5 3-.5 2.4-13.9-8.7-28.3-16.5-43.199973-23.4-.700001-.3-.799992-1.8-.099991-2.3 6.700004-4.4 13.399964-8.7 20.099964-13.1 5.5-3.60001 11.1-8.10001 17.5-10.1000092 1.2-.2999998 1.4 2.0999992.4 2.3999992z"/>
    </g>
</svg>
