<svg fill="none" height="56" viewBox="0 0 65 56" width="65" xmlns="http://www.w3.org/2000/svg">
    <g fill="#da368b" fill-opacity=".9">
        <path d="m12.3 40.2057c9.9-6.9 7-19.9 8-30.1.1-.59996.1-1.09996.2-1.69996-.1-1.7 1-1.7 3.2.2.4.6.1 1.99996.3 2.69996.4 1.2.9 2.3 2.1 3 2.1 1.1 5.9.2 8.1 0 1.5-.1 3.1 0 4.5-.7 1.4-.8 2-1.9 2.4-3.4.3-1.09996-.9-1.09996.4-2.19996l3.3.3c.1.9.2 1.69996.3 2.59996.3 3.2 0 6.4-.1 9.7-.2 6.6-.2 16.2 6.1 20.4 1.3.9 1.1-2.7.1-3.3-2.6-1.7-4.2-8.6-4.6-11.6-.4-2.8-.1-5.6.1-8.4.2-2.5.4-5.1.3-7.6 0-1.49996.4-3.69996-1.1-4.39996-1.2-.6-4.4.5-5.3 1-2.1 1.3-1.2 3.49996-2.3 4.79996-1.2 1.3-7.7 1.4-9.5 1.1-3.5-.7-2.8-5.29996-3.8-7.99996 0-.1-.4-.1-.4-.1-1.7.3-4.1.6-5.4 2.1-1.7 2.1-1.3 7.39996-1.4 9.89996-.1 8.1.9 17.2-5.9 23.2-.1.1.3.6.4.5z"/>
        <path d="m35.7 26.6058c.5-1 .2-2.5-.4-3.4-.7-1.1-2.2-1.5-3.5-1.5-2.2-.1-4.1 2-4.6 4-.7 2.8 2 5.6 4.8 5.4 2.7-.2 4.1-3.2 4.3-5.5.1-.9-2 .6-1.9 1.5.1 3.6-5.8 1.3-5.3-1.8.1-.7.4-1.7 1-2.2 1-.1 2-.2 3-.2.3.2.6.4.8.7.6.8.7 1.8 1.2 2.6 0 .1.5.6.6.4z"/>
        <path d="m24 28.4058c1.5 5.9 7.1 7.3 12.3 4.8 4.6-2.2 6.4-6.4 3.9-11-2.8-5.1-8.1-7.6-13.5-4.5-4.4 2.6-5 7.1-3.5 11.6.2.7 2.3-.8 2-1.6-2.5-5.4 1.5-9.8 6.7-9.1 2.6.4 4.2 1.9 5.6 4 .7 1.1 1.6 2.5 1.9 3.8 1.1 4.8-5.8 7.6-9.5 6.6-2.4-.6-4.2-2.1-5.4-4.3 0 0-.5-.5-.5-.3z"/>
        <path d="m9.50003 48.5057c.59997-.1 1.09997-.2 1.69997-.3.1 0 .1 0 .1-.1-.1-3.3-.8-6.1 2.2-8.2 2.8-1.9 8-1.2 11.4-1.2h8.7c3.8.1 7.5.1 11.3.3 2.5.1 5.4.1 6.8 2.5 1.5 2.4 1 5.5.8 8.2 0 .2.2.2.3.2 1.7.3 2.5 1.2 2.2 2.6-.8 1-1.7 1.4-2.8 1.2-1.5.2-3.2 0-4.7 0-3.7.2-7.3.1-11 0-4.4-.1-8.7-.1-13.1-.3-1.9-.1-3.9-.3-5.8-.4-.5 0-11.99997-.3-8.69997-3.8.6-.7 1.09997-3.2-.3-1.8-2.1 2.1-2.4 6.1.6 7.8 1.19997.7 3.79997.2 5.19997.2 2.5 0 5-.1 7.5-.2 4.4-.1 8.8.1 13.2.2s8.8-.1 13.2-.2c2.1 0 5 .6 6.9-.5.9-.5 1.4-1.2 1.7-2.2.2-.8.3-2.4-.1-3.1-.2-.4-1.3-1-1.4-1.1 0-.1-.7-.6-.8-.9-.5-.9.2-3.3-.1-4.6-.6-2.4-1.8-3.9-4.2-4.5-4.2-1.1-9.4-.3-13.7-.2-6.5 0-13.2-.3-19.6.2-2.2.2-5.4.5-6.7 2.5-1.49997 2.3 1 5.8-1.89997 7.2 0 0 .9.6 1.1.5z"/>
        <path d="m17.7 19.5058c-1.8 1.5-4.2 2.3-6.4 3-1.69998.5-3.59998 1.2-5.29998 1.3-1 .3-1.9.2-2.9-.2-.9-1.3-1-2.7-.1-4.2.3-.1.9-.4.9-.8-.1-2-.3-4.3 0-6.3.8-5.00001 6.49998-7.30001 10.69998-8.70001 6.8-2.1 13.4-3.200004 20.6-2.5 4.3.4 8.9 1.1 13.1 2.3 3.3 1 6.2 2.2 9.1 4.2 3.8 2.70001 4.7 7.00001 5 11.50001 0 .1.4.5.4.5.1-3.9 1.1-7.7-1.8-10.60001-2.7-2.6-6.1-4.5-9.7-5.7-6.7-2.2-14.3-3.4000036-21.4-3.30000359-6.9.09999959-14.3 1.80000359-20.39998 4.90000359-2 1-4.1 2.3-5.6 4-2.6 3.10001-2.1 6.70001-2 10.60001.3-.3.6-.5.9-.8-1.4.6-2.300005.7-2.600005 2.2-.6 2.4 1.100005 4.1 3.100005 4.2 2.5.1 5.9-1.2 8.19998-1.9 2.3-.7 5.7-1.4 7.6-3.1 0-.2-1.1-.8-1.4-.6z"/>
        <path d="m17.2 15.1057c-.2-.8-.3-1.9-.2-2.7.2-1 1.2-1.5 2-1.9.2-.1-.8-.69997-1.1-.59997-.9.39997-2 .89997-2.4 1.99997-.3.9 0 2 .4 2.8.2.2 1.4.7 1.3.4z"/>
        <path d="m26 9.8058c2-.2 4-.4 6-.5 1.8 0 4.9-.5 6.6.4.6.3 2.4-.7 1.2-.7-4.8-.1-9.5-.6-14.3.1-.2.1.3.7.5.7z"/>
        <path d="m46.5 10.5058c.8.5 1.7 1.2 1.7 2.2 0 .4-.1.8-.2 1.2-.1.3-.1.5-.2.8 0 .1-.3.5-.1.3-.2.2-.7.8-.3 1s1.2-.5 1.4-.7c.8-.7 1.3-1.6 1.2-2.6-.2-1.5-1.8-1.9-3-2.4-.3-.1-1.1-.2-.5.2z"/>
        <path d="m46.4 20.9058c2.4 1.6 6 2 8.7 2.5 2 .3 4.7 1.6 6.8 1.3.6-.1.8-.1 1.2-.5s1.4-2.7 1.3-3.4c-.1-1.1-1.2-1.4-2.1-1.8-4.2-1.7-9.6-3.9-14.1-3.9-.4 0-2.3.9-1.2 1 3.9.4 7.9 1.6 11.6 2.7 1.1.3 3.8.8 3.9 2.2.1.7-.9 2.7-1.4 3.4.4-.1.9-.2 1.3-.3-2.4-.1-5.3-1-7.6-1.5-2.7-.5-6.3-.8-8.7-2.2-.3-.3.1.3.3.5z"/>
        <path d="m3.70002 19.3058c3-.6 12.79998-5.4 13.89998-1.7.2.7 2.2-.8 2-1.5-.5-1.4-2.4-1.5-3.7-1.3-4.5.7-8.69998 3.2-13.19998 4-.9.1.6.6 1 .5z"/>
        <path d="m9.6 48.5057c6.6-.8 13.7.2 20.4.5 3.5.1 7 .3 10.5.4 2.7.1 10.8-1.1 12.5.4.4.4 1.9.1 1.3-.2-5.5-2.2-12.4-1.5-18.2-1.6-9.2-.1-18.4-.5-27.5-.1-.4 0 .6.6 1 .6z"/>
    </g>
</svg>
