<svg fill="none" height="39" viewBox="0 0 31 39" width="31" xmlns="http://www.w3.org/2000/svg">
    <path d="m.152747 16.6586c3.860003 7.17 7.710003 14.34 11.569953 21.5.66 1.2299 1.2-1.6101 1.17-1.9301-.49-5.3299 5.34-13.1599 7.89-17.7299 2.91-5.2 6.04-10.28005 9.31-15.26005.53-.81.02-4.109999-.69-3.019999-4.23 6.419999-8.19 13.009949-11.82 19.790049-2.81 5.26-6.75 10.9199-6.18 17.1099.39-.64.78-1.29 1.17-1.93-3.86995-7.18-7.71995-14.3399-11.579953-21.5099-.6-1.11-1.31 2.11-.84 2.98z"
          fill="#da368b" fill-opacity=".8"/>
</svg>
