<svg fill="none" height="49" viewBox="0 0 52 49" width="52" xmlns="http://www.w3.org/2000/svg">
    <g fill="#da368b">
        <path d="m16.1504 17.9767c1.244-.6052 2.7569-.4035 4.0681-.3026 1.244.0672 2.5216.0672 3.7655.0672h8.9768c5.85 0 11.7-.0336 17.55-.0336.3362 0 .2353-1.2104-.1681-1.2104-6.2535.0337-12.5069.0337-18.7268.0673-3.0594 0-6.1189 0-9.1448.0336-1.1095 0-2.3198-.0672-3.4293.0336-1.0759.1345-2.0509.6724-3.0259 1.1431-.437.1681-.1681.3362.1345.2018z"/>
        <path d="m23.5807 16.8c0 6.287.6724 12.4732 1.9836 18.6258.1345.5716.5716-.3698.5043-.6724-1.3112-6.1189-1.8827-12.2379-1.8155-18.525 0-.1345-.6724.3026-.6724.5716z"/>
        <path d="m32.9608 18.7164c.2689 5.3793.1681 10.725-.3698 16.0707-.0337.5043.5715-.2354.5715-.4707.5379-5.3457.706-10.6578.4707-16.0035 0-.2353-.6724.1345-.6724.4035z"/>
        <path d="m42.0384 17.0017c-.4707 3.2948-.8405 6.6233-1.1767 9.9181-.269 2.7569-.269 5.6147-.706 8.338-.0337.1345.706-.0673.706-.3362-.1009-6.0181 1.0759-12.0699 1.8155-18.0207.0336-.2018-.6052-.0673-.6388.1008z"/>
        <path d="m17.6298 24.3311c4.9422-.2018 9.9181-.2354 14.8603-.4371 2.4207-.1009 4.875-.2017 7.2957-.3026 2.5552-.1345 5.4802.1009 7.9681-.5379.1009-.0337.6724-.538.4371-.5716-2.5888-.3362-5.4129.1345-8.0353.2354-2.5216.1344-5.0431.2689-7.5647.4034-5.0767.269-10.1535.7397-15.2302 1.0086-.3362.0673.1345.2354.269.2018z"/>
        <path d="m19.8487 30.2147c4.4043 1.0758 9.0103 1.2776 13.5491 1.2776s9.1449-.1681 13.6164-.975c.3698-.0673.4035-1.1768.1009-1.1431-4.6061.5379-9.1449 1.0758-13.7845 1.1431-4.438.0672-8.8759-.1681-13.3138-.4371-.1345-.0336-.4707.0672-.1681.1345z"/>
        <path d="m23.11 42.6543c-.8069-.7061-1.5466-1.7483-2.7569-1.1095-.7397.3698-1.1095 1.2103-1.244 1.9836-.4371 2.2526.5043 5.7828 3.5302 4.5052 1.9836-.8406 2.6896-3.3957 1.5465-5.1776-.6388-1.0086-1.7819-1.5802-2.9586-1.3112-1.2776.3026-1.681 1.1767-1.9836 2.3534-.1681.6388.5043-.0336.5715-.3698-.0672.4371.1681-.1009.3026-.2354.2017-.2017.4707-.3698.7397-.4706.6051-.269 1.3448-.269 1.95.0336 1.681.8069 1.8491 3.0258.2017 4.0008-1.5466.9078-3.0931.0673-3.3621-1.6474-.1008-.6388-.1681-1.681.1009-2.3198.5043-1.1767 2.1853-.7733 2.925-.2017.0336.1008.5715.1008.4371-.0336z"/>
        <path d="m42.8453 43.5957c.0673-.6051-.2689-1.0086-.9077-.8741-.7061.1345-1.244.8069-1.5802 1.4121-.4707.8405-.9414 2.4207-.3362 3.3284.6388.9078 2.2862.975 3.2276.6388 2.1517-.7396 2.7233-3.8664 1.1095-5.4129-.8069-.7733-2.0509-1.0423-3.0595-.4707-1.1431.6052-1.4793 1.8155-1.4793 3.0258 0 .7397.5043.3026.5043-.2017 0-1.0086 1.2103-1.8491 2.1181-1.9164 1.1767-.0672 2.5888.9414 2.2862 2.2526-.269 1.2104-1.6138 1.8828-2.7569 1.8155-.4371-.0336-.975-.1681-1.2776-.4706-.3362-.3026-.3362-.7061-.3026-1.1431 0-.1009.0336-.2018.0336-.3026.1345-1.1768.9414-1.7483 2.4207-1.7147-.0336 0 0 .0673 0 .0336z"/>
        <path d="m22.4711 44.6043c-.1681-.5043-.437-.9413-1.0422-.975-.5379-.0336-1.1431.3363-1.4121.8069-.3026.5044-.1681 1.1432.2354 1.5466.4707.4371 1.1094.3362 1.5801 0 .5716-.4034.9414-1.0759.9414-1.7819 0-.6388-.3362-1.5466-1.1095-1.1095-.5715.3026-1.1094 1.0759-1.1767 1.7147-.0672.7733.8741.7733 1.3785.5043.4706-.269 1.0758-1.1431.6051-1.6474-.5379-.5716-1.2439.5043-1.2439.975 0 .1345.706-.2354.6724-.538.0336.1345.0336.1345 0 0-.2354.1009-.269.2018-.1009.2018.0336.0672.269.1344.2354.2689-.1345.269-1.0087.0673-.8069-.4707.0672-.1681.3026-.4034.5043-.3698.2017 0 .3026.2017.3698.3698.2017.4707.2017 1.2776-.4034 1.4457-.5716.1681-1.0759-.4034-1.1095-.9414-.0336-.3362.1008-.5043.437-.5043.3362-.0336.8406.0673 1.0087.4371 0 .1345.4707.1681.437.0672z"/>
        <path d="m43.0806 44.4698c.0336-.5716-.6388-.7061-1.0758-.6052-.7397.1681-.8742.9078-.8742 1.5802 0 .3362.0336.706.3362.9077.3026.2354.7733.2354 1.1431.2018.7397-.0673 1.513-.4035 1.8492-1.0759.3026-.6052.1681-1.3785-.5043-1.6474-.5716-.2354-1.244.0336-1.6138.5043-.3362.4034-.7061 1.4121-.1681 1.7819.5379.3362 1.2775-.1681 1.6138-.6052.3362-.4707.5043-1.5465-.3363-1.5802-.8741-.0336-1.3784.7733-1.4793 1.513-.0336.1345.3026.0336.3362.0336.0337 0 .0673-.0336.0673-.0336-.1009 0-.2017.0336-.3026.0336.0336 0 .2353.0672.1681.1345-.1345.1681.5043.1008.6052-.0673.2689-.4034-.2018-.6051-.538-.437.1009 0 .2018 0 .3362.0336.0337-.2354.0337-.6388.3026-.6724.2354-.0336.3362.1008.4035.3026.0672.2689 0 .9413-.3362.975-.5716.1008-.4035-.8069-.3026-1.0759.0672-.2353.1345-.4371.4034-.4371.2018 0 .4035.1345.538.269.2689.269.3362.6724.2017 1.0422-.269.7061-1.6138 1.0759-1.95.3026-.1345-.2689-.1009-.6724-.0673-.975 0-.2017.0337-.3698.1345-.5715.1681-.3026.5716-.3026.6052.0672-.0336.1681.5043.2354.5043.1009z"/>
        <path d="m28.2202 15.8922c-.9414-1.3448-1.8828-2.7569-2.0509-4.4379-.1008-.9078-.0336-2.05088.4707-2.82416.7061-1.07586 2.219-1.04224 3.3285-1.07586 2.1853-.06724 4.5724.33621 5.9508 2.18535 1.513 2.01727 1.0423 4.16897-.1681 6.18617-.3362.5716 0 2.7569.6388 1.6811 1.2776-2.1854 1.95-4.8414 1.3785-7.363-.3026-1.44565-1.1095-2.89134-2.3871-3.66462-1.5465-.94138-3.4293-.60517-5.1103-.40345-2.2862.26897-4.1354 1.10949-5.0768 3.32845-1.0758 2.55522-.1008 4.80772 2.0173 6.38792.1681.1345 1.1767.2017 1.0086 0z"/>
        <path d="m36.6254 7.08359c1.0423-1.41207 2.1181-2.72328 3.2612-4.03449-.2017 0-.437.03363-.6388.03363.2018 3.16034 2.9587 5.00948 4.0681 7.83367.4371 1.0758.7061 2.2525 1.4121 3.2275.8405 1.1768 2.219 1.7819 2.9923 3.0259.3026.4707.6051-.1681.706-.4371.2017-.4707.0672-1.1767-.2017-1.6138-.538-.9077-1.3449-1.4456-2.1181-2.1517-1.1095-1.0086-1.4121-2.2862-1.9164-3.63102-.9414-2.65604-3.7319-4.60604-3.7655-7.56466 0-.60518-.7061.10086-.8069.23534-1.3449 1.74828-2.6897 3.46294-4.2026 5.11035-.269.30259 1.0086.23535 1.2103-.03362z"/>
        <path d="m28.7246 5.50341c.0673-1.31121.0673-2.65604-.1008-3.93362-.1009-.739658-.269-1.243969-1.0423-1.4793139-.9414-.2689661-2.0172.1344829-2.925.2689659-1.6474.235345-3.3284.302586-4.9758.235345-.6388-.033621-.8742 1.143103-.8742 1.613793.2354 4.90863.3026 9.98532-.2689 14.89402-.1009.975 1.1431-.4371 1.1431-1.0423.0336-5.0431.4034-10.01896.2017-15.062065-.3026.537935-.5716 1.075865-.8742 1.613795 2.0173.10086 3.9-.10086 5.8837-.60517.975-.23535 2.1181-.67242 2.3534.63879.1681 1.00862.0673 1.98362.269 2.99224 0 .26897 1.1767.16811 1.2103-.13448z"/>
        <path d="m.785784 8.56294c.504306.23535 2.588796 0 3.496556.03362.80689.03362 1.58017.06725 2.38707.16811 1.27758.13448 2.25259.20172 2.95862 1.44573.47067.8069.70607 1.8491.97497 2.7232 1.1431 3.3957 2.1854 6.825 3.2612 10.2207.7733 2.5216 1.5466 5.0431 2.3199 7.5647.7396 2.4207 1.2439 5.2784 2.656 7.4302 1.0086 1.5465 2.4879 1.9164 4.2698 2.0172 2.2526.1345 4.5052.1009 6.7578.0673 5.4802-.1009 10.9603-.4707 16.4741-.5044.8742 0-.1681-1.0422-.6724-1.0422-4.7741.0336-9.5146.3362-14.2888.4707-2.3198.0672-4.6732.1009-6.9931.0336-1.3448-.0336-2.5215.0336-3.6983-.706-1.681-1.0759-1.9836-3.2612-2.5551-5.1104-2.3199-7.3965-4.6733-14.7595-7.3966-21.9879-.3698-1.0086-.706-2.62243-1.61378-3.26123-.90776-.67241-2.62242-.57155-3.66466-.57155-1.84914 0-3.59741.47069-5.3793112.87414-.1681036.03362-.0336207.13448.0672412.13448.235345.06724.47069.10087.739656.16811-.033621 0-.067241-.16811-.100862-.16811z"/>
        <path d="m15.5117 17.2034c.706 2.9923 1.4793 5.9509 2.1517 8.9431.4371 1.95.975 3.9 2.0845 5.5811 2.4879 3.8327 6.7241 3.5974 10.8259 3.4629 3.0258-.1008 6.0181-.2353 9.0439-.3362 1.9164-.0672 5.2112.5379 6.6233-1.0759.6052-.706.8405-1.7146 1.1095-2.5887.4707-1.4794.9077-2.925 1.3448-4.4044.8742-2.8913 1.8828-5.8163 2.4543-8.775.1009-.4707-1.0422-1.3448-1.2103-.8069-.8405 2.4207-1.4457 4.9087-2.1517 7.363-.7061 2.4207-1.244 5.0431-2.2526 7.3629-1.0087 2.2862-4.0009 1.7483-6.119 1.8155-2.5216.0673-5.0095.1345-7.531.2018-4.6397.1344-9.9181 1.0086-12.3052-3.9337-1.9836-4.0345-2.3535-8.9767-3.3621-13.3138-.1009-.2017-.7733.269-.706.5043z"/>
        <path d="m22.135 43.4948c-.8742-.1681-1.5802.5043-1.7147 1.3112-.1681.9414.6052 2.4543 1.7147 2.3535.9413-.1009 1.7819-1.2104 1.8155-2.0845.0336-.5043.0336-1.3112-.269-1.7483-.5043-.6724-1.4121-.2017-1.9836.0336-.0673.0337-.2354.1345-.1009.1681.5043.1681 1.244 0 1.513.5716.2689.5379.2689 1.7819-.1681 2.1517-1.4121 1.1431-3.0259-2.8914-.7733-2.6224.3026.0672.1681-.1009-.0336-.1345z"/>
    </g>
</svg>
