<svg fill="none" height="57" viewBox="0 0 28 57" width="28" xmlns="http://www.w3.org/2000/svg">
    <g fill="#da368b">
        <path d="m6.60047 33.5568c-1.2-.94-1.82.57-1.91 1.54-.14 1.52.38 3.64 1.46 4.77-.37-.42-.5-.28-.39.43-.62 3.54-2.25 6.38-4.889999 8.5-1 .84-1.48 2.56.429999 1.68 2.52-1.16 4.83-3.1 6.14-5.6 1.88-3.58 2.74003-8.54-.84-11.32z"/>
        <path d="m11.4805 12.3669c-.04-.08-.1-.16-.14-.24-.16-.54-.42-1.01-.84-1.37-.5-.43-1.10995-.61-1.71995-.57-.35-.1-.7-.16-1.04-.16-1.89.05-2.92 1.42-3.33 3.14-.56 1.06-.86 2.3-.96 3.34-.17 1.78.12 3.82 1.83 4.74 1.01.55 2.07.43 2.97-.14.08 0 .15.02.23.01.56-.08 1.01-.65 1.35-1.31.59995-.57.90995-1.4 1.08995-2.2.04-.17.07-.35.1-.52.81-1.44 1.21-3.23.46-4.72z"/>
        <path d="m25.2508 14.0269c-.98-3.83-2.56-10.70997-6.04-12.96997-.69-.449999-4.3.53-3.88 1.6 2.7 6.74 6.6 12.75997 8.04 20.00997 1.9 9.57-.6 18.86-6.71 26.4-1.68 2.07.89 9 2.6 6.41 5.31-8.01 7.76-17.71 7.79-27.28.01-4.78-.62-9.55-1.8-14.17z"/>
    </g>
</svg>
