<svg fill="none" height="99" viewBox="0 0 146 99" width="146" xmlns="http://www.w3.org/2000/svg">
    <g fill="#da368b">
        <path d="m87.687 41.1136c-1.3657.8324-2.9293 1.1006-4.3592 1.8127-1.5105.7551-2.1852 2.3003-3.5509 3.1327-.2415.1289-3.771.8803-4.087.4823-.1473-.179 4.2581-5.0045 4.6392-5.2595 1.382-.9956 3.1921-1.1894 4.5073-2.407 1.436-1.282 2.419-2.7343 4.1281-3.6984 1.4676-.8353 2.6724-1.5817 3.6981-2.9538 1.3024-1.7259 2.1835-3.1753 4.1529-4.33 1.4274-.8137 2.7794-1.3812 4.0355-2.5157.757-.7133 1.431-1.4853 2.314-2.0598.823-.4914 1.757-.6807 2.58-1.172 1.165-.7249 2.3-1.7949 3.296-2.7389 3.35-3.0252 6.804-5.9517 10.132-9.0171 3.049-2.81319 6.053-5.80827 9.437-8.28508.341-.23351.104-1.549412-.237-1.315906-3.285 2.372256-6.251 5.244176-9.324 7.915656-3.672 3.19713-7.156 6.55183-10.701 9.88783-.478.4612-.956.9225-1.412 1.4238-1.294 1.2576-2.893 1.7507-4.294 2.8079-1.701 1.2692-3.03 2.7516-4.9215 3.7617-1.2073.6447-2.3341 1.2464-3.2657 2.3107-.5155.5843-.9265 1.2675-1.3992 1.9321-1.0232 1.4737-2.043 2.2759-3.5911 3.1542-1.8701 1.0501-2.8847 2.0556-4.3344 3.6026-1.4685 1.6085-3.6648 1.854-5.302 3.2434-1.4976 1.2634-3.2503 2.9207-4.33 4.5792-.3143.477-.7441 1.2217-.4847 1.8044.4119.9651 1.5414.465 2.3779.4819 1.9361-.0549 2.5586-.4389 3.8686-1.8598 1.7879-1.8821 4.4132-2.099 6.3056-3.8824.1421-.0243.4837-1.0311.1215-.8377z"/>
        <path d="m87.9088 41.8196c.6353.1244.9376.7873 1.4951 1.0564.5574.269 1.1234.0698 1.4779-.4286.1182-.1661.1935-.4125-.0882-.262-.0805.043-.1207.0644-.2012.1074-.0403.0215-.0805.043-.0994.1046-.059.0831-.0804.043 0 0 .0591-.0831.0591-.0831-.1233-.0372-.0402.0215-.0616-.0186-.1019.0029-.0616-.0186-.1233-.0372-.2466-.0744-.5977-.2476-.8999-.9105-1.5755-1.0134-.1662-.1174-.7005.5286-.5369.5443z"/>
        <path d="m93.0601 36.6474c-.465.9695-.4016 1.8631-.5797 2.8855-.2859 1.5953-1.1559 2.6781-2.144 3.9271-.9479 1.2274-1.6466 2.6309-2.0986 4.1088-.2612.9638-.59 2.4789.1867 3.3522 1.0498 1.1911 2.6921.005 3.4653-.8716.6337-.7505 1.0181-1.6771 1.4856-2.545.7013-1.3019 1.5789-2.0797 2.6338-3.1067 1.1543-1.1316 1.7725-2.4921 3.366-3.1885.7458-.3467 1.5558-.5732 2.2798-.96 3.928-1.9429 4.752-4.8557 5.241-8.8782.054-.2864-.686.2636-.679.5686.061 3.2133-1.263 5.6724-4.04 7.1553-1.207.6447-2.7094.9315-3.8525 1.6965-1.1833.7865-1.9437 2.1714-3.0012 3.0967-.7783.6733-1.3528 1.3407-1.8794 2.2917-.7629 1.2833-1.4059 3.2753-2.9215 3.827-1.1885.5832-1.5713-.0368-1.1055-1.7796-.5455-1.4089-.3109-2.6161.7012-3.7233.5103-.7877 1.2081-1.418 1.7801-2.1871 1.4822-1.8734.8408-3.8493 1.8298-5.8715.059-.0831-.5712-.0042-.6679.2021z"/>
        <path d="m91.1414 50.2945c.3211.6013.2561 1.2543.5369 1.8772.2167.5025.5917.8174.9077 1.2154.715.8547.9206 1.7239 1.3538 2.729.3905.9249 1.0901 1.1696 1.8042.3761 1.3478-1.5441 1.0822-6.3998-1.2126-6.823-.1233-.0372-.7484.2451-.5823.3625 1.1843.8617 1.4917 1.7279 1.7315 3.1455.0719.4253.1653.8906.1567 1.3589-.0385.8964-.6833 2.0135-1.2236.8079-.3665-.7831-.4461-1.5134-.9736-2.2106-.2946-.3579-.6482-.6328-.9428-.9907-.4632-.5769-.6636-1.2427-1.1055-1.7796-.1233-.0372-.4718-.1087-.4504-.0686z"/>
        <path d="m95.6942 50.4908c.0976-.9794-.2877-1.701-.4127-2.6132-.1011-.7703.023-1.5064-.2202-2.2524-.0239-.1417-.7697.205-.7218.4885.2244.8076-.0205 1.6081.2227 2.3541.2218.7059.5617 1.2456.5823 2.059.0214.0401.5121.0872.5497-.036z"/>
        <path d="m95.8331 55.9809c1.2947.3905 2.2614-.8985 2.4986-2.004.1643-.7576.0419-1.5681-.2818-2.2711-.2167-.5025-.8349-1.5634-1.4463-1.5461-.1635-.0157-.8237.4914-.6148.689.6054.5526 1.2082 1.0034 1.5345 1.8081.3477.8448.4847 3.0385-1.054 2.6752-.2252-.0343-.8212.5931-.6362.6489z"/>
        <path d="m97.662 50.8826c-.1362-.5455.0547-1.0597.0821-1.5895-.018-.7117-.3716-.9865-.2072-1.7441.2371-1.1055.5976-2.1739.446-3.3294-.0214-.0401-.0428-.0802-.083-.0587-.1422.0244-.2655-.0128-.4076.0116-.0403.0215-.2038.0058-.1824.0459.0206.8133.0009 1.6481-.1207 2.4859-.1267.6344-.4572 1.2745-.482 1.9061-.0651.6529.2543.3793.3554 1.1497.0719.4253-.0625.7547.0925 1.2386-.0189.0616.5308.0257.5069-.1161z"/>
        <path d="m96.8646 44.3529c.2141.4009.6619.3679 1.0267.2761.6705-.1004 1.3195-.2409 1.9446-.5232.0805-.043.5611-.4025.2951-.4154-.4287-.0285-.8928.1678-1.2978.2811-.3648.0917-1.0087.4356-1.2844.0161-.0857-.1604-.7698.205-.6842.3653z"/>
        <path d="m98.65 44.7908c.0009 1.6482.1439 3.272 1.0165 4.7123.4895.8203 1.9115 2.9979 3.0725 2.9446.713-.0202 1.202-.848 1.35-1.4423.447-1.6813-1.504-2.2363-2.267-3.3745-.086-.1604-.781.5716-.591.8307.444.6385 1.058.7228 1.621 1.1952.688.6113.786 2.0532-.455 1.3763-2.152-1.2209-2.9044-4.3739-3.02-6.5275-.024-.1417-.7321.0818-.727.2852z"/>
        <path d="m102.669 48.0544c.011-.3666-.142-.7488-.393-1.0266-.105-.0988-.209-.1975-.292-.2562-.228-.136-.389-.05-.612.0173-.04.0215-.365.0918-.3.2121.149.2806.477.312.667.5711.168.2191.257.4811.283.7245-.019.0616.652-.0388.647-.2422z"/>
        <path d="m101.882 46.7745c.15-.4926.301-.9853.39-1.4965.073-.348.28-1.0254.068-1.3246-.042-.0802-.244.0273-.284.0488-.201.1074-.3.212-.48.3595-.18.1476-.016.1633.126.1389s.424-.1748.501-.3195c.019-.0616.019-.0616.038-.1231-.22.169-.461.2979-.681.467.206.0959-.055 1.0596-.112 1.2444-.11.4711-.242.9022-.374 1.3332-.038.1232.306-.0086.306-.0086.284-.0488.464-.1964.502-.3195z"/>
        <path d="m101.659 44.4204c1.218-.238 2.231-.4703 3.085-1.3899.416-.4798.532-.7476.803-1.3047.543-1.1142 1.056-1.8003 1.993-2.6612.918-.7992 1.165-1.4981 1.729-2.5722.683-1.2403 2.175-2.7071.715-3.9883-.166-.1173-.689.1621-.627.1806 1.637 1.032-.285 3.2435-.911 4.2991-.785 1.2431-1.705 1.9407-2.639 2.9033-.199.2091-.376.4583-.554.7075-.177.2492-.107.5728-.244.8006-.798 1.508-1.66 2.1226-3.256 2.7173-.139.1261-.459.3997-.094.3079z"/>
        <path d="m110.327 33.1456c1.065-.6203 2.845-.386 4.02-.7042 1.134-.2967 1.939-.7266 2.943-1.3655 2.23-1.3452 4.438-2.7306 6.775-3.8754 2.559-1.2121 5.057-2.4429 7.488-3.8956 2.35-1.4097 5.231-2.7938 7.014-4.8792 0 0 .373-.56.129-.5328-2.558.4389-5.097 2.4645-7.348 3.7696-2.493 1.4341-5.007 2.8281-7.625 4.1234-1.975.9513-3.842 2.1032-5.71 3.255-2.589 1.6403-5.44 2.5962-8.137 4.0361-.281.1505.33.1331.451.0686z"/>
        <path d="m42.739 58.058c1.5568 1.075 3.2342 2.0855 5.1591 2.3971s3.521-.2831 5.3209-.8836c2.3256-.7782 4.6316-.7216 6.988-.2798 1.5576.3017 3.8756 1.6399 5.4366 1.27 1.7433-.4157 2.0892-2.8674 1.2192-4.206-.8486-1.2985-2.5081-1.5973-3.9183-1.7201-2.9842-.2612-6.1104-.498-7.555-3.5906-.1927-.3608-.7167.6918-.5052.991 1.3949 1.9342 3.0236 3.4344 5.4605 3.8333 1.4745.243 3.3198-.1757 4.6839.5385 1.364.7141 1.0156 3.0641-.5583 2.9256-.5925-.0442-1.3161-.4306-1.8898-.5364-2.7264-.5534-5.5307-.9621-8.2425-.1323-2.186.6522-3.8763 1.5548-6.1899 1.1932-1.74-.2558-3.4312-1.0014-5.0016-1.8115-.0428-.0801-.5523-.0657-.4076.0116z"/>
        <path d="m61.858 60.0587c-.2132 1.2473-.0539 2.7078 1.5738 2.5599.4479-.0331.8931-.1678 1.1697-.5216.3545-.4984.3553-1.2717.3211-1.8201-.0052-.2034-.7107.1219-.7056.3252.0103.4067-.0197.8349-.1113 1.2444-.0728.348.0052.2034-.2175.2707-.1824.0459-.4076.0116-.5925-.0442-.9462-.319-.8512-1.4002-.7082-2.1978-.0454-.1819-.6944-.0414-.7295.1835z"/>
        <path d="m64.6039 54.9342c.1361-1.8759-2.9054-3.6005-4.6325-3.348-.2441.0273-.7518.9167-.4247.9481.941.1157 1.7802.2343 2.6485.698.3724.2133.7449.4265 1.0583.7229.3751.3149.5489.7373 1.0019.9075.0428.0802.3297.1331.3485.0715z"/>
        <path d="m63.6431 53.232c.673.0013.7715.67 1.2485.982.3322.2347.6593.2662 1.0481.3162 1.3323.2674 1.3666.8158 2.1458 1.7907.5061.6572 3.3198 2.2458 3.7128.851l-.0428-.0802c-.7141.7935-2.6133-.9229-2.9935-1.4411-.4445-.6385-.6072-1.4275-1.3898-1.7309-.3297-.133-.6328-.0227-.9813-.0942-.5121-.0872-.8015-.2418-1.2168-.5352s-.5626-.4724-1.0506-.4178c-.161.0859-.8075.3281-.4804.3595z"/>
        <path d="m61.2609 51.7737c.0488-.4898.4084-.7849.602-1.1973.0967-.2063.113-.3695.0864-.6129.0163-.1633-.1173-.6072.0223-.7332.1609-.086-.1662-.1174-.1662-.1174-.1019.0029-.3459.0302-.4238.1748-.137.2278-.2149.3724-.167.6559.0266.2435.0934.4654.018.7117-.1721.4526-.5719.7691-.6207 1.2589.0025.1016.6542.0628.649-.1405z"/>
        <path d="m71.7957 54.6488c.1687.2191 1.0473 1.0895 1.0336 1.3544-.0702.4496-.7458.3467-.9924.2723-.3083-.093-.5977-.2475-.8469-.4236-.9136-.6455-1.5884-1.5217-1.9815-2.5483-.0668-.2219-.786.3682-.7192.5902.5669 1.4489 1.8924 3.0595 3.6032 2.9703.5095-.0145 1.1158-.2352 1.4728-.632.5557-.6058-.5857-1.3874-.9633-1.804-.1045-.0987-.6705.1005-.6063.2207z"/>
        <path d="m69.113 53.4023c-.6217-.3893-1.2836-.7572-1.8248-1.1894-.292-.2563-.5625-.4724-.8545-.7287-.2304-.2376-.3802-.5182-.7501-.6298-.0617-.0186-.6517.0388-.6063.2207.4813 1.2886 2.1185 2.3206 3.3515 2.6925.1636.0157.8289-.288.6842-.3653z"/>
        <path d="m65.4421 50.9834c-.1661-.1174-.3296-.1331-.5523-.0658-.4264.0732-.7321.0819-1.0857-.193-.5626-.4724-.8247-1.1568-1.3282-1.7122-.1258-.1389-.7509.1434-.6867.2637.2595.5827.6851 1.2828 1.186 1.7366.2089.1975.4769.312.7638.3649s.8314-.1864 1.0378-.0905c.1661.1174.7698-.205.6653-.3037z"/>
        <path d="m61.6334 49.5653c1.3375.4707 2.7135.045 3.9422-.5596.322-.1719.3956-1.2932.1542-1.1642-1.1671.6232-2.2083 1.3853-3.5544 1.3828-.1019.0029-.6653.3038-.542.341z"/>
        <path d="m65.4335 49.0302c.935.6856 2.538 1.1692 3.5364.3269.0591-.0831.5317-.7477.2663-.7605-.3057.0087-.5472.1377-.7698.205-.2843.0488-.5686.0976-.834.0847-.5497.036-1.0001-.0326-1.5148-.2215-.1849-.0558-.8502.248-.6841.3654z"/>
        <path d="m68.7285 49.4861c1.2955 2.0387 4.0374 3.2021 6.2191 1.5733.2201-.169.4324-.643.3845-.9265-.382-1.3932-2.092-2.0772-3.1529-2.9017-1.061-.8245-2.2143-.4662-3.3772-1.2878-1.5781-1.1151-2.5671-1.5143-4.6239-1.3949-1.7725.0707-3.5295.7514-5.2233-.0959-.2277-.1359-.8614.6146-.6336.7506 2.8001 1.8536 6.4794-1.0386 9.2444 1.0398.6028.4509.9453 1.0923 1.6663 1.3771.721.2847 1.3837-.1207 2.0482.3488.477.312.6936.8146 1.1303 1.1481.8734.667 1.9326.6166 2.2692 1.828.1344-.3294.2903-.6187.4247-.9481-2.1218.7724-4.2617.8332-5.7825-1.2399-.0239-.1417-.7218.4885-.5933.7291z"/>
        <path d="m72.6512 54.6042c-.7793-.9749-.8315-2.235-1.4686-3.2343-.5969-1.0208-1.9909-1.3068-2.3865-2.4351-.0668-.2219-.7672.3066-.7218.4885.3365 1.2113 1.3983 1.2626 2.1536 2.0958.8811.972.8366 2.4384 1.6989 3.472.1875.1574.8288-.2881.7244-.3869z"/>
        <path d="m59.1741 45.0568c-1.8402-1.7995-3.0527-1.3581-5.2687-.2777-2.5594 1.2121-4.9141 1.6452-7.6765 2.0899-3.473.5666-8.4025 1.6019-10.2991 4.8301-.1773.2492-.2158 1.1456.1978.5641 1.3375-1.9507 4.0758-2.5371 6.2619-3.1893 1.7193-.5575 3.425-.8501 5.2138-1.084 1.5849-.2282 2.9661-.4505 4.4175-1.1225 2.0362-.9328 4.1674-2.9467 6.4905-1.4052.1233.0372.7458-.3467.6628-.4054z"/>
        <path d="m36.0882 51.5115c-2.162 3.2154-5.1221 5.5174-7.9512 8.1616-2.5499 2.3921-4.7676 5.0189-7.1917 7.5499-2.5422 2.6971-5.2557 5.0735-8.4513 6.9345-2.412 1.3911-5.19148 2.7723-5.87302 5.6608-.03767.1231-.06506.6529.23549.4409 1.21845-1.0113 1.98137-2.2945 3.34453-3.2286 1.4839-.9985 3.0748-1.7965 4.5587-2.795 2.8471-1.9325 5.2095-4.4821 7.5103-7.0502 4.7787-5.3856 10.2699-10.0181 14.4861-15.876.1181-.1661-.5497.036-.6679.2021z"/>
        <path d="m44.1827 59.5025c-2.4506 2.2875-3.2982 5.0586-4.7547 7.9487-1.0694 2.0652-2.5919 3.9601-3.9721 5.8306-4.1999 5.6947-8.3382 11.4079-11.7503 17.6093-.1747.3509.2663 1.661.5189 1.1655 3.4712-6.2845 7.7088-12.1023 11.5953-18.0933 1.394-2.1354 2.9515-4.2552 4.0963-6.5667 1.4564-2.8901 2.4248-5.7256 4.8566-7.9516.161-.0859-.4504-.0686-.59.0575z"/>
    </g>
</svg>
