<svg width="134" height="339" viewBox="0 0 134 339" fill="none" xmlns="http://www.w3.org/2000/svg">
    <path d="M0.266493 250.234C20.1748 281.869 53.3097 303.277 69.9454 337.23C70.3545 337.912 71.1726 338.458 71.718 337.503C90.1264 304.368 110.716 272.597 133.215 242.053C134.034 240.962 132.806 238.098 131.579 239.734C109.08 270.142 88.4901 302.05 70.0818 335.185C70.6272 335.321 71.309 335.321 71.8544 335.458C54.946 301.368 21.811 279.687 1.76643 247.916C0.675566 246.143 -0.551655 249.143 0.266493 250.234Z"
          fill="black"/>
    <path d="M131.988 240.689C128.443 250.507 121.08 258.007 113.989 265.643C107.716 272.324 101.444 278.869 95.4442 285.824C84.5356 298.505 74.9906 312.413 70.6271 328.776C70.218 330.276 71.9907 332.594 72.5361 330.413C77.5814 311.595 89.4445 296.323 102.398 282.142C113.443 270.006 128.17 258.279 133.897 242.325C134.443 240.826 132.67 238.644 131.988 240.689Z"
          fill="black"/>
    <path d="M54.2634 1.65375C54.1271 107.604 59.1723 213.554 69.5355 319.095C69.6719 321.14 71.99 321.14 71.7172 319.095C61.354 213.554 56.3088 107.604 56.5815 1.51739C56.5815 -0.527974 54.3998 -0.527974 54.2634 1.65375Z"
          fill="black"/>
</svg>
