<svg fill="none" height="66" viewBox="0 0 70 66" width="70" xmlns="http://www.w3.org/2000/svg">
    <g fill="#da368b">
        <path d="m6.20737 23.4222c1.8-7.5 6.70003-13.50002 13.40003-17.30002 8.4-4.9 21.4-7.8 30.3-2.8 7.5 4.2 12.7 13.20002 15.8 21.00002 3.2 8.1 3.9 17.3-1.1 24.8-9.8 14.9-35.3 18.3-49.9 9-13.40003-8.4-14.900026-23.6-8.90003-37.2.1-.3-1.1-.7-1.3-.5-8 12.6-5.199996 30.3 7.20003 38.9 12.1 8.4 29.1 6.8 41.7.4 12.3-6.2 19.6-17.2 15.3-31.2-3.5-11.3-12.2-25.20002-24.6-27.900022-15.6-3.199998-34.90003 6.200002-38.50003 22.300022 0 .2.6.7.6.5z"/>
        <path d="m31.5074 29.4222c-1.1-3.2 4.2-5.2 6.2-3.5 1.7 1.5.8 5 .8 7 0 4.9.9 11.1-.1 15.9.7 1.6.4 2.3-.8 1.9-1-.2-2-.4-3-.6-2.9-1-2.3-1.9-2.4-5-.1-5.8-.2-11.7-.5-17.5 0-.4-1.7-.4-1.8 0 0 3.8 0 7.5.1 11.3 0 3.1-.9 8.3.2 11.2.7 1.9 6.5 2.9 8.4 2.2 2.6-.9 1.9-3.8 1.8-6.1-.2-6.9-.5-13.7-.8-20.6 0-.3-.7-.6-1-.6-2.5.3-9.8-1-7.6 4 0 .2.6.6.5.4z"/>
        <path d="m34.6074 12.2222c-1.8.7-6.7 4.4-3.7 6.5 1.9 1.3 5.6 1.5 7.6.3 1.9-1.1 2.6-4.5.4-5.7-1.5-.8-5.1-1.8-6.5-.2-.1.2 1.1.7 1.3.5.8-.7 1.4-.7 2.3-.3.6.2 1.4.5 1.8 1.1.7.9.5 2.7-.1 3.6-.8 1.3-3.7.6-4.8 0-2.7-1.5 1-4.5 2.4-5.2.1 0-.5-.6-.7-.6z"/>
    </g>
</svg>
