<svg fill="none" height="276" viewBox="0 0 503 276" width="503" xmlns="http://www.w3.org/2000/svg">
    <path d="m147.807 18.3601c-55.6665 5.3823-102.0761 44.3102-127.9705 92.3759-21.64115 40.054-37.4029 110.65 18.5138 130.552 15.0113 5.382 31.5236 7.01 47.2854 9.137 19.0143 2.629 38.1533 4.632 57.2923 6.259 37.654 3.129 75.557 4.256 113.335 3.379 62.422-1.502 130.723-11.39 174.505-60.582 8.632-9.763 16.012-20.778 21.141-32.669 5.004-11.641 10.008-25.41 4.879-37.676-5.879-14.27-15.136-28.164-23.893-40.8059-9.007-12.8925-19.264-24.9088-31.023-35.2979-46.41-40.8054-110.833-46.93878-170.002-47.06395-31.023-.12517-64.173-1.50204-94.321 6.88435-27.895 7.7605-49.2864 26.4109-62.7965 51.8204-12.7595 24.1578-19.0142 52.571-19.6396 79.984-.2502 14.77 2.2516 29.289 10.0074 42.182s19.2644 23.156 30.8981 32.419c49.2866 39.303 112.8346 59.831 175.7566 56.327 32.399-1.753 64.548-9.889 94.07-23.282 14.136-6.509 27.771-14.269 40.53-23.157 12.384-8.636 25.019-18.149 34.151-30.291 18.389-24.408 11.258-54.949-3.503-79.232-15.136-25.0344-37.153-45.5622-61.671-61.2085-57.293-36.5497-126.219-45.3116-192.894-48.44081-29.647-1.37687-65.799-6.13333-89.3167 16.27211-11.2584 10.6395-19.0142 25.034-25.6442 38.8027-7.1303 14.6449-12.6344 30.0408-16.6374 45.8125-3.8779 15.271-6.1296 30.792-6.8802 46.438-.6254 12.642-2.5018 30.041 4.003 41.681 3.1274 5.508 8.3813 8.512 14.0105 11.015 8.2562 3.63 16.7625 6.634 25.2689 9.639 16.7621 5.757 34.0251 10.389 51.4131 14.019 67.676 14.269 138.979 16.021 207.906 11.891 57.543-3.38 124.718-21.029 148.986-79.859 4.378-10.639 9.632-26.536 4.378-37.676-2.877-6.133-9.257-10.514-14.26-14.77-6.38-5.382-12.76-10.639-19.39-15.6463-24.894-18.9006-51.664-35.2979-79.685-48.9415-56.667-27.5374-118.838-44.05982-181.76-47.814923-16.012-1.001361-32.024-1.126531-47.911-.25034-16.137.751023-32.775 3.129253-47.035 11.014963-13.0099 7.2599-23.1425 18.6503-32.1492 30.2912-10.5079 13.7687-20.1401 28.1632-29.0217 42.8081-8.5064 14.0191-18.2636 29.0398-23.2674 44.6858-4.5033 14.019.6255 25.159 8.2562 36.8 10.5078 15.897 21.0157 31.793 31.5235 47.69 5.0038 7.635 10.1326 15.27 15.1363 22.781 4.1281 6.258 8.1311 13.017 13.5101 18.525 10.5082 10.639 24.7682 9.638 38.6542 9.638 18.764 0 37.528-.125 56.292-.125 1.376 0 1.251-3.129-.125-3.129-17.138 0-34.276.125-51.414.125-16.887 0-33.775 2.002-45.4087-12.517-10.1325-12.642-18.3887-27.162-27.2703-40.681-9.6322-14.519-19.2644-29.039-28.8966-43.559-4.7536-7.26-10.1326-14.895-10.2577-23.907-.1251-10.139 5.6292-19.777 10.1326-28.414 7.3805-14.1441 15.5116-27.7876 24.2681-41.1808 16.5123-25.1592 35.0262-53.8231 65.2986-63.08572 15.011-4.50612 30.898-5.13197 46.41-5.25714 14.511-.25034 29.022.25034 43.532 1.50204 29.522 2.37823 58.919 7.63542 87.441 15.52112 56.542 15.5211 110.332 41.4313 157.617 76.3537 11.509 8.5118 23.518 17.2738 33.525 27.5378 12.135 12.266 3.128 34.797-3.877 47.94-12.76 24.032-35.402 42.307-60.045 53.197-29.773 13.018-62.547 16.522-94.696 17.774-31.899 1.252-63.923 1.252-95.696-.25-32.525-1.502-65.049-4.882-97.073-11.391-15.512-3.129-30.898-7.134-46.0344-11.891-7.2554-2.253-14.3857-4.756-21.391-7.385-7.3805-2.754-16.5123-5.257-22.2666-10.89-6.2547-6.258-6.3798-15.771-6.63-23.907-.2501-8.637-.1251-17.399.5004-26.035 1.2509-16.022 4.1281-31.794 8.6315-47.19 4.5033-15.3955 10.5078-30.2908 18.0134-44.435 6.8802-13.3932 15.0112-27.0367 27.3957-35.7986 12.759-9.1374 28.896-11.2653 44.158-11.6408 15.762-.3755 31.648.6258 47.285 1.502 34.151 1.8776 68.301 5.3823 101.451 13.6436 54.791 13.7687 108.831 42.5578 140.23 91.1238 8.756 13.518 15.761 29.165 16.262 45.437.5 17.273-7.881 31.543-20.015 43.183-21.516 20.528-48.662 36.3-76.182 47.315-56.167 22.405-118.964 24.533-176.382 5.507-28.271-9.388-55.041-23.532-78.5585-41.932-11.6337-9.137-23.0172-19.151-31.1483-31.543-9.7573-15.145-11.3835-32.544-10.0075-50.068 2.0015-26.786 8.7566-54.1984 23.1423-77.2296 15.8869-25.4096 40.28-40.6803 69.552-45.9375 28.646-5.13193 58.794-4.25574 87.69-4.0054 28.772.25034 57.794 2.1279 85.94 8.7619 27.395 6.5088 53.79 18.0245 75.306 36.4245 23.017 19.6517 40.53 45.8121 54.04 72.5991 4.504 8.887 4.003 16.897 1.251 26.285-2.001 6.885-4.878 13.644-8.256 19.902-6.38 11.766-14.761 22.406-24.393 31.668-20.39 19.652-46.035 32.67-73.18 40.43-31.899 9.138-65.299 11.266-98.323 11.766-34.651.626-69.427-.5-103.953-3.254-17.138-1.377-34.15-3.129-51.1631-5.257-16.2622-2.003-32.8996-3.755-48.7865-7.886-13.7603-3.63-26.6449-10.264-34.776-22.28-7.25538-10.765-10.00744-24.033-10.00744-36.926-.12509-26.536 10.00744-52.446 23.26734-74.976 13.26-22.531 30.8981-42.5582 52.164-57.8289 20.8906-15.0204 45.1587-24.7837 70.6777-27.1619 1.376-.1252 1.251-3.2545 0-3.0041z"
          fill="#000"/>
</svg>
