<svg width="121" height="120" viewBox="0 0 121 120" fill="none" xmlns="http://www.w3.org/2000/svg">
<path d="M38.2988 54.036C38.4668 54.036 38.5975 54.078 38.6908 54.162C38.7841 54.246 38.8308 54.3626 38.8308 54.512C38.8308 54.6706 38.7841 54.792 38.6908 54.876C38.5975 54.96 38.4668 55.002 38.2988 55.002H32.0408C31.8728 55.002 31.7375 54.9553 31.6348 54.862C31.5415 54.7686 31.4948 54.652 31.4948 54.512C31.4948 54.372 31.5461 54.2273 31.6488 54.078L37.2488 46.098H32.0408C31.8728 46.098 31.7421 46.056 31.6488 45.972C31.5555 45.888 31.5088 45.7713 31.5088 45.622C31.5088 45.4633 31.5555 45.342 31.6488 45.258C31.7421 45.174 31.8728 45.132 32.0408 45.132H38.1448C38.3128 45.132 38.4435 45.1786 38.5368 45.272C38.6395 45.3653 38.6908 45.482 38.6908 45.622C38.6908 45.7526 38.6395 45.8926 38.5368 46.042L32.9228 54.036H38.2988ZM44.3775 55.114C43.4629 55.114 42.6649 54.9086 41.9835 54.498C41.3115 54.0873 40.7935 53.504 40.4295 52.748C40.0655 51.992 39.8835 51.1006 39.8835 50.074C39.8835 49.038 40.0609 48.142 40.4155 47.386C40.7795 46.6206 41.2975 46.0373 41.9695 45.636C42.6509 45.2253 43.4535 45.02 44.3775 45.02C45.3015 45.02 46.0995 45.2253 46.7715 45.636C47.4529 46.0373 47.9709 46.6206 48.3255 47.386C48.6895 48.142 48.8715 49.0333 48.8715 50.06C48.8715 51.0866 48.6895 51.9826 48.3255 52.748C47.9615 53.504 47.4389 54.0873 46.7575 54.498C46.0855 54.9086 45.2922 55.114 44.3775 55.114ZM44.3775 54.134C45.4229 54.134 46.2349 53.784 46.8135 53.084C47.4015 52.3746 47.6955 51.3666 47.6955 50.06C47.6955 48.7533 47.4062 47.75 46.8275 47.05C46.2489 46.35 45.4322 46 44.3775 46C43.3322 46 42.5155 46.3546 41.9275 47.064C41.3489 47.764 41.0595 48.7626 41.0595 50.06C41.0595 51.3573 41.3489 52.3606 41.9275 53.07C42.5155 53.7793 43.3322 54.134 44.3775 54.134ZM56.5389 49.934C57.1083 50.0833 57.5469 50.3633 57.8549 50.774C58.1723 51.1846 58.3309 51.698 58.3309 52.314C58.3309 53.182 58.0463 53.8493 57.4769 54.316C56.9076 54.7733 56.1003 55.002 55.0549 55.002H51.5269C51.3496 55.002 51.2049 54.9506 51.0929 54.848C50.9903 54.7453 50.9389 54.61 50.9389 54.442V45.692C50.9389 45.524 50.9903 45.3886 51.0929 45.286C51.2049 45.1833 51.3496 45.132 51.5269 45.132H54.9009C55.9183 45.132 56.7069 45.356 57.2669 45.804C57.8269 46.252 58.1069 46.8866 58.1069 47.708C58.1069 48.24 57.9669 48.6973 57.6869 49.08C57.4163 49.4626 57.0336 49.7473 56.5389 49.934ZM52.0729 49.514H54.7329C55.4703 49.514 56.0256 49.3646 56.3989 49.066C56.7816 48.7673 56.9729 48.3333 56.9729 47.764C56.9729 46.644 56.2263 46.084 54.7329 46.084H52.0729V49.514ZM54.9429 54.05C55.7176 54.05 56.2869 53.91 56.6509 53.63C57.0243 53.3406 57.2109 52.8926 57.2109 52.286C57.2109 51.0726 56.4549 50.466 54.9429 50.466H52.0729V54.05H54.9429ZM68.7338 54.344C68.7712 54.4186 68.7898 54.498 68.7898 54.582C68.7898 54.722 68.7338 54.8386 68.6218 54.932C68.5192 55.0253 68.3932 55.072 68.2438 55.072C68.0105 55.072 67.8472 54.96 67.7538 54.736L66.7598 52.468H61.4818L60.4738 54.736C60.3805 54.96 60.2172 55.072 59.9838 55.072C59.8345 55.072 59.7038 55.0253 59.5918 54.932C59.4798 54.8293 59.4238 54.708 59.4238 54.568C59.4238 54.4933 59.4425 54.4186 59.4798 54.344L63.4838 45.44C63.5398 45.3093 63.6238 45.2113 63.7358 45.146C63.8478 45.0806 63.9692 45.048 64.0998 45.048C64.2398 45.048 64.3658 45.0853 64.4778 45.16C64.5898 45.2253 64.6738 45.3186 64.7298 45.44L68.7338 54.344ZM61.9018 51.516H66.3398L64.1138 46.49L61.9018 51.516ZM74.2519 55.114C73.3186 55.114 72.5112 54.9133 71.8299 54.512C71.1486 54.1013 70.6212 53.518 70.2479 52.762C69.8839 51.9966 69.7019 51.096 69.7019 50.06C69.7019 49.0333 69.8839 48.142 70.2479 47.386C70.6212 46.6206 71.1486 46.0373 71.8299 45.636C72.5112 45.2253 73.3186 45.02 74.2519 45.02C74.8772 45.02 75.4652 45.1226 76.0159 45.328C76.5759 45.524 77.0612 45.8086 77.4719 46.182C77.6212 46.322 77.6959 46.4853 77.6959 46.672C77.6959 46.8026 77.6586 46.9193 77.5839 47.022C77.5092 47.1153 77.4206 47.162 77.3179 47.162C77.2059 47.162 77.0706 47.1106 76.9119 47.008C76.4359 46.6346 76.0019 46.3733 75.6099 46.224C75.2272 46.0746 74.7839 46 74.2799 46C73.1972 46 72.3619 46.3546 71.7739 47.064C71.1952 47.764 70.9059 48.7626 70.9059 50.06C70.9059 51.3666 71.1952 52.3746 71.7739 53.084C72.3619 53.784 73.1972 54.134 74.2799 54.134C74.7746 54.134 75.2179 54.0593 75.6099 53.91C76.0019 53.7606 76.4359 53.4993 76.9119 53.126C77.0706 53.0233 77.2059 52.972 77.3179 52.972C77.4206 52.972 77.5092 53.0186 77.5839 53.112C77.6586 53.2053 77.6959 53.322 77.6959 53.462C77.6959 53.6486 77.6212 53.812 77.4719 53.952C77.0612 54.3253 76.5759 54.6146 76.0159 54.82C75.4652 55.016 74.8772 55.114 74.2519 55.114ZM85.5625 54.036C85.7305 54.036 85.8611 54.078 85.9545 54.162C86.0478 54.246 86.0945 54.3626 86.0945 54.512C86.0945 54.6706 86.0478 54.792 85.9545 54.876C85.8611 54.96 85.7305 55.002 85.5625 55.002H79.3045C79.1365 55.002 79.0011 54.9553 78.8985 54.862C78.8051 54.7686 78.7585 54.652 78.7585 54.512C78.7585 54.372 78.8098 54.2273 78.9125 54.078L84.5125 46.098H79.3045C79.1365 46.098 79.0058 46.056 78.9125 45.972C78.8191 45.888 78.7725 45.7713 78.7725 45.622C78.7725 45.4633 78.8191 45.342 78.9125 45.258C79.0058 45.174 79.1365 45.132 79.3045 45.132H85.4085C85.5765 45.132 85.7071 45.1786 85.8005 45.272C85.9031 45.3653 85.9545 45.482 85.9545 45.622C85.9545 45.7526 85.9031 45.8926 85.8005 46.042L80.1865 54.036H85.5625ZM29.9817 64.412C30.019 64.2906 30.0843 64.202 30.1777 64.146C30.271 64.0806 30.3737 64.048 30.4857 64.048C30.635 64.048 30.761 64.0946 30.8637 64.188C30.9757 64.272 31.0317 64.3886 31.0317 64.538C31.0317 64.6033 31.0177 64.678 30.9897 64.762L27.8257 73.68C27.779 73.8106 27.6997 73.9133 27.5877 73.988C27.4757 74.0533 27.3497 74.086 27.2097 74.086C27.079 74.086 26.9577 74.0533 26.8457 73.988C26.7337 73.9133 26.6543 73.8106 26.6077 73.68L23.8637 65.924L21.0917 73.68C21.045 73.8106 20.9657 73.9133 20.8537 73.988C20.7417 74.0533 20.6203 74.086 20.4897 74.086C20.359 74.086 20.2377 74.0533 20.1257 73.988C20.0137 73.9133 19.9343 73.8106 19.8877 73.68L16.7097 64.762C16.6817 64.6873 16.6677 64.6173 16.6677 64.552C16.6677 64.4026 16.7237 64.2813 16.8357 64.188C16.957 64.0946 17.0923 64.048 17.2417 64.048C17.3537 64.048 17.4563 64.0806 17.5497 64.146C17.6523 64.202 17.7223 64.2906 17.7597 64.412L20.5177 72.364L23.3177 64.496C23.3643 64.356 23.439 64.2533 23.5417 64.188C23.6443 64.1133 23.7563 64.076 23.8777 64.076C23.999 64.076 24.111 64.1133 24.2137 64.188C24.3163 64.2626 24.391 64.37 24.4377 64.51L27.1957 72.392L29.9817 64.412ZM35.7755 74.114C35.0755 74.114 34.4035 74.0113 33.7595 73.806C33.1248 73.5913 32.6161 73.3066 32.2335 72.952C32.0935 72.8213 32.0235 72.658 32.0235 72.462C32.0235 72.3313 32.0608 72.2193 32.1355 72.126C32.2101 72.0233 32.2988 71.972 32.4015 71.972C32.5228 71.972 32.6535 72.0233 32.7935 72.126C33.6615 72.798 34.6508 73.134 35.7615 73.134C36.5641 73.134 37.1801 72.98 37.6095 72.672C38.0388 72.364 38.2535 71.9253 38.2535 71.356C38.2535 71.0293 38.1508 70.768 37.9455 70.572C37.7401 70.3666 37.4695 70.2033 37.1335 70.082C36.7975 69.9606 36.3448 69.8346 35.7755 69.704C35.0101 69.5266 34.3801 69.34 33.8855 69.144C33.4001 68.948 33.0035 68.668 32.6955 68.304C32.3968 67.94 32.2475 67.464 32.2475 66.876C32.2475 66.316 32.3968 65.8213 32.6955 65.392C33.0035 64.9533 33.4281 64.6173 33.9695 64.384C34.5201 64.1413 35.1455 64.02 35.8455 64.02C36.4988 64.02 37.1055 64.1226 37.6655 64.328C38.2348 64.524 38.7108 64.8086 39.0935 65.182C39.2428 65.3313 39.3175 65.4946 39.3175 65.672C39.3175 65.8026 39.2801 65.9193 39.2055 66.022C39.1308 66.1153 39.0421 66.162 38.9395 66.162C38.8368 66.162 38.7015 66.1106 38.5335 66.008C38.0761 65.6346 37.6515 65.3733 37.2595 65.224C36.8675 65.0746 36.3961 65 35.8455 65C35.0708 65 34.4688 65.1633 34.0395 65.49C33.6101 65.8073 33.3955 66.2553 33.3955 66.834C33.3955 67.3286 33.5821 67.702 33.9555 67.954C34.3381 68.1966 34.9215 68.4113 35.7055 68.598C36.5548 68.8033 37.2221 68.9946 37.7075 69.172C38.1928 69.34 38.5941 69.5966 38.9115 69.942C39.2381 70.2873 39.4015 70.7493 39.4015 71.328C39.4015 71.8786 39.2475 72.364 38.9395 72.784C38.6408 73.204 38.2161 73.5306 37.6655 73.764C37.1148 73.9973 36.4848 74.114 35.7755 74.114ZM47.2881 73.036C47.4561 73.036 47.5867 73.078 47.6801 73.162C47.7734 73.246 47.8201 73.3626 47.8201 73.512C47.8201 73.6706 47.7734 73.792 47.6801 73.876C47.5867 73.96 47.4561 74.002 47.2881 74.002H41.0301C40.8621 74.002 40.7267 73.9553 40.6241 73.862C40.5307 73.7686 40.4841 73.652 40.4841 73.512C40.4841 73.372 40.5354 73.2273 40.6381 73.078L46.2381 65.098H41.0301C40.8621 65.098 40.7314 65.056 40.6381 64.972C40.5447 64.888 40.4981 64.7713 40.4981 64.622C40.4981 64.4633 40.5447 64.342 40.6381 64.258C40.7314 64.174 40.8621 64.132 41.0301 64.132H47.1341C47.3021 64.132 47.4327 64.1786 47.5261 64.272C47.6287 64.3653 47.6801 64.482 47.6801 64.622C47.6801 64.7526 47.6287 64.8926 47.5261 65.042L41.9121 73.036H47.2881ZM55.6159 64.286C55.7279 64.146 55.8632 64.076 56.0219 64.076C56.1525 64.076 56.2692 64.1273 56.3719 64.23C56.4745 64.3326 56.5259 64.4586 56.5259 64.608C56.5259 64.748 56.4839 64.8646 56.3999 64.958L52.9979 69.256V73.484C52.9979 73.6706 52.9419 73.8153 52.8299 73.918C52.7272 74.0206 52.5919 74.072 52.4239 74.072C52.2559 74.072 52.1159 74.0206 52.0039 73.918C51.9012 73.8153 51.8499 73.6706 51.8499 73.484V69.242L48.4479 64.958C48.3545 64.8553 48.3079 64.7386 48.3079 64.608C48.3079 64.4586 48.3592 64.3326 48.4619 64.23C48.5739 64.1273 48.6999 64.076 48.8399 64.076C48.9985 64.076 49.1339 64.146 49.2459 64.286L52.4379 68.36L55.6159 64.286ZM60.6583 74.114C59.9583 74.114 59.2863 74.0113 58.6423 73.806C58.0076 73.5913 57.4989 73.3066 57.1163 72.952C56.9763 72.8213 56.9063 72.658 56.9063 72.462C56.9063 72.3313 56.9436 72.2193 57.0183 72.126C57.0929 72.0233 57.1816 71.972 57.2843 71.972C57.4056 71.972 57.5363 72.0233 57.6763 72.126C58.5443 72.798 59.5336 73.134 60.6443 73.134C61.447 73.134 62.063 72.98 62.4923 72.672C62.9216 72.364 63.1363 71.9253 63.1363 71.356C63.1363 71.0293 63.0336 70.768 62.8283 70.572C62.623 70.3666 62.3523 70.2033 62.0163 70.082C61.6803 69.9606 61.2276 69.8346 60.6583 69.704C59.8929 69.5266 59.2629 69.34 58.7683 69.144C58.2829 68.948 57.8863 68.668 57.5783 68.304C57.2796 67.94 57.1303 67.464 57.1303 66.876C57.1303 66.316 57.2796 65.8213 57.5783 65.392C57.8863 64.9533 58.3109 64.6173 58.8523 64.384C59.403 64.1413 60.0283 64.02 60.7283 64.02C61.3816 64.02 61.9883 64.1226 62.5483 64.328C63.1176 64.524 63.5936 64.8086 63.9763 65.182C64.1256 65.3313 64.2003 65.4946 64.2003 65.672C64.2003 65.8026 64.163 65.9193 64.0883 66.022C64.0136 66.1153 63.925 66.162 63.8223 66.162C63.7196 66.162 63.5843 66.1106 63.4163 66.008C62.9589 65.6346 62.5343 65.3733 62.1423 65.224C61.7503 65.0746 61.279 65 60.7283 65C59.9536 65 59.3516 65.1633 58.9223 65.49C58.4929 65.8073 58.2783 66.2553 58.2783 66.834C58.2783 67.3286 58.4649 67.702 58.8383 67.954C59.2209 68.1966 59.8043 68.4113 60.5883 68.598C61.4376 68.8033 62.105 68.9946 62.5903 69.172C63.0756 69.34 63.477 69.5966 63.7943 69.942C64.121 70.2873 64.2843 70.7493 64.2843 71.328C64.2843 71.8786 64.1303 72.364 63.8223 72.784C63.5236 73.204 63.099 73.5306 62.5483 73.764C61.9976 73.9973 61.3676 74.114 60.6583 74.114ZM68.9118 74.072C68.7345 74.072 68.5898 74.0206 68.4778 73.918C68.3752 73.806 68.3238 73.6613 68.3238 73.484V65.112H65.3138C65.1458 65.112 65.0152 65.07 64.9218 64.986C64.8285 64.902 64.7818 64.7806 64.7818 64.622C64.7818 64.4633 64.8285 64.342 64.9218 64.258C65.0152 64.174 65.1458 64.132 65.3138 64.132H72.4958C72.6638 64.132 72.7945 64.174 72.8878 64.258C72.9812 64.342 73.0278 64.4633 73.0278 64.622C73.0278 64.7806 72.9812 64.902 72.8878 64.986C72.7945 65.07 72.6638 65.112 72.4958 65.112H69.4858V73.484C69.4858 73.6613 69.4345 73.806 69.3318 73.918C69.2292 74.0206 69.0892 74.072 68.9118 74.072ZM81.409 73.134C81.5397 73.2553 81.605 73.3906 81.605 73.54C81.605 73.6706 81.549 73.792 81.437 73.904C81.3344 74.0066 81.213 74.058 81.073 74.058C80.9517 74.058 80.8257 74.002 80.695 73.89L75.459 69.312V73.484C75.459 73.6613 75.4077 73.806 75.305 73.918C75.2024 74.0206 75.0624 74.072 74.885 74.072C74.7077 74.072 74.5677 74.0206 74.465 73.918C74.3624 73.806 74.311 73.6613 74.311 73.484V64.65C74.311 64.4726 74.3624 64.3326 74.465 64.23C74.5677 64.118 74.7077 64.062 74.885 64.062C75.0624 64.062 75.2024 64.118 75.305 64.23C75.4077 64.3326 75.459 64.4726 75.459 64.65V68.668L80.457 64.23C80.5597 64.1273 80.681 64.076 80.821 64.076C80.961 64.076 81.0824 64.132 81.185 64.244C81.2877 64.3466 81.339 64.4633 81.339 64.594C81.339 64.734 81.2784 64.8646 81.157 64.986L76.635 68.962L81.409 73.134ZM86.8219 74.114C85.9072 74.114 85.1092 73.9086 84.4279 73.498C83.7559 73.0873 83.2379 72.504 82.8739 71.748C82.5099 70.992 82.3279 70.1006 82.3279 69.074C82.3279 68.038 82.5052 67.142 82.8599 66.386C83.2239 65.6206 83.7419 65.0373 84.4139 64.636C85.0952 64.2253 85.8979 64.02 86.8219 64.02C87.7459 64.02 88.5439 64.2253 89.2159 64.636C89.8972 65.0373 90.4152 65.6206 90.7699 66.386C91.1339 67.142 91.3159 68.0333 91.3159 69.06C91.3159 70.0866 91.1339 70.9826 90.7699 71.748C90.4059 72.504 89.8832 73.0873 89.2019 73.498C88.5299 73.9086 87.7365 74.114 86.8219 74.114ZM86.8219 73.134C87.8672 73.134 88.6792 72.784 89.2579 72.084C89.8459 71.3746 90.1399 70.3666 90.1399 69.06C90.1399 67.7533 89.8505 66.75 89.2719 66.05C88.6932 65.35 87.8765 65 86.8219 65C85.7765 65 84.9599 65.3546 84.3719 66.064C83.7932 66.764 83.5039 67.7626 83.5039 69.06C83.5039 70.3573 83.7932 71.3606 84.3719 72.07C84.9599 72.7793 85.7765 73.134 86.8219 73.134ZM93.3378 74.072C93.1138 74.072 92.9271 74.002 92.7778 73.862C92.6284 73.7126 92.5538 73.5213 92.5538 73.288C92.5538 73.0546 92.6284 72.8633 92.7778 72.714C92.9271 72.5646 93.1138 72.49 93.3378 72.49C93.5524 72.49 93.7298 72.5646 93.8698 72.714C94.0191 72.8633 94.0938 73.0546 94.0938 73.288C94.0938 73.5213 94.0191 73.7126 93.8698 73.862C93.7298 74.002 93.5524 74.072 93.3378 74.072ZM96.537 74.072C96.313 74.072 96.1263 74.002 95.977 73.862C95.8277 73.7126 95.753 73.5213 95.753 73.288C95.753 73.0546 95.8277 72.8633 95.977 72.714C96.1263 72.5646 96.313 72.49 96.537 72.49C96.7517 72.49 96.929 72.5646 97.069 72.714C97.2183 72.8633 97.293 73.0546 97.293 73.288C97.293 73.5213 97.2183 73.7126 97.069 73.862C96.929 74.002 96.7517 74.072 96.537 74.072ZM99.7362 74.072C99.5122 74.072 99.3256 74.002 99.1762 73.862C99.0269 73.7126 98.9522 73.5213 98.9522 73.288C98.9522 73.0546 99.0269 72.8633 99.1762 72.714C99.3256 72.5646 99.5122 72.49 99.7362 72.49C99.9509 72.49 100.128 72.5646 100.268 72.714C100.418 72.8633 100.492 73.0546 100.492 73.288C100.492 73.5213 100.418 73.7126 100.268 73.862C100.128 74.002 99.9509 74.072 99.7362 74.072Z" fill="#DA368B" fill-opacity="0.8"/>
<path d="M119.998 119.158C119.946 119.156 119.894 119.156 119.841 119.154C120.036 118.287 120.091 117.432 120.062 116.53C120.039 115.793 120.369 115.168 120.376 114.455C120.379 114.161 120.362 113.865 120.357 113.572C120.331 111.874 120.317 110.175 120.303 108.477C120.267 103.994 120.243 99.511 120.174 95.0301C120.139 92.7423 119.898 90.5327 119.903 88.2449C119.91 83.667 119.913 79.0866 119.915 74.5087C119.917 72.5454 119.92 70.5797 119.922 68.6163C119.922 68.1071 119.92 67.598 119.922 67.0888C119.929 65.5399 119.615 63.901 119.813 62.3782C120.243 59.0815 119.996 55.6522 119.984 52.3318C119.967 47.8581 119.927 43.382 119.922 38.9082C119.922 38.3635 119.913 37.8164 119.927 37.2717C119.955 36.1681 119.751 35.2279 119.649 34.1313C119.501 32.5375 119.696 30.8181 119.72 29.2123C119.858 20.1322 119.848 11.0498 120.027 1.97202C120.032 1.70914 120.039 1.44626 120.046 1.18338C120.179 1.02233 120.198 0.572351 120.06 0.46104C120.027 0.143686 119.796 0.115266 119.732 0.425515C111.23 0.0655317 102.68 0.238418 94.171 0.141318C92.4796 0.122371 90.7859 0.105793 89.0945 0.0655317C88.25 0.0465852 87.4007 -0.0244642 86.5586 0.00869217C85.3644 0.0584267 84.244 0.337888 83.0427 0.309468C79.2864 0.22184 75.516 0.330783 71.7597 0.352097C67.6586 0.373412 63.5527 0.439725 59.4515 0.373412C58.7736 0.361571 58.1384 0.228945 57.4628 0.162632C56.0426 0.0252704 54.5582 0.344993 53.1238 0.342624C51.8083 0.340256 50.4904 0.344993 49.1749 0.344993C44.4647 0.342624 39.7546 0.344993 35.0444 0.342624C33.3578 0.342624 31.6736 0.342624 29.987 0.340256C28.9831 0.337888 28.0791 0.546299 27.1014 0.577087C23.124 0.704976 19.137 0.693134 15.1596 0.728659C12.9853 0.749974 10.811 0.747606 8.63672 0.790235C7.63046 0.81155 6.59566 0.918124 5.58703 0.875494C4.93522 0.847075 4.42376 0.560509 3.73865 0.581824C2.71812 0.612612 1.78323 0.605507 0.793625 0.382885C0.74129 0.172106 0.589043 0.148423 0.508162 0.326046C0.355915 0.337888 0.0204955 0.515511 0.170364 0.560509C0.265518 0.588929 0.360672 0.612612 0.455827 0.636295C0.0871036 9.16696 0.251245 17.7426 0.151333 26.2804C0.132302 27.9832 0.113271 29.686 0.0728304 31.3865C0.0561784 32.1277 0.00384352 32.869 0.00622238 33.6103C0.0109801 34.8987 0.351157 36.116 0.315474 37.4067C0.210804 41.0326 0.327368 44.6751 0.34402 48.3033C0.363051 52.4692 0.42728 56.6398 0.351157 60.8056C0.339263 61.509 0.241729 62.1343 0.148954 62.84C-0.0437337 64.3321 0.272655 65.8738 0.256003 67.3801C0.241729 68.7205 0.241729 70.0586 0.239351 71.3991C0.227456 76.0884 0.22032 80.7752 0.210804 85.4645C0.206047 87.1413 0.203668 88.8204 0.196531 90.4972C0.191773 91.4611 0.398734 92.3681 0.42728 93.3226C0.550981 97.2563 0.529571 101.197 0.558118 105.131C0.57477 107.376 0.596179 109.621 0.605695 111.866C0.610452 112.811 0.705607 113.806 0.631862 114.749C0.579527 115.388 0.294064 115.895 0.30358 116.568C0.317853 117.652 0.296443 118.637 0.00146466 119.694C-0.0294605 119.803 0.439175 119.713 0.477236 119.575C0.496267 119.509 0.51054 119.443 0.527192 119.379C1.40499 119.594 2.27327 119.665 3.18676 119.649C3.93372 119.637 4.53319 119.98 5.24685 119.994C5.5561 120.002 5.87011 119.99 6.17936 119.992C7.86121 119.997 9.54069 120.002 11.2225 119.99C15.7233 119.964 20.2241 119.947 24.7249 119.888C25.7169 119.876 26.7232 119.907 27.7009 119.758C29.0235 119.554 30.3628 119.625 31.7045 119.63C36.3243 119.646 40.944 119.656 45.5637 119.67C47.5049 119.675 49.446 119.677 51.3872 119.689C51.8725 119.691 52.3601 119.696 52.8454 119.703C54.4298 119.727 56.0521 119.438 57.6174 119.639C61.0192 120.077 64.5375 119.852 67.9631 119.841C72.4258 119.826 76.8862 119.788 81.3489 119.791C81.8818 119.791 82.4146 119.784 82.9475 119.798C84.2059 119.833 85.3597 119.521 86.6086 119.497C88.1358 119.466 89.6821 119.578 91.2117 119.601C100.323 119.741 109.438 119.727 118.547 119.923C119.009 119.933 119.47 119.942 119.932 119.964C120.191 119.978 120.243 119.17 119.998 119.158ZM94.171 118.87C92.4796 118.851 90.7859 118.834 89.0945 118.794C88.25 118.775 87.4007 118.704 86.5586 118.737C85.3644 118.787 84.244 119.066 83.0427 119.038C79.2864 118.95 75.516 119.059 71.7597 119.08C67.6586 119.102 63.5527 119.168 59.4515 119.102C58.7736 119.09 58.1384 118.957 57.4628 118.891C56.0426 118.754 54.5582 119.073 53.1238 119.071C51.8083 119.068 50.4904 119.073 49.1749 119.073C44.4647 119.071 39.7546 119.073 35.0444 119.071C33.3578 119.071 31.6736 119.071 29.987 119.068C28.9831 119.066 28.0791 119.275 27.1014 119.305C23.124 119.431 19.1394 119.421 15.1596 119.457C12.9853 119.476 10.811 119.473 8.63672 119.518C7.63046 119.54 6.59566 119.646 5.58703 119.604C4.93522 119.575 4.42376 119.289 3.73865 119.31C2.65389 119.343 1.66429 119.334 0.603316 119.066C0.78173 118.23 0.834065 117.401 0.805519 116.532C0.78173 115.795 1.11239 115.17 1.11953 114.457C1.12191 114.164 1.10526 113.868 1.1005 113.574C1.07433 111.876 1.06006 110.178 1.04578 108.48C1.0101 103.997 0.986312 99.5133 0.917325 95.0325C0.881642 92.7447 0.641378 90.5351 0.646135 88.2473C0.653272 83.6693 0.655651 79.089 0.65803 74.5111C0.660408 72.5477 0.662787 70.582 0.665166 68.6187C0.665166 68.1095 0.662787 67.6003 0.665166 67.0911C0.672303 65.5423 0.358293 63.9034 0.555739 62.3806C0.986312 59.0839 0.738911 55.6546 0.727017 52.3342C0.710365 47.8604 0.669924 43.3843 0.665166 38.9106C0.665166 38.3659 0.655651 37.8188 0.669924 37.2741C0.69847 36.1705 0.493888 35.2302 0.391598 34.1337C0.244108 32.5398 0.439175 30.8204 0.462963 29.2147C0.603316 20.1322 0.5938 11.0498 0.774594 1.97202C0.78173 1.5552 0.791246 1.13601 0.807898 0.719186C1.59054 0.884968 2.37081 0.939439 3.18914 0.925229C3.9361 0.913387 4.53557 1.25679 5.24923 1.271C5.55848 1.27811 5.87249 1.26627 6.18174 1.26863C7.86359 1.27337 9.54307 1.27811 11.2249 1.26627C15.7257 1.24021 20.2265 1.22364 24.7273 1.16443C25.7193 1.15259 26.7256 1.18574 27.7033 1.03417C29.0259 0.830497 30.3652 0.901546 31.7069 0.906282C36.3266 0.922861 40.9464 0.932334 45.5661 0.946544C47.5073 0.95128 49.4484 0.953649 51.3896 0.96549C51.8749 0.967859 52.3625 0.972595 52.8478 0.9797C54.4321 1.00338 56.0545 0.714449 57.6198 0.915756C61.0216 1.35389 64.5399 1.1289 67.9655 1.11706C72.4282 1.10285 76.8886 1.06496 81.3513 1.06496C81.8842 1.06496 82.417 1.05785 82.9499 1.07206C84.2083 1.10759 85.3621 0.794972 86.611 0.771289C88.1382 0.740501 89.6844 0.851811 91.2141 0.875494C100.325 1.01522 109.441 1.00102 118.55 1.19758C118.928 1.20469 119.308 1.21416 119.687 1.22837C119.349 9.56483 119.501 17.9392 119.401 26.278C119.382 27.9808 119.363 29.6836 119.323 31.3841C119.306 32.1254 119.254 32.8667 119.256 33.6079C119.261 34.8963 119.601 36.1136 119.565 37.4043C119.461 41.0302 119.577 44.6727 119.594 48.3009C119.613 52.4668 119.677 56.6374 119.601 60.8033C119.589 61.5067 119.492 62.1319 119.399 62.8377C119.206 64.3297 119.522 65.8715 119.506 67.3777C119.492 68.7182 119.492 70.0563 119.489 71.3967C119.477 76.086 119.47 80.7729 119.461 85.4621C119.456 87.1389 119.453 88.818 119.446 90.4948C119.442 91.4587 119.649 92.3658 119.677 93.3202C119.801 97.254 119.779 101.195 119.808 105.129C119.825 107.374 119.846 109.619 119.856 111.864C119.86 112.809 119.955 113.804 119.882 114.746C119.829 115.386 119.544 115.893 119.553 116.565C119.565 117.456 119.551 118.28 119.382 119.13C110.999 118.799 102.566 118.964 94.171 118.87Z" fill="#DA368B"/>
</svg>
