<svg width="986" height="685" viewBox="0 0 986 685" fill="none" xmlns="http://www.w3.org/2000/svg">
    <path d="M674.57 253.872C666.434 259.207 656.983 261.152 648.433 265.769C639.403 270.664 635.612 280.194 627.477 285.529C626.035 286.362 604.729 291.641 602.728 289.285C601.796 288.226 627.607 258.003 629.872 256.376C638.073 250.045 649.038 248.502 656.789 240.835C665.26 232.752 670.944 223.725 681.14 217.52C689.894 212.146 697.068 207.366 703.028 198.818C710.597 188.063 715.662 179.074 727.402 171.658C735.916 166.423 744.021 162.701 751.429 155.551C755.887 151.062 759.828 146.233 765.08 142.563C769.988 139.41 775.624 138.071 780.533 134.918C787.467 130.276 794.154 123.543 800.017 117.603C819.772 98.5372 840.182 80.0504 859.798 60.7448C877.768 43.028 895.426 24.2148 915.499 8.47581C917.524 6.98761 915.817 -0.964479 913.792 0.523733C894.302 15.6071 876.848 33.6639 858.704 50.5237C837.026 70.7001 816.521 91.7958 795.637 112.791C792.825 115.691 790.013 118.591 787.34 121.731C779.727 129.637 770.108 132.957 761.805 139.666C751.717 147.724 743.936 157.004 732.641 163.526C725.431 167.689 718.702 171.574 713.252 178.231C710.236 181.888 707.875 186.124 705.136 190.259C699.212 199.425 693.174 204.507 683.939 210.158C672.782 216.919 666.816 223.236 658.314 232.932C649.711 243.007 636.408 244.941 626.735 253.718C617.885 261.701 607.563 272.129 601.333 282.429C599.519 285.392 597.056 290.006 598.75 293.496C601.449 299.28 608.214 296.012 613.303 295.947C625.062 295.223 628.769 292.763 636.448 283.862C646.938 272.059 662.854 270.212 673.999 258.989C674.858 258.812 676.733 252.623 674.57 253.872Z"
          fill="#DA368B"/>
    <path d="M676.059 258.119C679.947 258.747 681.918 262.716 685.361 264.24C688.804 265.763 692.205 264.438 694.26 261.336C694.944 260.303 695.353 258.79 693.671 259.761C693.19 260.039 692.95 260.177 692.469 260.455C692.229 260.594 691.988 260.732 691.886 261.111C691.544 261.628 691.405 261.388 691.886 261.111C692.229 260.594 692.229 260.594 691.129 260.909C690.889 261.048 690.75 260.809 690.51 260.947C690.132 260.847 689.753 260.746 688.996 260.545C685.313 259.16 683.341 255.191 679.213 254.701C678.18 254.021 675.062 258.056 676.059 258.119Z"
          fill="#DA368B"/>
    <path d="M706.336 225.636C703.705 231.624 704.27 237.043 703.393 243.295C701.976 253.051 696.905 259.809 691.15 267.6C685.635 275.254 681.67 283.927 679.219 293.003C677.825 298.914 676.132 308.191 681.029 313.344C687.651 320.374 697.397 312.832 701.921 307.347C705.622 302.657 707.772 296.946 710.44 291.576C714.441 283.52 719.62 278.615 725.826 272.159C732.615 265.047 736.099 256.651 745.647 252.097C750.111 249.839 754.99 248.299 759.316 245.801C782.802 233.199 787.223 215.325 789.39 190.772C789.66 189.02 785.268 192.513 785.376 194.366C786.394 213.888 778.836 229.104 762.253 238.679C755.043 242.841 745.97 244.888 739.175 249.768C732.139 254.788 727.796 263.361 721.553 269.199C716.957 273.449 713.599 277.622 710.589 283.51C706.209 291.465 702.702 303.704 693.599 307.364C686.491 311.148 684.039 307.457 686.52 296.768C682.92 288.312 684.103 280.926 690.033 273.991C692.977 269.099 697.092 265.127 700.414 260.336C709.048 248.649 704.751 236.765 710.355 224.272C710.698 223.756 706.883 224.362 706.336 225.636Z"
          fill="#DA368B"/>
    <path d="M697.417 308.988C699.491 312.579 699.227 316.562 701.059 320.292C702.478 323.303 704.821 325.142 706.822 327.498C711.341 332.55 712.766 337.793 715.602 343.816C718.163 349.36 722.465 350.707 726.646 345.739C734.529 336.081 731.937 306.615 717.9 304.504C717.143 304.303 713.4 306.145 714.433 306.825C721.806 311.825 723.85 317.029 725.593 325.599C726.116 328.17 726.777 330.98 726.82 333.828C726.766 339.286 723.071 346.207 719.544 338.987C717.158 334.299 716.527 329.876 713.179 325.743C711.316 323.627 709.111 322.027 707.248 319.911C704.316 316.497 702.964 312.489 700.169 309.315C699.412 309.113 697.279 308.749 697.417 308.988Z"
          fill="#DA368B"/>
    <path d="M725.136 309.264C725.532 303.289 723.044 298.98 722.1 293.46C721.33 288.797 721.937 284.297 720.308 279.811C720.134 278.954 715.67 281.212 716.018 282.926C717.545 287.791 716.217 292.707 717.846 297.193C719.337 301.439 721.512 304.652 721.801 309.593C721.939 309.832 724.931 310.02 725.136 309.264Z"
          fill="#DA368B"/>
    <path d="M727.085 342.612C735.035 344.725 740.652 336.694 741.871 329.925C742.718 325.287 741.81 320.384 739.701 316.176C738.283 313.164 734.31 306.839 730.597 307.068C729.6 307.005 725.688 310.221 726.998 311.38C730.79 314.617 734.546 317.237 736.691 322.063C738.975 327.128 740.25 340.437 730.822 338.539C729.446 338.376 725.95 342.31 727.085 342.612Z"
          fill="#DA368B"/>
    <path d="M737.177 311.249C736.239 307.96 737.296 304.796 737.356 301.569C737.103 297.246 734.898 295.647 735.745 291.008C736.964 284.239 738.94 277.672 737.786 270.677C737.648 270.438 737.51 270.199 737.269 270.337C736.41 270.514 735.653 270.313 734.794 270.49C734.553 270.629 733.556 270.566 733.694 270.805C733.983 275.746 734.031 280.825 733.461 285.943C732.819 289.825 730.938 293.783 730.914 297.627C730.65 301.61 732.537 299.883 733.307 304.546C733.829 307.116 733.079 309.146 734.118 312.057C734.016 312.435 737.351 312.106 737.177 311.249Z"
          fill="#DA368B"/>
    <path d="M731.016 271.713C732.398 274.107 735.114 273.816 737.313 273.185C741.369 272.439 745.287 271.454 749.03 269.612C749.51 269.335 752.358 267.052 750.742 267.028C748.128 266.941 745.346 268.228 742.907 268.998C740.708 269.629 736.863 271.849 735.102 269.354C734.549 268.397 730.463 270.756 731.016 271.713Z"
          fill="#DA368B"/>
    <path d="M741.96 274.018C742.297 284.038 743.494 293.881 749.088 302.461C752.231 307.35 761.312 320.302 768.36 319.744C772.692 319.477 775.497 314.346 776.278 310.703C778.657 300.392 766.681 297.411 761.814 290.645C761.261 289.688 757.181 294.277 758.389 295.814C761.22 299.607 764.969 299.996 768.484 302.754C772.793 306.332 773.677 315.078 765.997 311.213C752.67 304.224 747.459 285.207 746.322 272.138C746.147 271.281 741.887 272.783 741.96 274.018Z"
          fill="#DA368B"/>
    <path d="M767.048 293.049C767.041 290.818 766.038 288.525 764.451 286.887C763.796 286.307 763.141 285.728 762.625 285.388C761.213 284.607 760.251 285.162 758.911 285.617C758.671 285.755 756.712 286.248 757.127 286.966C758.094 288.642 760.089 288.767 761.297 290.304C762.367 291.602 762.956 293.177 763.166 294.651C763.064 295.03 767.12 294.284 767.048 293.049Z"
          fill="#DA368B"/>
    <path d="M762.006 285.426C762.823 282.401 763.639 279.376 764.078 276.25C764.45 274.12 765.573 269.96 764.227 268.183C763.951 267.705 762.749 268.398 762.509 268.537C761.307 269.231 760.724 269.887 759.661 270.82C758.598 271.753 759.595 271.815 760.454 271.639C761.313 271.462 762.996 270.49 763.44 269.595C763.542 269.217 763.542 269.217 763.645 268.839C762.341 269.911 760.899 270.744 759.595 271.815C760.869 272.357 759.475 278.269 759.169 279.403C758.593 282.29 757.878 284.937 757.163 287.584C756.959 288.34 759.02 287.469 759.02 287.469C760.738 287.116 761.801 286.183 762.006 285.426Z"
          fill="#DA368B"/>
    <path d="M760.175 271.16C767.53 269.468 773.646 267.851 778.651 262.089C781.084 259.088 781.733 257.437 783.271 253.995C786.347 247.112 789.327 242.838 794.848 237.416C800.267 232.372 801.631 228.073 804.845 221.43C808.744 213.752 817.522 204.535 808.388 197.04C807.354 196.36 804.23 198.164 804.609 198.264C814.77 204.208 803.529 218.04 799.936 224.583C795.418 232.299 789.963 236.725 784.478 242.765C783.312 244.076 782.285 245.627 781.257 247.178C780.23 248.729 780.717 250.682 779.93 252.094C775.382 261.423 770.269 265.332 760.686 269.269C759.863 270.064 757.976 271.791 760.175 271.16Z"
          fill="#DA368B"/>
    <path d="M810.601 200.869C816.951 196.883 827.821 197.949 834.899 195.778C841.737 193.745 846.543 190.97 852.515 186.884C865.8 178.257 878.946 169.39 892.921 161.96C908.236 154.075 923.173 146.09 937.659 136.769C951.664 127.725 968.902 118.73 979.32 105.693C979.32 105.693 981.477 102.213 979.999 102.428C964.533 105.612 949.506 118.437 936.084 126.825C921.219 136.045 906.217 145.026 890.559 153.428C878.747 159.61 867.625 166.988 856.504 174.366C841.093 184.86 823.951 191.246 807.849 200.543C806.166 201.514 809.88 201.285 810.601 200.869Z"
          fill="#DA368B"/>
    <path d="M249.979 472.895C259.659 479.117 270.06 484.922 281.825 486.429C293.59 487.935 303.174 483.998 313.995 479.985C327.977 474.786 342.007 474.666 356.422 476.877C365.951 478.397 380.313 486.066 389.728 483.503C400.243 480.624 401.852 465.65 396.293 457.688C390.873 449.964 380.724 448.482 372.125 448.02C353.931 447.033 334.878 446.223 325.473 427.712C324.229 425.558 321.255 432.063 322.601 433.839C331.471 445.317 341.674 454.109 356.57 456.043C365.583 457.223 376.717 454.307 385.153 458.374C393.59 462.44 391.944 476.797 382.349 476.272C378.737 476.123 374.261 473.919 370.752 473.391C354.066 470.576 336.935 468.656 320.616 474.247C307.457 478.652 297.363 484.48 283.225 482.748C272.596 481.543 262.164 477.351 252.454 472.743C252.178 472.264 249.083 472.454 249.979 472.895Z"
          fill="#DA368B"/>
    <path d="M366.613 481.207C365.568 488.832 366.831 497.679 376.697 496.452C379.413 496.161 382.092 495.252 383.702 493.046C385.757 489.944 385.606 485.243 385.288 481.916C385.215 480.681 380.992 482.8 381.064 484.035C381.208 486.506 381.112 489.115 380.638 491.623C380.266 493.753 380.71 492.858 379.37 493.313C378.271 493.628 376.895 493.465 375.759 493.163C369.943 491.414 370.303 484.822 371.011 479.944C370.699 478.848 366.781 479.833 366.613 481.207Z"
          fill="#DA368B"/>
    <path d="M382.277 449.501C382.727 438.07 363.889 428.198 353.44 430.08C351.962 430.295 349.054 435.805 351.049 435.93C356.793 436.444 361.919 436.996 367.291 439.64C369.598 440.861 371.906 442.083 373.871 443.821C376.214 445.66 377.356 448.193 380.144 449.137C380.421 449.616 382.175 449.88 382.277 449.501Z"
          fill="#DA368B"/>
    <path d="M376.092 439.345C380.184 439.217 380.917 443.263 383.88 445.064C385.947 446.424 387.942 446.549 390.315 446.775C398.469 448.132 398.787 451.459 403.721 457.229C406.93 461.122 424.356 470.214 426.464 461.655L426.188 461.176C422.006 466.144 410.114 456.092 407.698 453.018C404.868 449.225 403.72 444.462 398.901 442.775C396.87 442.033 395.049 442.764 392.916 442.4C389.786 441.973 387.995 441.092 385.411 439.391C382.827 437.691 381.896 436.633 378.94 437.063C377.978 437.618 374.097 439.22 376.092 439.345Z"
          fill="#DA368B"/>
    <path d="M361.316 430.959C361.514 427.972 363.641 426.106 364.734 423.559C365.281 422.286 365.347 421.29 365.136 419.816C365.202 418.82 364.301 416.149 365.124 415.354C366.085 414.799 364.09 414.674 364.09 414.674C363.471 414.712 361.993 414.927 361.549 415.822C360.762 417.234 360.317 418.129 360.666 419.843C360.876 421.318 361.327 422.653 360.918 424.166C359.963 426.952 357.596 428.957 357.398 431.944C357.434 432.562 361.388 432.194 361.316 430.959Z"
          fill="#DA368B"/>
    <path d="M425.942 446.316C427.011 447.613 432.528 452.728 432.498 454.341C432.161 457.089 428.033 456.599 426.519 456.197C424.627 455.693 422.836 454.812 421.286 453.792C415.601 450.051 411.322 444.861 408.726 438.699C408.275 437.363 404.022 441.096 404.472 442.432C408.211 451.126 416.593 460.651 426.976 459.763C430.071 459.573 433.712 458.109 435.803 455.625C439.059 451.83 431.962 447.308 429.583 444.852C428.928 444.272 425.527 445.597 425.942 446.316Z"
          fill="#DA368B"/>
    <path d="M409.381 439.279C405.523 437.038 401.425 434.935 398.048 432.416C396.221 430.917 394.533 429.657 392.706 428.158C391.258 426.76 390.29 425.084 388.019 424.48C387.64 424.379 384.065 424.848 384.378 425.944C387.563 433.681 397.724 439.625 405.295 441.638C406.293 441.7 410.276 439.72 409.381 439.279Z"
          fill="#DA368B"/>
    <path d="M386.573 425.312C385.54 424.632 384.542 424.569 383.202 425.023C380.625 425.554 378.768 425.668 376.563 424.069C373.048 421.31 371.317 417.202 368.144 413.927C367.351 413.108 363.607 414.95 364.022 415.668C365.717 419.158 368.445 423.329 371.582 425.987C372.892 427.146 374.544 427.788 376.299 428.052C378.053 428.315 381.316 426.751 382.59 427.292C383.623 427.972 387.228 425.891 386.573 425.312Z"
          fill="#DA368B"/>
    <path d="M363.135 417.459C371.361 420.052 379.641 417.187 386.989 413.264C388.912 412.153 389.133 405.322 387.691 406.155C380.722 410.179 374.545 415.021 366.362 415.277C365.743 415.316 362.378 417.258 363.135 417.459Z"
          fill="#DA368B"/>
    <path d="M386.13 413.441C391.952 417.421 401.795 420.038 407.695 414.716C408.037 414.199 410.777 410.064 409.16 410.04C407.304 410.154 405.862 410.987 404.522 411.441C402.803 411.795 401.085 412.148 399.469 412.124C396.134 412.453 393.382 412.127 390.215 411.082C389.08 410.78 385.096 412.761 386.13 413.441Z"
          fill="#DA368B"/>
    <path d="M406.251 415.549C414.538 427.682 431.441 434.202 444.376 423.861C445.68 422.789 446.875 419.865 446.527 418.151C443.924 409.758 433.391 405.944 426.775 401.145C420.159 396.346 413.219 398.757 405.985 393.996C396.166 387.535 390.073 385.308 377.593 386.448C366.832 387.234 356.287 391.726 345.82 386.917C344.408 386.136 340.707 390.827 342.119 391.607C359.515 402.312 381.3 383.988 398.528 396.067C402.284 398.687 404.495 402.517 408.936 404.103C413.376 405.689 417.324 403.091 421.458 405.811C424.42 407.612 425.838 410.624 428.561 412.563C434.005 416.443 440.434 415.923 442.724 423.219C443.475 421.19 444.364 419.399 445.115 417.37C432.371 422.493 419.374 423.293 409.711 410.997C409.537 410.14 405.421 414.112 406.251 415.549Z"
          fill="#DA368B"/>
    <path d="M431.13 445.873C426.196 440.103 425.625 432.452 421.55 426.506C417.716 420.42 409.184 418.962 406.552 412.182C406.101 410.847 401.949 414.201 402.262 415.298C404.552 422.594 411.017 422.692 415.776 427.605C421.329 433.337 421.353 442.26 426.804 448.37C427.976 449.29 431.785 446.452 431.13 445.873Z"
          fill="#DA368B"/>
    <path d="M347.274 390.545C335.724 379.976 328.442 382.904 315.188 389.918C299.872 397.803 285.644 400.91 268.94 404.17C247.941 408.314 218.181 415.6 207.301 435.608C206.273 437.158 206.22 442.616 208.617 438.997C216.355 426.869 232.884 422.752 246.043 418.347C256.383 414.612 266.694 412.489 277.521 410.707C287.111 409.001 295.463 407.371 304.151 402.993C316.342 396.912 328.893 384.24 343.326 393.143C344.083 393.345 347.79 390.885 347.274 390.545Z"
          fill="#DA368B"/>
    <path d="M208.229 434.436C195.733 454.419 178.201 469.01 161.535 485.655C146.515 500.711 133.562 517.127 119.335 533.002C104.423 549.91 88.4051 564.904 69.3528 576.861C54.969 585.804 38.3499 594.761 34.7884 612.458C34.5841 613.214 34.5243 616.441 36.3088 615.091C43.5125 608.698 47.8921 600.743 55.9912 594.79C64.8113 588.421 74.3225 583.249 83.1426 576.88C100.062 564.558 113.91 548.582 127.38 532.506C155.347 498.803 187.797 469.534 212.249 433.073C212.934 432.039 208.914 433.402 208.229 434.436Z"
          fill="#DA368B"/>
    <path d="M259.048 481.384C244.611 495.785 240.016 512.802 231.744 530.665C225.658 543.436 216.784 555.262 208.77 566.912C184.384 602.378 160.377 637.944 140.882 676.332C139.891 678.5 142.836 686.376 144.272 683.312C164.109 644.408 188.699 608.186 211.12 570.982C219.164 557.719 228.206 544.518 234.7 530.235C242.972 512.372 248.288 494.938 262.623 480.916C263.585 480.361 259.872 480.59 259.048 481.384Z"
          fill="#DA368B"/>
</svg>
