<svg fill="none" height="39" viewBox="0 0 58 39" width="58" xmlns="http://www.w3.org/2000/svg"
>
    <clipPath id="a">
        <path d="m0 0h58v39h-58z"/>
    </clipPath>
    <g clip-path="url(#a)">
        <g fill="#000">
            <path d="m17.1905 26.2884c-.0238.032-.0476.064-.0794.0879-.0317.032-.0635.056-.1032.0799-.0396.024-.0873.04-.1349.056-.0476.0159-.1032.0159-.1587.0159-.0953 0-.1826-.0159-.2619-.0479-.0794-.032-.1508-.0799-.2064-.1358-.0555-.056-.1031-.1279-.1349-.2078-.0317-.0799-.0476-.1678-.0476-.2716 0-.0959.0159-.1838.0476-.2717.0318-.0799.0794-.1518.1349-.2077.0556-.056.127-.1039.2064-.1359.0793-.0319.1666-.0479.2619-.0479.0476 0 .0952.008.1349.016.0476.008.0873.0239.127.0399s.0714.04.1032.0639c.0317.024.0555.056.0793.0799l-.1031.0799c-.0159-.0239-.0318-.0399-.0556-.0639s-.0476-.0399-.0794-.0559c-.0317-.016-.0635-.032-.0952-.04s-.0714-.0159-.1111-.0159c-.0794 0-.1587.0159-.2222.0479s-.1191.0719-.1667.1198c-.0476.048-.0794.1119-.1032.1758-.0238.064-.0397.1359-.0397.2078s.0159.1438.0397.2077.0556.1279.1032.1758.1032.0879.1667.1199c.0635.0319.1349.0479.2222.0479.0714 0 .1428-.016.2063-.0479.0635-.032.1191-.0799.1667-.1439z"/>
            <path d="m17.7222 26.4954h-.127v-1.2704h.3731c.0635 0 .119.008.1746.016.0555.0079.0952.0319.1349.0559s.0714.0639.0873.1039c.0238.0399.0317.0958.0317.1598 0 .0479-.0079.0879-.0238.1278-.0158.04-.0397.0719-.0714.0959-.0318.032-.0635.0479-.1032.0639s-.0793.024-.127.032l.3731.6072h-.1588l-.3492-.5912h-.2143zm0-.7111h.2223c.1031 0 .1825-.016.238-.0559.0556-.04.0873-.0959.0873-.1678 0-.04-.0079-.0799-.0238-.1039-.0158-.032-.0396-.0559-.0635-.0719-.0238-.016-.0634-.032-.1031-.04s-.0794-.016-.127-.016h-.2302z"/>
            <path d="m18.9683 26.3756h.6746v.1119h-.8016v-1.2705h.7857v.1119h-.6587v.4395h.6111v.1118h-.6111z"/>
            <path d="m20.0714 26.4954h-.1428l.5476-1.2704h.127l.5397 1.2704h-.1429l-.1429-.3356h-.6507zm.1826-.4554h.5555l-.2778-.6792z"/>
            <path d="m21.8016 26.4954h-.127v-1.1586h-.4206v-.1118h.9682v.1118h-.4206z"/>
            <path d="m22.7222 26.4954h-.127v-1.2704h.127z"/>
            <path d="m23.627 26.3276.4127-1.1026h.1349l-.4841 1.2704h-.1349l-.4842-1.2704h.1429z"/>
            <path d="m24.6587 26.3756h.6746v.1119h-.8095v-1.2705h.7857v.1119h-.6587v.4395h.6111v.1118h-.6111v.4954z"/>
            <path d="m26.5159 26.4954h-.127v-1.2704h.7619v.1118h-.6349v.4395h.5873v.1119h-.5873z"/>
            <path d="m28.8175 25.8562c0 .0959-.0159.1837-.0477.2716-.0317.0799-.0793.1519-.1349.2078-.0555.0559-.127.1039-.2063.1358-.0794.032-.1667.048-.2619.048-.0953 0-.1826-.016-.2619-.048-.0794-.0319-.1508-.0799-.2064-.1358-.0555-.0559-.1032-.1279-.1349-.2078-.0318-.0799-.0476-.1678-.0476-.2716 0-.0959.0158-.1838.0476-.2717.0317-.0799.0794-.1518.1349-.2077.0556-.056.127-.1039.2064-.1359.0793-.0319.1666-.0479.2619-.0479.0952 0 .1825.016.2619.0479.0793.032.1508.0799.2063.1359.0556.0559.1032.1278.1349.2077.0318.0879.0477.1758.0477.2717zm-.135 0c0-.0719-.0158-.1438-.0396-.2078-.0239-.0639-.0556-.1278-.1032-.1758-.0476-.0479-.1032-.0878-.1667-.1198s-.1349-.0479-.2222-.0479-.1508.0159-.2222.0479c-.0635.032-.1191.0719-.1667.1198-.0476.048-.0794.1119-.1032.1758-.0238.064-.0397.1359-.0397.2078s.008.1438.0397.2077c.0238.0639.0556.1279.1032.1758s.1032.0879.1667.1199c.0635.0319.1349.0479.2222.0479s.1508-.016.2222-.0479c.0635-.032.1191-.072.1667-.1199s.0793-.1119.1032-.1758c.0238-.0639.0396-.1358.0396-.2077z"/>
            <path d="m29.7302 26.5274c-.0953 0-.1746-.016-.2302-.0479-.0635-.032-.1111-.0719-.1429-.1279-.0396-.0479-.0635-.1038-.0714-.1678-.0159-.0559-.0238-.1118-.0238-.1677v-.7991h.127v.7831c0 .0479.0079.1038.0159.1518.0158.0479.0317.0879.0555.1278.0238.04.0635.0719.1032.0879s.0952.032.1587.032.1191-.008.1588-.032c.0396-.0239.0793-.0559.1031-.0879.0238-.0399.0476-.0799.0556-.1278.0079-.048.0159-.0959.0159-.1518v-.7831h.1269v.7991c0 .0559-.0079.1118-.0238.1677-.0158.056-.0397.1119-.0714.1678-.0317.056-.0873.0959-.1429.1279-.0396.0319-.119.0479-.2142.0479z"/>
            <path d="m31.6032 26.3037v-1.0867h.127v1.2705h-.1588l-.7381-1.0947v1.0947h-.127v-1.2705h.1588z"/>
            <path d="m32.254 25.217h.4206c.0794 0 .1587.016.2381.04s.1508.0639.2143.1198c.0635.056.119.1199.1508.1998.0397.0799.0555.1758.0555.2797 0 .1038-.0158.1997-.0555.2796s-.0873.1438-.1508.1998c-.0635.0559-.1349.0958-.2143.1198s-.1587.04-.2381.04h-.4206zm.127 1.1586h.2539c.0953 0 .1746-.016.2461-.0479.0714-.032.1269-.0719.1746-.1199.0476-.0479.0793-.1038.1031-.1678.0238-.0639.0318-.1278.0318-.1917 0-.064-.008-.1279-.0318-.1918s-.0555-.1199-.1031-.1678c-.0477-.0479-.1032-.0879-.1746-.1198-.0715-.032-.1508-.048-.2461-.048h-.2539z"/>
            <path d="m33.7302 26.4954h-.1429l.5476-1.2704h.127l.5397 1.2704h-.1429l-.1428-.3356h-.6508zm.1825-.4554h.5555l-.2777-.6792z"/>
            <path d="m35.4683 26.4954h-.127v-1.1586h-.4207v-.1118h.9762v.1118h-.4206v1.1586z"/>
            <path d="m36.3889 26.4954h-.127v-1.2704h.127z"/>
            <path d="m38.1508 25.8562c0 .0959-.0159.1837-.0476.2716-.0318.0799-.0794.1519-.1349.2078-.0556.0559-.127.1039-.2064.1358-.0794.032-.1667.048-.2619.048s-.1825-.016-.2619-.048c-.0794-.0319-.1508-.0799-.2064-.1358-.0555-.0559-.1031-.1279-.1349-.2078-.0317-.0799-.0476-.1678-.0476-.2716 0-.0959.0159-.1838.0476-.2717.0318-.0799.0794-.1518.1349-.2077.0556-.056.127-.1039.2064-.1359.0794-.0319.1667-.0479.2619-.0479s.1825.016.2619.0479c.0794.032.1508.0799.2064.1359.0555.0559.1031.1278.1349.2077.0317.0879.0476.1758.0476.2717zm-.1349 0c0-.0719-.0159-.1438-.0397-.2078-.0238-.0639-.0556-.1278-.1032-.1758-.0476-.0479-.1032-.0878-.1667-.1198-.0634-.032-.1349-.0479-.2222-.0479s-.1508.0159-.2222.0479c-.0635.032-.119.0719-.1667.1198-.0476.048-.0793.1119-.1031.1758-.0239.064-.0397.1359-.0397.2078s.0079.1438.0397.2077c.0238.0639.0555.1279.1031.1758.0477.0479.1032.0879.1667.1199.0635.0319.1349.0479.2222.0479s.1508-.016.2222-.0479c.0635-.032.1191-.072.1667-.1199s.0794-.1119.1032-.1758.0397-.1358.0397-.2077z"/>
            <path d="m39.4921 26.3037v-1.0867h.127v1.2705h-.1588l-.7381-1.0947v1.0947h-.127v-1.2705h.1588z"/>
            <path d="m12.1032 17.9227 1.4047 3.7953-.3254.847h-.1031c-.9365-2.2692-1.8492-4.7622-1.8492-4.7622-.2143-.5513-.4604-.5593-.7223-.5593v-.1039h2.0477v.1039c-.627 0-.4683.6233-.4524.6792zm1.8968-.7831h1.8968v.1039c-.5079 0-.6905-.008-1.3809 1.8378l-.0953-.032c.2381-.7191.6826-1.8138-.4206-1.8138z"/>
            <path d="m18.3333 17.1389v.1039c-.3254 0-.5317.1278-.5317.6072v3.8913c0 .5273.2143.7271.5317.7271v.1038h-1.8571v-.1038c.3254 0 .5317-.1998.5317-.7271v-3.8913c0-.4794-.1984-.6072-.5317-.6072v-.1039z"/>
            <path d="m20.4206 17.922 1.4048 3.7953-.3254.8469h-.1032c-.9365-2.2692-1.8492-4.7621-1.8492-4.7621-.2143-.5513-.4603-.5593-.7222-.5593v-.1039h2.0476v.1039c-.627 0-.4762.6232-.4524.6792zm1.8889-.7831h1.8968v.1039c-.5079 0-.6904-.008-1.3809 1.8377l-.0952-.0319c.2381-.7191.6825-1.8138-.4207-1.8138z"/>
            <path d="m25.8333 22.5642h-1.1904v-.1039c.3174 0 .4047-.2797.4047-.799v-3.6995c0-.4794-.0714-.7271-.4047-.7271v-.1038h1.1904zm.5953-5.3135v-.1039h1.9523v1.3903h-.1031c-.0635-1.1266-1.0238-1.2624-1.8492-1.2864zm0 2.6368v-.1119c.3809-.016.9206-.0959.9682-.7671h.1032v1.654h-.1032c-.0476-.6791-.5952-.7591-.9682-.775zm2.0476 2.6767h-2.0476v-.1039c.8492-.024 1.8174-.1598 1.9523-1.4942h.1032v1.5981z"/>
            <path d="m35.5952 22.4684v.1038h-1.746v-.1038c.4127 0 .3333-.4395.1508-.871l-.2619-.6711h-1.9841c-.2143.6152-.5397 1.574.5238 1.5421v.1038h-1.7064v-.1038c.2857-.008.4683-.048 1.0715-1.638h2.0555l-1.0635-2.7167.3572-.9588h.0793c.9445 2.2612 1.8889 4.6982 1.8889 4.6982.254.6073.4207.5993.6349.6153z"/>
            <path d="m37.1905 21.7652c0 .5353.1746.7031.5.7031v.1039h-1.7143v-.1039c.3254 0 .4762-.1518.4762-.799v-3.8353c0-.4794-.1349-.5833-.4762-.5833v-.1038h1.2143zm3.4365.7031v.1039h-.5794c-.9841 0-.8651-.008-1.3095-1.678-.1508-.6072-.6349-.751-.9524-.791v-.1198c.6825-.024 1.1667-.1838 1.1667-1.3584 0-1.1905-.508-1.3503-1.1667-1.3743v-.0959c1.2857.032 2.0159.2877 2.0159 1.4622 0 1.0468-.6032 1.3584-1.4207 1.4063.508.024 1.0715.0719 1.4207 1.7658.1508.5833.627.6632.8254.6792z"/>
            <path d="m45.381 17.1389v1.3583h-.1032c-.0318-1.2384-1.3095-1.2544-1.4127-1.2544h-.4524v4.5784c0 .5113.2381.6472.5556.6472v.1038h-1.8651v-.1038c.3174 0 .5476-.1359.5476-.6472v-4.5784h-.4524c-.2381 0-1.3809.016-1.4047 1.2544h-.1032v-1.3583z"/>
        </g>
        <path d="m1.19048 38.6724c-1.515877-1.2225-.04762-5.673-.12699-7.7025 0-.1758.2381-2.9005-.198411-4.2029-.357143-1.2225-.460317-4.1229-.039682-6.8475.682543-4.5065 1.103173-9.1088.682543-13.6792 0-.31161 0-.60725 0-.89489 0-.38353 0-.7351 0-1.0627 0-.32759-.31746-1.11063-.31746-1.39029-.269845-2.788563 1.56349-2.325134 4.34127-2.748612h.81746.88095.52381c3.00793.119852 6.60313-.47142 7.90473.151813.4207.311616.1746 1.430239.2064 2.069449.2778 6.20037-3.0794 7.79043-5.98415 14.11063-1.36508 3.0203-4.56349 6.0725-5.95238 6.4321-.3254 2.5728 1.48413 5.6171 1.97619 6.9195.1508.6392-.5.9508-1.02381 2.3571-.36508.9668.27778.8949-.19841 1.8457-.12698.2557-.30159.1998-.55556.783-.46031 1.0467.10318 1.4542-.11111 1.8138-.57143.9508-2.65873 2.1813-2.82539 2.0455z"
              fill="#da368b" opacity=".64"/>
        <g fill="#000" opacity=".8">
            <path d="m.825402.351525c.079365 1.542105-.103175 3.044255-.198413 4.578365-.095238 1.51014.071429 3.01229.142857 4.51444.071429 1.49417.103175 2.98037.150794 4.47447.047619 1.5741.071429 3.1561-.134921 4.7222-.023809.1758.18254.3036.214291.0799.19841-1.4941.19047-2.9963.14285-4.5064-.04762-1.5421-.0873-3.0922-.166664-4.63433-.079366-1.52613-.261905-3.06024-.190477-4.58636.079365-1.55808.261901-3.0842.166667-4.650275-.007936-.103872-.126984-.103872-.126984.00799z"
                  opacity=".8"/>
            <path d="m.968247.343562c.253963.127843.507933.223725.793653.255686.30158.03995.68254-.095882.96031.071911.15873.095882.19048.167794.38096.159803.24603-.01598.46825-.143823.69047-.239705.31746-.127842.6508-.087891.98413-.071911.33333.00799.65873.02397.99206.02397.34127.007991.65873-.03196 1-.087891.37302-.063922.66667.01598 1.02381.103872.59524.143823 1.23016.00799 1.83334.039951.23809.00799.40472-.031961.62702-.103873.3333-.119852.6428-.143823.992-.127842 1.3572.063921 2.7143.207744 4.0715.319606.1269.007991.1269-.279655-.008-.295636-1.3095-.095882-2.627-.215734-3.9365-.303626-.3095-.0159803-.619-.0319607-.9206.047941-.2381.063921-.4445.183774-.6905.191764-.34127.00799-.67461-.031961-1.01588-.00799-.36508.02397-.69841.03196-1.05555-.063922-.27778-.071911-.5-.127842-.79365-.087891-.30953.055931-.60318.127842-.92064.127842-.63492.00799-1.32539-.119852-1.95238-.02397-.21428.03196-.39682.159803-.60317.239705-.18254.063921-.38096.119852-.56349.03196-.07937-.03995-.13493-.119852-.22223-.151813-.19841-.063921-.4127-.00799-.61904 0-.34921.00799-.69048-.071911-1.023814-.223724-.079365-.031961-.087301.143823-.023809.175783z"
                  opacity=".8"/>
            <path d="m10.6111 1.60593c-.246 2.74861-.73808 5.44929-1.46824 8.11002-.36508 1.35035-.7381 2.68465-1.35714 3.93915-.5635 1.1506-1.34921 2.1573-1.92858 3.2999-.27777.5434-.53968 1.0627-.96825 1.4942-.61111.6072-1.23016 1.2225-1.84127 1.8297-.13492.1359-.00794.5833.16667.4075.9127-.9268 2-1.7898 2.60317-2.9483.27778-.5274.51588-1.0787.83334-1.5821.37301-.5913.7619-1.1665 1.0873-1.7898.64285-1.2305 1.04762-2.5249 1.38889-3.8752.34126-1.33437.65079-2.67671.90471-4.03504.2937-1.59804.5159-3.20406.6508-4.82606 0-.05593-.0714-.09589-.0714-.02397z"
                  opacity=".8"/>
            <path d="m8.96033 1.18251c-.24603 2.6767-.65873 5.33743-1.38096 7.92624-.35714 1.27045-.76984 2.51695-1.21428 3.75535-.22222.6233-.44445 1.2625-.75397 1.8458-.30952.5832-.7619 1.0626-1.14286 1.598-.80952 1.1346-1.35714 2.437-1.90476 3.7154-.07143.1678.12699.4235.22222.1918.51588-1.2065 1.03969-2.429 1.78572-3.5157.37301-.5353.82539-1.0147 1.15079-1.59.30159-.5354.50794-1.1266.72222-1.7099.89683-2.485 1.52381-5.0578 1.99207-7.65461.26984-1.50215.47619-3.01229.59524-4.53042.00793-.06392-.0635-.10387-.07143-.03196z"
                  opacity=".8"/>
            <path d="m4.57143 1.02268c-.69047 3.01229-1.18253 6.07252-1.38888 9.16472-.10318 1.5421-.30953 3.0443-.5635 4.5704-.25396 1.5021-.34127 3.0123-.23015 4.5384.01587.2477.27777.2477.2619-.008-.09524-1.5421-.00794-3.0602.24603-4.5864.24603-1.5101.42064-2.9963.51587-4.5304.19048-3.06821.57937-6.12045 1.21429-9.12475.00794-.047943-.04762-.079904-.05556-.02397z"
                  opacity=".8"/>
            <path d="m2.43651 1.2944c.34127 1.52612.13492 3.07621-.15873 4.59434-.27777 1.41426-.53968 2.79656-.60317 4.24276-.13492 3.0283-.1508 6.0646-.21429 9.0928-.00793.2238.23016.2158.2381-.008.07936-3.0842.11111-6.1604.21428-9.24458.04762-1.51813.35715-2.98033.61111-4.4665.2381-1.41426.37302-2.8445.00794-4.25077-.03174-.08789-.11111-.03196-.09524.03995z"
                  opacity=".8"/>
            <path d="m13.0952.487457c.3016 1.645973-.3571 3.315923-1.1428 4.730173-.0476.09589.0476.25569.1111.11986.7063-1.56608 1.4682-3.12416 1.119-4.897974-.0158-.087891-.0952-.02397-.0873.047941z"
                  opacity=".8"/>
            <path d="m5.35714.687119c-.09524.623231-.19841 1.246461-.38095 1.853721-.15873.53534-.4127 1.02274-.62699 1.5421-.19841.47941-.2619.92686-.31746 1.43024-.05555.46343-.4365.83897-.38888 1.31039.01587.12784.15079.12784.14285 0-.03174-.31961.22223-.5673.30953-.84696.06349-.19176.07936-.39951.09523-.59926.04762-.5673.21429-1.05471.44445-1.56608.44444-1.00676.66667-1.99754.80159-3.09219.00793-.063922-.07143-.111863-.07937-.031961z"
                  opacity=".8"/>
            <path d="m11.4206.303698c-.2539.559311-.0873 1.134602-.0396 1.717882.0634.7351-.3493 1.35034-.4524 2.06946-.1032.75107-.0476 1.55808-.4286 2.24523-.2698.4874-.6746.8949-.71428 1.47818-.00794.12785.14285.22373.15079.06393.04762-.67118.61909-1.13461.84129-1.74186.2143-.59127.1984-1.23049.2698-1.85372.0715-.61524.4048-1.15857.4603-1.76583.0635-.7271-.3333-1.44622-.0396-2.157341.0238-.047941-.0239-.119853-.0477-.055931z"
                  opacity=".8"/>
            <path d="m.746029 18.7849c.166667.3675.428571.6871.833331.7111.06349.008.16667 0 .25397.024.09524.0239.14286.0719.24603.0799.02381 0 .34127-.0799.30953-.1119-.03175-.0399-.07937.1039-.09524.1278-.06349.1359-.06349.3117-.00794.4475.06349.1598.15873.1278.25397.2237.15079.1598.12698.5593.52381.4075-.03968-.016-.07143-.024-.11111-.0399.11111.1997-.07937.5513.28571.5753-.03174-.0959-.05555-.1918-.0873-.2877-.19048.3276-.09524.7431.26191.9029.15079.0639.19047-.2876.05555-.3436-.04762-.1118-.10317-.2157-.15079-.3276.04762-.0879.03968-.2796-.0873-.2876.01587 0-.09524-.4235-.12699-.4794-.02381-.04-.06349-.056-.11111-.04-.22222.0879-.1746-.1917-.23016-.2796-.04762-.0879-.14286-.0799-.18254-.1279-.1746-.2477.17461-.4954-.03174-.7351-.07143-.0799-.11905-.0639-.19842-.0639-.11111 0-.11111.1119-.27777.1039-.10318 0-.19842-.1119-.29365-.1438-.11905-.032-.17461.0239-.28572.0159-.26984-.0159-.48413-.2796-.61111-.5113-.079365-.1439-.174603.0719-.134921.1598z"
                  opacity=".8"/>
            <path d="m.793651 18.5451c-.277778.3915-.31746.8389-.293651 1.3024.031746.6711.079365 1.2864-.047619 1.9576-.119047.6551-.31746 1.2944-.4047616 1.9575-.0793651.5993-.0634921 1.2066.0079365 1.8058.1587301 1.4143.4444441 2.7886.4920631 4.2108.047619 1.3903-.007936 2.7806-.047619 4.1709-.039682 1.5581-.047619 3.1162.134921 4.6663.015873.1678.214286.1118.198413-.048-.285715-2.6447-.02381-5.2975-.047619-7.9502-.015873-1.2704-.119048-2.5329-.325397-3.7873-.119048-.6872-.238095-1.3663-.261905-2.0615-.02381-.6632.087302-1.3024.238095-1.9496.150794-.6552.309524-1.3184.309524-1.9975 0-.7032-.261905-1.4862.166667-2.1174.047619-.0799-.039683-.2797-.119048-.1598z"
                  opacity=".8"/>
            <path d="m3.03175 21.4536c-.0873.9268-.45238 1.8297-.40476 2.7726.02381.4235.1746.791.29365 1.1985.16667.5433.13492 1.1266.14286 1.6859.00793.7112-.1508 1.7339.37301 2.3172.21429.2317.50794.3436.81746.3915.24604.032 1.35715-.1278 1.36508.2397.00794.2077.20635.1918.21429-.008.03968-.799-.93651-.5353-1.42064-.5513-.53968-.016-.96825-.2557-1.09523-.815-.11111-.4794-.0635-1.0148-.07937-1.5022-.00793-.4314 0-.8629-.05555-1.2944-.0635-.4714-.29365-.8869-.38889-1.3503-.21429-1.0068.2619-2.0455.35714-3.0443.00794-.0879-.10317-.1598-.11905-.0399z"
                  opacity=".8"/>
            <path d="m3.51588 21.901c.38095.6552.38095 1.3983.5 2.1254.11111.6712.38095 1.2864.53175 1.9496.15079.6792.11904 1.3823.30952 2.0535.1746.6152.46032 1.2065.77778 1.7578.0873.1518.20635-.0879.15873-.1918-.3254-.6791-.68254-1.3263-.8254-2.0774-.12698-.6712-.12698-1.3503-.33333-2.0055-.21429-.6952-.44445-1.3504-.55556-2.0775-.0873-.5753-.18254-1.1426-.5-1.646-.04762-.0639-.09524.064-.06349.1119z"
                  opacity=".8"/>
            <path d="m5.64287 29.9632c.07142.3995-.36508.6472-.60318.8549-.19048.1678-.37302.3436-.53175.5434-.13492.1678-.25396.3435-.34127.5433-.10317.2397-.12698.5513-.3492.7111-.30953.2158-1.95238.6153-1.16667 1.3024.33333.2956.87302.1358 1.27778.1838.33333.0399.87302.2477 1.0873-.1358.16667-.3037-.02381-.815-.03175-1.1187-.00793-.5753-.0238-.9668-.28571-1.4861-.0873-.1758-.23016.0319-.16667.1598.12699.2556.25397.5113.27778.799.01587.1997-.00793.4075.00794.6072.00793.1758.05555.3436.07143.5114.02381.4075-.18254.4794-.50794.4475-.21429-.024-.42063-.0799-.64286-.0879-.19841-.008-.38889.0239-.5873.0159-.19841-.0159-.4127-.0239-.40476-.2636 0-.1918.10317-.2238.2619-.3117.19842-.1198.40477-.1997.61905-.2796.24603-.0959.42064-.1918.52381-.4475.1746-.4314.29365-.791.62699-1.1425.38095-.4075 1.15079-.7751.98412-1.4463-.04762-.1118-.13492-.0479-.11904.04z"
                  opacity=".8"/>
            <path d="m3.89682 33.9742c-.21428.1758-.42857.3835-.54762.6392-.02381.0559-.03174.1118-.05555.1678-.15873.3436-.2381.3515-.53175.4315-.37301.0958-1.09524.3275-1.22222.751-.11905.3915.46032.5034.71428.5593.37302.0719.67461.016 1.03175.1598.26984.1119.47619.1838.75397.064.11111-.048.07143-.3276-.05556-.2717-.42857.1838-.65873-.1838-1.05555-.1998-.34127-.0159-1.04762.0799-1.26191-.3036.00794.0559.01588.1119.01588.1758.07142-.2717.53174-.4714.77777-.5673.22223-.0879.48413-.1199.69048-.2557.14286-.0959.19048-.1918.25397-.3436.14286-.3595.28571-.5513.55555-.8309.0635-.056.02381-.2477-.06349-.1758z"
                  opacity=".8"/>
            <path d="m3.99207 36.6189c.34921-.2797.30159-.7112.26191-1.1187-.02381-.3036-.05556-.5992-.07937-.9028-.01587-.1838 0-.4315-.09524-.5993-.03968-.0639-.10317-.0479-.14285 0 0 .008-.00794.008-.00794.016-.03968.0559-.03968.1837.02381.2237 0 0 .00794 0 .00794.008.0873.0559.12698-.048.12698-.1199 0-.008 0-.008 0-.0159-.03174.0479-.06349.0958-.0873.1438-.10317.008.03968.8389.04762.9029.05555.4234.21428.9748-.10318 1.3343-.03968.04-.02381.1758.04762.1279z"
                  opacity=".8"/>
            <path d="m3.69842 36.563c-.2619.0559-.54762.1119-.73016.3276-.1746.1997-.12698.6072-.36508.7351-.27777.1438-.63492.0959-.92063.2157-.27778.1119-.61905.6952-.928573.5274-.126984-.0639-.190476.2716-.047619.3036.253968.0559.428572-.032.611112-.2237.30159-.3276.61111-.3756 1.03175-.4714.19047-.048.4365-.1039.55555-.2717.06349-.0959.05556-.1678.07143-.2717.09524-.4235.33333-.5193.72222-.6152.11111-.024.10318-.2717 0-.2557z"
                  opacity=".8"/>
            <path d="m2.6508 33.4629c-.6508-2.0056-.35715-4.123-.50794-6.1844-.07143-1.0307-.3492-2.0455-.37301-3.0762-.02381-1.0627.20634-2.1014.61904-3.0762.05556-.1279-.09524-.3356-.1746-.1518-.40476.9348-.61111 1.9336-.61905 2.9483-.00793 1.1346.30159 2.2373.39683 3.3559.1746 2.1014-.10318 4.2428.56349 6.2803.03175.1198.11905-.016.09524-.0959z"
                  opacity=".8"/>
            <path d="m.999996 22.7879c-.063492.2477-.15873.4475-.190476.7031-.031746.2557-.047619.5114-.055556.7671-.015873.5433.031747 1.0947.087302 1.638.119048 1.1426.293654 2.2852.428574 3.4278.07143.6232.15079 1.2464.11905 1.8777-.02381.5912-.19048 1.1585-.26191 1.7418-.11905 1.0547.19841 2.1334.34921 3.1721.01587.1278.14285.0479.11904-.0559-.18254-1.1107-.46031-2.2852-.26984-3.4038.0873-.4874.19842-.9668.22223-1.4622.0238-.5913-.03969-1.1826-.10318-1.7659-.11905-1.0706-.26984-2.1413-.39682-3.204-.071433-.5833-.126989-1.1586-.134925-1.7499-.007937-.5353-.015873-1.1505.087301-1.6859 0-.016.023814-.008 0 0z"
                  opacity=".8"/>
            <path d="m5.68254 5.76085c-.46032 1.00676-.47619 2.13338-.5873 3.22004-.12698 1.16661-.29365 2.32511-.52381 3.47571-.46825 2.3651-1.18254 4.6663-2.07936 6.8955-.05556.1279.09523.3356.1746.1518.88889-2.1573 1.55555-4.4025 2.02381-6.6797.23016-1.1506.4127-2.3092.53968-3.47576.12698-1.16657.07937-2.39705.56349-3.4997.01588-.0799-.06349-.19176-.11111-.08789z"
                  opacity=".8"/>
            <path d="m6.13492 8.87711c.29365-.67917.22222-1.40627.29365-2.12539.07936-.82299.30158-1.622.47619-2.42102.27777-1.24646.56349-2.85249-.0873-4.035033-.0635-.111863-.1508.047941-.12699.119852.19841.663181.34127 1.278431.30952 1.981561-.0238.72711-.18253 1.44622-.33333 2.15735-.14286.68715-.29365 1.3743-.34127 2.07744-.05555.73509.00794 1.48617-.25397 2.18931-.00793.04794.03969.11186.0635.05593z"
                  opacity=".8"/>
            <path d="m15.254.735071c-.2778 3.499689-.6905 7.151199-2.5238 10.219429-.4207.7031-.9127 1.3583-1.4762 1.9576-.5477.5753-1.135 1.1106-1.62702 1.7338-.99206 1.2705-1.4127 2.8445-2.15079 4.2508-.38889.7351-.87302 1.4462-1.52381 1.9736-.65873.5353-1.76191 1.0627-2.56349.5353-.15873-.1038-.23016.2317-.11112.3116 1.26191.831 2.84921-.4314 3.60318-1.3982 1.03175-1.3184 1.45238-2.9644 2.2381-4.4106.85714-1.5741 2.36505-2.6128 3.36505-4.083.9445-1.3823 1.6032-2.95634 2.0238-4.57035.5556-2.1174.754-4.3067.881-6.480028.0159-.127843-.127-.167794-.1349-.039951z"
                  opacity=".8"/>
            <path d="m12.4524 1.03867c-.2778.74309-.4762 1.51813-.5873 2.30916-.1191.83098-.0953 1.66195-.1111 2.50092-.0318 1.74985-.6746 3.4118-1.1826 5.06575-.2222.7351-.4682 1.4622-.85712 2.1254-.35714.6073-.88095 1.0707-1.25396 1.662-.29365.4714-.61111.9508-.80159 1.4781-.23016.6472-.48413 1.2705-.86508 1.8458-.40476.6072-.89683 1.1505-1.46825 1.614-.31746.2557-.65873.4874-1.00794.7031-.30952.1838-.75397.5194-1.12698.4714-.13493-.0159-.13493.2957.00793.3116.31746.04.60318-.1677.87302-.3196.27778-.1598.54762-.3276.81746-.5113.54762-.3836 1.05555-.831 1.49206-1.3344.42064-.4874.76984-1.0307 1.04762-1.622.28571-.5993.44444-1.2305.77778-1.8058.14286-.2477.30159-.5033.45238-.7431.21428-.3355.5-.6072.74603-.9188.45238-.5593.76984-1.2145 1.01584-1.8937.2699-.7431.4683-1.5021.7064-2.25322.2619-.82299.5238-1.64597.6587-2.50092.1587-.9748.0556-1.92563.0953-2.90842.0396-1.10264.2698-2.18931.6349-3.22803.0238-.03995-.0397-.127841-.0635-.04794z"
                  opacity=".8"/>
        </g>
        <path d="m56.8016 38.992c1.5159-1.2225.0476-5.673.127-7.7025 0-.1758-.2381-2.9004.1984-4.2028.3571-1.2225.2222-4.5225-.1984-7.2471-.6826-4.5065-.8651-8.7093-.4445-13.27967 0-.31162 0-.60725 0-.8949 0-.38353-.0158-.73509 0-1.06269.0556-1.10264.8492-3.02827-.0396-3.4118-1.0556-.631224-3.0556.51137-6.6429-.41549-3.2619-.8469576-6.3651-.295636-6.9921.00799-.4206.31162-.1746 2.64475.0794 3.22803 1.2936 3.01229 1.4444 4.97787 1.7301 7.83033.2143 2.1574 1.0635 3.4758 2.1905 5.9287 1.3651 3.0203 6.3016 3.6995 7.6905 4.059 1.1508 1.1906-1.9206 7.0154-2.4206 8.3178-.1508.6392-.0556.5513.4682 1.9576.3651.9668-.5159 1.2944-.0397 2.2452.127.2557 1.0953.1998 1.3492.7831.4604 1.0467-.1031 1.4542.1112 1.8137.5793.9509 2.6587 2.1814 2.8333 2.0455z"
              fill="#da368b" opacity=".64"/>
        <g fill="#000" opacity=".8">
            <path d="m42.7063.671299c.4604 3.579591 1.2302 7.103261 2.1985 10.571001.2381.8549.4682 1.7259.8016 2.5489.3174.791.7698 1.5021 1.2222 2.2212.4206.6712.7063 1.3823 1.0635 2.0855.373.743 1.0238 1.3343 1.6825 1.8217 1.4048 1.0467 3.0952 1.63 4.8333 1.7019.1746.008.135.2717-.0396.2637-1.5477-.0639-3.0635-.5194-4.381-1.3424-.6905-.4314-1.3571-.9508-1.873-1.582-.5159-.6232-.746-1.3983-1.127-2.1014-.3968-.7351-.8968-1.4063-1.2778-2.1494-.4047-.775-.6666-1.614-.9047-2.453-.508-1.7818-.9604-3.57156-1.3572-5.37734-.4444-2.05348-.8095-4.11494-1.0555-6.208361-.0159-.135833.1984-.143823.2142 0z"
                  opacity=".8"/>
            <path d="m57.1667.511341c-.0794 1.582049.127 3.116159.2143 4.690229.0873 1.52612-.0953 3.05224-.1588 4.57037-.0635 1.46216-.0952 2.92436-.1428 4.38656-.0397 1.5262-.0635 3.0603.1428 4.5784.0238.1678-.2381.2157-.2619.04-.1984-1.4782-.1825-2.9644-.1349-4.4586.0476-1.5341.0873-3.0762.1667-4.61028.0793-1.57406.2698-3.14013.1825-4.7142-.0873-1.51014-.246-2.98033-.1587-4.49846.0079-.087892.1508-.071911.1508.015981z"
                  opacity=".8"/>
            <path d="m57.0318.479453c-.2937.151813-.6032.247695-.9366.263676-.1269.00799-.246-.007991-.3809-.015981-.2302-.01598-.3016.031961-.4921.135833-.3571.199759-.6666-.00799-1.0317-.143823-.3651-.143823-.8016-.079902-1.1905-.063921-.3016.00799-.6032.02397-.9047.02397-.3096 0-.5794-.03995-.881-.095882-.4048-.071911-.6825.039951-1.0714.127843-.5635.119852-1.1746-.00799-1.7461.01598-.2539.015981-.4047-.01598-.6428-.103872-.3175-.119852-.6349-.143823-.9762-.127842-1.3492.063921-2.7064.207744-4.0476.319606-.1508.00799-.1667-.223724-.0159-.231715 1.3492-.103872 2.6905-.231714 4.0397-.303626.2381-.01598.4762-.01598.7143.031961.3889.071911.619.223724 1.0396.191764.6667-.047941 1.2778.087891 1.9366-.087892.5952-.151813 1.1825.079902 1.7857.071911.3492 0 .7063-.01598 1.0555-.02397.2461-.00799.5238-.047941.7619.00799.2223.055931.4127.199754.635.263675.2539.071912.3015.007991.5079-.087891.0794-.031961.1111-.071912.1984-.087892.2222-.047941.4683.02397.6984.01598.3095-.00799.5953-.087892.873-.215734.0953-.047941.1508.079901.0715.119852z"
                  opacity=".8"/>
            <path d="m43.4683 1.08677c.2777.78303.5158 1.57406.6746 2.38906.1587.807.2143 1.622.3174 2.437.1984 1.59803.6111 3.17209 1.0794 4.70617.4603 1.5102 1.0159 2.9884 1.6667 4.4266.365.799.7539 1.59 1.1746 2.3651.3412.6312.6666 1.3423 1.2142 1.8217.7223.6392 1.627 1.1187 2.4445 1.63.6667.4155 1.4365.5913 2.1825.799.1032.032.0794.1998-.0238.1678-.619-.1598-1.254-.3116-1.8254-.5912-.6984-.3436-1.3492-.847-2.0079-1.2705-.6429-.4075-1.1667-.767-1.5714-1.4302-.4445-.7191-.8413-1.4782-1.2223-2.2293-1.4762-2.9643-2.6031-6.1604-3.1428-9.43635-.1588-.9748-.1984-1.96558-.3572-2.94838-.1508-.95082-.4127-1.88567-.7301-2.79655-.0238-.0799.1032-.11986.127-.03995z"
                  opacity=".8"/>
            <path d="m45.7699.982928c.6031 3.036262.3412 6.192382 1.2777 9.164672.4603 1.4463 1.135 2.8126 1.8016 4.1709.6587 1.3344 1.3095 2.6927 2.1508 3.9152.9048 1.3184 2.1429 2.4929 3.7857 2.7007.2461.0319.2143.4155-.0317.3835-2.8175-.3356-4.381-3.1321-5.5397-5.4333-1.4127-2.8126-2.7698-5.673-3.0238-8.85312-.1587-2.01352-.1191-4.05101-.4841-6.040562.0079-.031961.0635-.047941.0635-.00799z"
                  opacity=".8"/>
            <path d="m47.4206 1.75795c.2461 2.70067.6588 5.38537 1.3096 8.02213.6508 2.61282 1.3016 5.40132 3.119 7.46282.9841 1.1106 2.0794 2.1254 3.1349 3.1721.1746.1678-.0952.4394-.2619.2717-.9762-.9908-1.9841-1.9576-2.9127-2.9804-.8889-.9828-1.5476-2.0934-2.0158-3.3319-.4762-1.2464-.8016-2.5568-1.1032-3.8592-.3095-1.37434-.5873-2.75664-.8016-4.15492-.2381-1.51813-.4365-3.04425-.5556-4.58635 0-.05593.0794-.07191.0873-.01598z"
                  opacity=".8"/>
            <path d="m49.0635 1.35029c.2381 2.5968.627 5.18561 1.3254 7.70252.3809 1.35829.8254 2.70069 1.3095 4.03499.2381.6632.4683 1.3504.8333 1.9576.3096.5194.7302.9668 1.0715 1.4622.7857 1.1187 1.3254 2.3891 1.865 3.6356.0794.1837-.2142.2876-.2936.1038-.5079-1.1825-1.0159-2.373-1.7381-3.4437-.3651-.5354-.8175-1.0148-1.1508-1.5741-.3095-.5273-.5238-1.1186-.7302-1.6939-.9047-2.477-1.5158-5.05779-1.9841-7.65459-.2698-1.49416-.4841-3.0043-.5952-4.52243-.0079-.06393.0794-.07192.0873-.00799z"
                  opacity=".8"/>
            <path d="m53.4365 1.18269c.6825 2.96435 1.1826 5.96865 1.3968 9.00491.1111 1.5501.2937 3.0602.5556 4.5944.2619 1.5261.3651 3.0522.246 4.5943-.0158.2077-.3333.1838-.3174-.024.0952-1.5341.0079-3.0522-.2381-4.5624-.2381-1.4622-.4127-2.9004-.5-4.3786-.1905-3.10015-.5635-6.18436-1.1984-9.22861-.0239-.03196.0396-.03995.0555 0z"
                  opacity=".8"/>
            <path d="m55.5635 1.43019c-.3175 1.43024-.1587 2.88445.1111 4.31469.2778 1.47019.5952 2.91641.6667 4.41852.1428 3.0363.1587 6.0806.2142 9.1168 0 .1838-.2777.2237-.2857.032-.0793-3.0443-.119-6.0965-.2063-9.1408-.0476-1.5181-.3333-2.9803-.5873-4.47446-.2381-1.42225-.381-2.87646-.0159-4.29072.0159-.05593.1111-.03196.1032.02397z"
                  opacity=".8"/>
            <path d="m44.9444.639154c-.3015 1.653966.3651 3.331896 1.1508 4.754146.0477.09588-.1031.16779-.1507.07191-.6905-1.56607-1.4604-3.09219-1.1112-4.850027.0159-.079902.127-.047941.1111.023971z"
                  opacity=".8"/>
            <path d="m52.6508.847008c.1032.623232.2063 1.254452.3809 1.861712.1588.53534.4127 1.02274.627 1.53411.2064.47941.2619.92686.3254 1.43823.0556.45544.4286.83098.3889 1.29441-.0079.11186-.1825.0799-.1667-.03197.0318-.30362-.1904-.52735-.2936-.79102-.0714-.19177-.0873-.38353-.1111-.58328-.0476-.5753-.2064-1.08667-.4445-1.61402-.4444-.99877-.6746-1.99754-.8015-3.084202-.008-.071911.0873-.079902.0952-.02397z"
                  opacity=".8"/>
            <path d="m46.6111.463414c.2064.455439.1429.910876.0794 1.398276-.0476.38353-.0794.75907.0476 1.13461.119.35156.2698.67117.3413 1.04671.1349.74308.0555 1.5421.3571 2.24523.254.5753.7619 1.00677.8095 1.66995.008.11985-.1825.14382-.1904.01598-.0477-.63122-.5556-1.06269-.7937-1.61401-.254-.59128-.2381-1.25446-.3095-1.88568-.0318-.3276-.0953-.64721-.2064-.95083-.0952-.26368-.2143-.51137-.2539-.79103-.1032-.75107.3412-1.48617.0396-2.229255-.0079-.047941.0556-.087892.0794-.039951z"
                  opacity=".8"/>
            <path d="m57.254 18.833c-.1746.3835-.4604.7111-.881.6951-.0952 0-.0873-.016-.1746.016-.119.0399-.1508.0879-.2778.0959-.0635 0-.127-.016-.1825-.032-.1984-.0399-.0952-.1278-.0635.016.0317.1758.1429.2796.0714.4634-.0635.1758-.1587.1279-.2619.2397-.1031.1039-.0476.2717-.1904.3756-.1191.0799-.2461.0719-.3731.0239.0556-.0239.1191-.0479.1746-.0719-.119.2158.0556.5833-.3095.6073.0318-.0719.0556-.1439.0873-.2158.1746.3037.0873.6632-.246.815-.1667.0719-.2937-.1837-.127-.2477.1825-.0559.2381-.1997.1429-.4314-.0397-.0719.0238-.1758.1031-.1838-.0079 0 .0715-.3915.0953-.4475.0397-.0639.1031-.1038.1746-.0719.119.048.1587-.2796.2222-.3435.0952-.0959.2619-.1039.2381-.3037-.0238-.1758-.2778-.4314.0238-.5513.0794-.0319.119 0 .1984.008.0952.016.2619.0639.3651.04.0555-.016.1032-.0879.1587-.1039.0794-.024.1429.016.2143.016.3016 0 .4921-.2318.6429-.4794.0555-.1279.2301-.048.1746.0719z"
                  opacity=".8"/>
            <path d="m57.1984 18.6411c.2857.4075.3254.8629.2937 1.3503-.0397.6233-.0715 1.1986.0396 1.8218.1111.6312.2937 1.2545.3969 1.8857.1031.6791.0793 1.3503 0 2.0295-.1667 1.3423-.4207 2.6447-.4762 4.0031-.0556 1.4062.0079 2.8045.0476 4.2108.0476 1.5421.0476 3.0922-.127 4.6343-.0159.1598-.2619.1358-.246-.024.2857-2.6847.0079-5.3774.0476-8.0701.0159-1.3104.1587-2.5968.373-3.8832.1111-.6392.2143-1.2784.2143-1.9256.0079-.6153-.1032-1.2145-.2381-1.8138-.1429-.6472-.3016-1.2944-.3016-1.9576.0079-.7191.2619-1.5101-.1746-2.1493-.0556-.0959.0873-.1998.1508-.1119z"
                  opacity=".8"/>
            <path d="m54.9682 21.5334c.0794.855.3969 1.6859.4127 2.5489.008.5912-.246 1.0707-.3571 1.63-.0952.4954-.0714 1.0147-.0714 1.5181-.008.6712.127 1.5821-.3254 2.1414-.1984.2397-.4841.3755-.7857.4314-.3096.056-1.4127-.1358-1.4286.2957-.0079.1438-.246.1678-.2619.0159-.0159-.2716.119-.4714.3809-.5513.4604-.1438.9762.0879 1.4524-.0559.9762-.2797.7381-1.8138.754-2.5968.0079-.4155.0079-.831.0952-1.2385.0953-.4394.3254-.831.381-1.2784.119-.9588-.3016-1.9017-.3889-2.8445-.0079-.0879.1349-.1119.1428-.016z"
                  opacity=".8"/>
            <path d="m54.5 21.9491c-.373.6552-.3809 1.3903-.5 2.1174-.119.7591-.4524 1.4622-.5714 2.2133-.0873.5513-.0873 1.1106-.2222 1.6539-.1588.6552-.4683 1.2785-.8016 1.8618-.0715.1198-.2699 0-.2143-.1199.3254-.6792.6825-1.3344.8254-2.0934.119-.6552.119-1.3184.3174-1.9496.2064-.6632.4445-1.2864.5477-1.9736.0952-.6152.1746-1.2225.5158-1.7578.0397-.0719.1349-.024.1032.0479z"
                  opacity=".8"/>
            <path d="m52.373 29.9712c-.0794.4475.4445.7431.7064.9828.1984.1838.3888.3755.5396.5993.2461.3515.3016.9748.6985 1.1665.3492.1678 1.8492.6792.9603 1.2225-.381.2317-.9127.0879-1.3254.1518-.2778.048-.7302.1758-.9445-.0878-.0952-.1119-.0952-.2797-.0873-.4155.0159-.2957.0794-.5753.0794-.871-.0079-.4954.0635-.8789.2857-1.3263.0714-.1359.2698-.008.2064.1278-.1905.3915-.2699.7111-.2778 1.1426 0 .2157-.0159.4235-.0556.6392-.0476.2957-.1111.5034.2699.6233.1587.0479.4047-.048.5635-.072.2222-.0319.4444-.0239.6666-.0159.1826.008.8572.0239.627-.3995-.0476-.0799-.1905-.1519-.2698-.2078-.1826-.1119-.3889-.1997-.5873-.2717-.2381-.0958-.4524-.1598-.5715-.4075-.1825-.3835-.246-.7271-.5317-1.0706-.3651-.4395-1.2619-.855-1.0873-1.5421.0317-.064.1508-.032.1349.0319z"
                  opacity=".8"/>
            <path d="m54.1032 34.0063c.1984.1598.3889.3356.5159.5673.1111.1997.0952.4474.3253.5833.0794.0479.1826.0639.2699.0879.373.1038 1.0714.3116 1.2381.7111.1746.3995-.627.5353-.8651.5673-.1428.016-.2698.008-.4127.016-.3175.016-.4127.1358-.6825.2157-.2064.0559-.373.0479-.5635-.032-.1349-.0559-.0476-.2716.0873-.2077.373.1678.5238-.0879.8492-.1758.1508-.0399.3095-.008.4603-.016.1825 0 .5952-.008.746-.1518.3016-.2956-.492-.5833-.619-.6312-.2699-.1039-.6429-.1358-.8175-.3995-.0952-.1438-.1032-.3276-.1905-.4794-.1111-.2078-.2857-.3596-.4444-.5274-.0635-.0639.0317-.1837.1032-.1278z"
                  opacity=".8"/>
            <path d="m53.9921 36.603c-.2858-.2317-.3096-.5433-.2857-.8869.0158-.2956.0476-.5993.0793-.8949.0159-.2157-.0079-.5753.1111-.7671.0714-.1198.2699-.0159.2143.1119-.0397.024-.0794.0559-.127.0799.0397-.024.0794-.0559.127-.0799-.1111.2637-.0873.6951-.127.9828-.0555.4235-.2222 1.0227.0953 1.3743.0396.0479-.0318.1278-.0873.0799z"
                  opacity=".8"/>
            <path d="m54.3254 36.5951c.2222.0479.4682.0959.6429.2477.0714.0559.1269.1358.1666.2157.0873.1758.0476.4475.2143.5753.2698.1998.7222.1119 1.0238.2557.2064.0959.5794.6312.8254.5114.1508-.072.246.1917.0635.2397-.2222.0559-.3889-.008-.5556-.1598-.2063-.1918-.3333-.3596-.6269-.4395-.1746-.0479-.3572-.0639-.5318-.1119-.1825-.0479-.3968-.1118-.5-.2796-.0714-.1199-.0317-.2078-.0555-.3356-.0635-.3755-.4286-.4554-.7302-.5194-.127-.0319-.0635-.2237.0635-.1997z"
                  opacity=".8"/>
            <path d="m55.3254 33.5028c.6349-1.9576.373-4.0271.5-6.0406.0635-1.0787.3571-2.1254.3809-3.204.0239-1.0627-.2063-2.1095-.619-3.0843-.0635-.1438.1587-.2556.2143-.1038.4127.9428.619 1.9496.619 2.9803 0 1.0787-.2936 2.1254-.3889 3.1961-.1825 2.1094.1032 4.2667-.5714 6.3122-.0317.0959-.1667.032-.1349-.0559z"
                  opacity=".8"/>
            <path d="m56.9841 22.852c.0635.2556.1667.4554.2064.7191.0317.2157.0476.4394.0555.6552.0238.5753-.0238 1.1426-.0873 1.7099-.1269 1.1585-.3015 2.3171-.4285 3.4757-.0635.5513-.127 1.1026-.1191 1.6619.008.6233.1826 1.2225.254 1.8378.1349 1.0627-.1905 2.1493-.3492 3.188-.0159.0959-.1667.064-.1508-.0319.1905-1.1666.4603-2.3651.2381-3.5397-.0953-.4953-.1905-.9748-.1984-1.4781-.008-.5593.0555-1.1267.1111-1.686.119-1.0946.2778-2.1893.4047-3.2839.0556-.5114.1032-1.0308.1112-1.5501.0079-.3196-.008-.6312-.0318-.9508-.0159-.2238 0-.5114-.0397-.7271 0-.016.0159-.016.0238 0z"
                  opacity=".8"/>
            <path d="m52.3333 5.91274c.4207.91088.4603 1.92563.5635 2.91641.127 1.23045.2937 2.45295.5397 3.65945.4762 2.3811 1.1905 4.7063 2.0873 6.9515.0556.1438-.1508.2557-.2143.1119-.8254-2.0056-1.4682-4.091-1.9206-6.2084-.2302-1.0707-.4127-2.1494-.5476-3.236-.1667-1.35835-.0794-2.88447-.635-4.15491-.0317-.0799.0953-.11186.127-.03995z"
                  opacity=".8"/>
            <path d="m51.8572 8.98099c-.3096-.71912-.2143-1.50215-.3096-2.26921-.1031-.79103-.3095-1.56607-.4841-2.34112-.2619-1.19053-.5476-2.74862.0873-3.86724.0476-.087891.2143-.063921.1825.047941-.1825.679169-.3333 1.286419-.3095 1.989549.0238.78304.1984 1.5421.3572 2.30916.1428.65519.2698 1.31838.3095 1.99754.0397.71113-.008 1.43024.2381 2.10941.0238.04794-.0476.07191-.0714.02397z"
                  opacity=".8"/>
        </g>
    </g>
</svg>
