<svg fill="none" height="38" viewBox="0 0 143 38" width="143" xmlns="http://www.w3.org/2000/svg">
    <g fill="#000">
        <path d="m27.4024 37.029c-.0976.1295-.1952.2589-.3254.356-.1302.1295-.2604.2266-.4231.3237s-.358.1619-.5532.2266c-.1953.0647-.4231.0647-.6509.0647-.3906 0-.7486-.0647-1.074-.1942-.3254-.1294-.6183-.3237-.8462-.5502-.2278-.2266-.423-.5179-.5532-.8416s-.1953-.6797-.1953-1.1005c0-.3884.0651-.7445.1953-1.1005.1302-.3237.3254-.615.5532-.8416.2279-.2266.5208-.4208.8462-.5502.3254-.1295.6834-.1942 1.074-.1942.1952 0 .3905.0323.5532.0647.1953.0324.358.0971.5207.1618.1628.0648.2929.1619.4231.259s.2278.2265.3255.3237l-.4231.3236c-.0651-.0971-.1302-.1618-.2278-.2589-.0977-.0971-.1953-.1619-.3255-.2266s-.2603-.1295-.3905-.1618c-.1302-.0324-.2929-.0648-.4556-.0648-.3255 0-.6509.0648-.9113.1942-.2603.1295-.4881.2914-.6834.4856s-.3255.4531-.4231.7121c-.0976.2589-.1627.5502-.1627.8415s.0651.5827.1627.8416.2278.5179.4231.7121.4231.356.6834.4855c.2604.1295.5533.1942.9113.1942.2929 0 .5858-.0647.8461-.1942.2604-.1295.4882-.3237.6835-.5826z"/>
        <path d="m29.5828 37.8706h-.5207v-5.1465h1.5296c.2604 0 .4882.0324.716.0648.2278.0323.3905.1294.5533.2265.1627.0971.2928.259.3579.4208.0977.1619.1302.3884.1302.6474 0 .1942-.0325.356-.0976.5179-.0651.1618-.1627.2913-.2929.3884-.1302.1295-.2604.1942-.4231.2589-.1627.0648-.3254.0971-.5207.1295l1.5296 2.46h-.6509l-1.432-2.3953h-.8787zm0-2.8484h.9113c.4231 0 .7485-.0647.9763-.2265.2278-.1619.358-.3884.358-.6798 0-.1618-.0325-.3236-.0976-.4207-.0651-.1295-.1628-.2266-.2604-.2914-.0976-.0647-.2603-.1294-.4231-.1618-.1627-.0324-.3254-.0647-.5207-.0647h-.9438z"/>
        <path d="m34.6923 37.4175h2.7663v.4531h-3.287v-5.1465h3.2219v.4532h-2.7012v1.7802h2.506v.4532h-2.506z"/>
        <path d="m39.216 37.8706h-.5858l2.2456-5.1465h.5207l2.213 5.1465h-.5858l-.5858-1.3594h-2.6686zm.7486-1.8449h2.2781l-1.1391-2.7513z"/>
        <path d="m46.3108 37.8706h-.5208v-4.6933h-1.7248v-.4532h4.0029v.4532h-1.7248v4.6933z"/>
        <path d="m50.0859 37.8706h-.5207v-5.1465h.5207z"/>
        <path d="m53.7959 37.1909 1.6923-4.4668h.5533l-1.9852 5.1465h-.5533l-1.9852-5.1465h.5858z"/>
        <path d="m58.0267 37.4175h2.7663v.4531h-3.287v-5.1465h3.2219v.4532h-2.7012v1.7802h2.5059v.4532h-2.5059z"/>
        <path d="m65.642 37.8706h-.5207v-5.1465h3.1243v.4532h-2.6036v1.7802h2.4083v.4532h-2.4083z"/>
        <path d="m75.0799 35.3135c0 .3884-.065.7445-.1952 1.1005-.1302.3237-.3255.615-.5533.8416-.2278.2265-.5207.4208-.8461.5502-.3255.1295-.6835.1942-1.074.1942s-.7485-.0647-1.074-.1942c-.3254-.1294-.6183-.3237-.8461-.5502-.2278-.2266-.4231-.5179-.5533-.8416-.1301-.3237-.1952-.6797-.1952-1.1005 0-.3884.0651-.7445.1952-1.1005.1302-.3237.3255-.615.5533-.8416s.5207-.4208.8461-.5502c.3255-.1295.6835-.1942 1.074-.1942s.7485.0647 1.074.1942c.3254.1294.6183.3236.8461.5502s.4231.5179.5533.8416.1952.6797.1952 1.1005zm-.5532 0c0-.2913-.0651-.5826-.1627-.8416-.0977-.2589-.2278-.5179-.4231-.7121s-.4231-.356-.6834-.4855c-.2604-.1295-.5533-.1942-.9113-.1942s-.6183.0647-.9112.1942c-.2604.1295-.4882.2913-.6835.4855-.1952.1942-.3254.4532-.423.7121-.0977.259-.1627.5503-.1627.8416s.0325.5826.1627.8416c.0976.2589.2278.5179.423.7121.1953.1942.4231.356.6835.4855.2603.1295.5532.1942.9112.1942s.6184-.0647.9113-.1942c.2603-.1295.4881-.2913.6834-.4855s.3254-.4532.4231-.7121c.0976-.259.1627-.5503.1627-.8416z"/>
        <path d="m78.8226 38c-.3905 0-.716-.0647-.9438-.1942-.2604-.1295-.4556-.2913-.5858-.5179-.1627-.1942-.2604-.4208-.2929-.6797-.0651-.2266-.0976-.4532-.0976-.6798v-3.2367h.5207v3.172c0 .1942.0325.4208.0651.615.0651.1942.1301.3561.2278.5179.0976.1618.2603.2913.4231.356.1627.0648.3905.1295.6508.1295.2604 0 .4882-.0324.6509-.1295.1628-.0971.3255-.2265.4231-.356.0976-.1618.1953-.3237.2278-.5179.0326-.1942.0651-.3884.0651-.615v-3.172h.5207v3.2367c0 .2266-.0325.4532-.0976.6798s-.1627.4531-.2929.6797-.358.3884-.5858.5179c-.1627.1295-.4882.1942-.8787.1942z"/>
        <path d="m86.5031 37.1262v-4.4021h.5207v5.1465h-.6509l-3.0266-4.4344v4.4344h-.5207v-5.1465h.6508z"/>
        <path d="m89.1716 32.7241h1.7249c.3254 0 .6509.0648.9763.1619s.6183.2589.8787.4855.4882.4855.6183.8092c.1628.3237.2279.7121.2279 1.1329 0 .4207-.0651.8092-.2279 1.1328-.1627.3237-.3579.5827-.6183.8092-.2604.2266-.5533.3885-.8787.4856s-.6509.1618-.9763.1618h-1.7249zm.5207 4.6934h1.0415c.3905 0 .7159-.0648 1.0088-.1942.2929-.1295.5207-.2913.716-.4855.1953-.1943.3254-.4208.4231-.6798.0976-.2589.1302-.5179.1302-.7768 0-.259-.0326-.5179-.1302-.7768-.0977-.259-.2278-.4856-.4231-.6798s-.4231-.356-.716-.4855-.6183-.1942-1.0088-.1942h-1.0415z"/>
        <path d="m95.225 37.8706h-.5858l2.2455-5.1465h.5207l2.2131 5.1465h-.5858l-.5858-1.3594h-2.6687zm.7485-1.8449h2.2781l-1.1391-2.7513z"/>
        <path d="m102.352 37.8706h-.521v-4.6933h-1.724v-.4532h4.003v.4532h-1.725v4.6933z"/>
        <path d="m106.127 37.8706h-.52v-5.1465h.52z"/>
        <path d="m113.352 35.3135c0 .3884-.065.7445-.195 1.1005-.13.3237-.326.615-.553.8416-.228.2265-.521.4208-.847.5502-.325.1295-.683.1942-1.073.1942-.391 0-.749-.0647-1.074-.1942-.326-.1294-.619-.3237-.847-.5502-.227-.2266-.423-.5179-.553-.8416s-.195-.6797-.195-1.1005c0-.3884.065-.7445.195-1.1005.13-.3237.326-.615.553-.8416.228-.2266.521-.4208.847-.5502.325-.1295.683-.1942 1.074-.1942.39 0 .748.0647 1.073.1942.326.1294.619.3236.847.5502.227.2266.423.5179.553.8416s.195.6797.195 1.1005zm-.553 0c0-.2913-.065-.5826-.163-.8416-.097-.2589-.228-.5179-.423-.7121s-.423-.356-.683-.4855c-.261-.1295-.554-.1942-.912-.1942s-.618.0647-.911.1942c-.26.1295-.488.2913-.683.4855s-.326.4532-.423.7121c-.098.259-.163.5503-.163.8416s.033.5826.163.8416c.097.2589.228.5179.423.7121s.423.356.683.4855c.261.1295.553.1942.911.1942s.619-.0647.912-.1942c.26-.1295.488-.2913.683-.4855s.326-.4532.423-.7121c.098-.259.163-.5503.163-.8416z"/>
        <path d="m118.852 37.1262v-4.4021h.521v5.1465h-.651l-3.027-4.4344v4.4344h-.52v-5.1465h.65z"/>
        <path d="m6.54142 3.13969 5.76038 15.37481-1.3343 3.431h-.4231c-3.84026-9.1925-7.58286-19.25896-7.58286-19.25896-.8787-2.233388-1.88758-2.265756-2.96154-2.265756v-.420784h8.39645v.420784c-2.57101 0-1.92012 2.524706-1.85503 2.718906zm7.77808-3.13969h7.7781v.420784c-2.0828 0-2.8313-.032369-5.6627 7.444636l-.3905-.12947c.9763-2.91312 2.7988-7.347534-1.7249-7.347534z"/>
        <path d="m32.0888 0v.420784c-1.3343 0-2.1805.517887-2.1805 2.459966v15.76325c0 2.1362.8787 2.9454 2.1805 2.9454v.4208h-7.6154v-.4208c1.3343 0 2.1805-.8092 2.1805-2.9454v-15.76325c0-1.942079-.8136-2.459966-2.1805-2.459966v-.420784z"/>
        <path d="m40.648 3.13969 5.7603 15.37481-1.3343 3.431h-.4231c-3.8402-9.1925-7.5828-19.29133-7.5828-19.29133-.8787-2.233386-1.8876-2.265754-2.9615-2.265754v-.388416h8.3964v.420784c-2.571 0-1.9526 2.524706-1.855 2.718906zm7.7456-3.13969h7.7781v.420784c-2.0829 0-2.8314-.032369-5.6628 7.444636l-.3905-.12947c.9763-2.91312 2.7988-7.347534-1.7248-7.347534z"/>
        <path d="m62.8432 21.9779h-4.8817v-.4208c1.3018 0 1.6598-1.1329 1.6598-3.2368v-14.9864c0-1.94208-.2929-2.945484-1.6598-2.945484v-.388416h4.8817zm2.4408-21.557116v-.420784h8.0059v5.63203h-.423c-.2604-4.53152-4.1983-5.114142-7.5829-5.211246zm0 10.681416v-.4531c1.5622-.0648 3.7752-.3885 3.9704-3.10736h.4231v6.70016h-.4231c-.1952-2.7189-2.4408-3.0749-3.9704-3.1397zm8.3965 10.8757h-8.3965v-.4208c3.4823-.0971 7.4527-.6474 8.0059-6.0528h.4231v6.4736z"/>
        <path d="m102.873 21.557v.4208h-7.1599v-.4208c1.6923 0 1.3668-1.7802.6183-3.5281l-1.074-2.7189h-8.1361c-.8787 2.4924-2.213 6.3765 2.148 6.247v.4208h-6.9971v-.4208c1.1716-.0323 1.9201-.1942 4.3935-6.6354h8.429l-4.3609-11.0051 1.4645-3.8841514h.3254c3.8728 9.1601314 7.7453 19.0323514 7.7453 19.0323514 1.042 2.46 1.725 2.4276 2.604 2.4923z"/>
        <path d="m109.414 18.7087c0 2.1686.716 2.8484 2.051 2.8484v.4208h-7.03v-.4208c1.334 0 1.953-.615 1.953-3.2368v-15.53665c0-1.942083-.554-2.362866-1.953-2.362866v-.420784h4.979zm14.092 2.8484v.4208h-2.376c-4.035 0-3.547-.0324-5.37-6.7973-.618-2.46-2.603-3.0426-3.905-3.2045v-.4855c2.799-.0971 4.784-.7444 4.784-5.50253 0-4.82282-2.083-5.470182-4.784-5.567286v-.388416c5.272.129472 8.266 1.165242 8.266 5.923342 0 4.24019-2.473 5.50259-5.825 5.69679 2.083.0971 4.393.2913 5.825 7.1533.619 2.3629 2.571 2.6865 3.385 2.7513z"/>
        <path d="m143 0v5.50256h-.423c-.13-5.01704-5.37-5.081776-5.793-5.081776h-1.855v18.546816c0 2.0716.976 2.6218 2.278 2.6218v.4208h-7.648v-.4208c1.302 0 2.246-.5502 2.246-2.6218v-18.546816h-1.855c-.977 0-5.663.064736-5.761 5.081776h-.423v-5.50256z"/>
    </g>
</svg>
