<svg fill="none" height="1249" viewBox="0 0 1294 1249" width="1294" xmlns="http://www.w3.org/2000/svg">
    <g fill="#000">
        <path d="m8.35829 1238.27c10.64041 2.56 21.28081 3.34 32.10301 2.95 4.911-.2 9.4582-.3 14.1872 1.58 2.7283 1.08 4.82 1.28 7.7302 1.18 3.4559-.1 6.9117-.1 10.3676-.1 18.3706-.1 36.7407-.2 55.0207-.3 47.564-.29 95.127-.49 142.781-1.08 6.912-.1 13.824-.2 20.736-.3 5.183-.09 9.458-1.28 14.641-1.87 12.551-1.47 26.01-.09 38.651-.09 49.11.09 98.219.09 147.42.19 20.28 0 40.47.1 60.75.1 5.093 0 10.095 0 15.188.1 5.547 0 11.004.2 16.551 0 11.459-.3 22.463-2.27 33.922-.79 13.46 1.77 26.829 1.58 40.288 1.68 23.009.09 46.018 0 69.026-.1 47.2-.2 94.582-.5 141.963-.59 5.639 0 11.277 0 16.825.09 3.092 0 6.275.3 9.367.4 11.095.2 22.099-3.15 33.376-3.05 15.551.09 31.103.78 46.563.98 50.925.59 101.765.99 152.695 1.38 45.56.39 91.12.59 136.69 1.38 4.73.1 9.36.19 14.09.29 1 0 .91-2.36-.09-2.36-36.83-1.38-73.84-.99-110.77-1.28-53.93-.49-107.86-.79-161.78-1.38-18.285-.2-36.473-.3-54.753-.69-8.003-.1-16.006-.59-24.1-.59-11.186 0-22.099 3.45-33.285 3.05-2.82-.1-5.639-.29-8.458-.29-39.56-.49-79.212.19-118.772.29-43.744.2-87.579.69-131.323.1-6.093-.1-11.913-.59-18.006-1.48-11.459-1.47-22.463.5-33.922.89-5.548.2-11.005.1-16.552 0-13.733-.1-27.374-.1-41.107-.1-50.018-.1-100.037-.1-150.056-.19-18.098 0-36.105 0-54.203-.1-4.729 0-9.549-.3-14.278 0-5.638.29-10.822 1.87-16.461 2.07-41.834 1.08-83.668.98-125.411 1.18-34.285.19-68.9348-.3-103.4933.78-6.2751.2-11.7317-2.95-18.0978-2.85-12.1864.2-23.7362.39-35.83172-2.56-.63661-.1-.72755 1.38-.18189 1.48z"
              opacity=".9"/>
        <path d="m5.35829 11.2652c10.64041 2.5608 21.28081 3.3487 32.10301 2.9547 4.911-.197 9.4582-.2955 14.1872 1.5758 2.7283 1.0834 4.82 1.2804 7.7302 1.1819 3.4559-.0985 6.9117-.0985 10.3676-.0985 18.3706-.0985 36.7407-.197 55.0207-.2955 47.564-.2954 95.127-.4924 142.781-1.0833 6.912-.0985 13.824-.197 20.736-.2955 5.183-.0985 9.458-1.2804 14.641-1.8713 12.551-1.4773 26.01-.0985 38.651-.0985 49.11.0985 98.219.0985 147.42.197 20.28 0 40.47.0985 60.75.0985 5.093 0 10.095 0 15.188.0985 5.547 0 11.004.197 16.551 0 11.459-.2955 22.463-2.2653 33.922-.7879 13.46 1.7728 26.829 1.5758 40.288 1.6743 23.009.0985 46.018 0 69.026-.0985 47.2-.197 94.582-.4925 141.963-.5909 5.639 0 11.277 0 16.825.0984 3.092 0 6.275.2955 9.367.394 11.095.197 22.099-3.1516 33.376-3.0532 15.551.0985 31.103.788 46.563.9849 50.925.591 101.765.9849 152.695 1.3789 45.56.3939 108.12.5909 153.69 1.3788 4.73.0985 9.36.197 14.09.2955 1 0 .91-2.3637-.09-2.3637-36.83-1.3789-90.84-.9849-127.77-1.2804-53.93-.4924-107.86-.7879-161.78-1.3788-18.285-.197-36.473-.29551-54.753-.68947-8.003-.09849-16.006-.59093-24.1-.59093-11.186 0-22.099 3.4471-33.285 3.0532-2.82-.0985-5.639-.2955-8.458-.2955-39.56-.4925-79.212.197-118.772.2955-43.744.1969-87.579.6894-131.323.0984-6.093-.0984-11.913-.5909-18.006-1.4773-11.459-1.47732-22.463.4925-33.922.8864-5.548.197-11.005.0985-16.552 0-13.733-.0985-27.374-.0985-41.107-.0985-50.018-.0985-100.037-.0985-150.056-.197-18.098 0-36.105 0-54.203-.0984-4.729 0-9.549-.2955-14.278 0-5.638.2954-10.822 1.8712-16.461 2.0682-41.834 1.0834-83.668.9849-125.411 1.1819-34.285.197-68.9348-.2955-103.4933.7879-6.2751.197-11.7317-2.9547-18.0978-2.8562-12.1864.197-23.7362.394-35.83172-2.56069-.63661-.09849-.72755 1.37889-.18189 1.47729z"
              opacity=".9"/>
        <path d="m5.73483 2.35125c-2.56069 10.43125-3.3486 20.86255-2.95465 31.47205.19698 4.8145.29547 9.2723-1.57581 13.9084-1.083367 2.6747-1.2803429 4.7253-1.1818551 7.5783.0984881 3.3879.0984871 6.7758.0984871 10.1638.098488 18.0095.196975 36.0192.295462 53.9392.295463 46.629.492438 93.257 1.083366 139.975.09849 6.776.19697 13.552.29546 20.328.09849 5.082 1.28035 9.272 1.87128 14.354 1.47732 12.304.09848 25.499.09848 37.891-.09849 48.145-.09849 96.289-.19698 144.522 0 19.882-.09849 39.675-.09849 59.557 0 4.992 0 9.896-.09849 14.889 0 5.438-.19698 10.788 0 16.226.29547 11.234 2.26523 22.022.7879 33.255-1.77278 13.195-1.57581 26.301-1.6743 39.496-.09849 22.557 0 45.113.09849 67.67.19697 46.272.49244 92.722.59092 139.173 0 5.527 0 11.055-.09849 16.493 0 3.032-.29546 6.152-.39395 9.183-.19698 10.877 3.15162 21.665 3.05313 32.721-.09849 15.245-.7879 30.491-.98488 45.648-.59093 49.926-.98489 99.766-1.37884 149.696-.39396 44.66-.59094 89.33-1.37884 134-.09849 4.63-.19698 9.18-.29547 13.82 0 .98 2.36372.89 2.36372-.09 1.37883-36.11.98488-72.4 1.28035-108.59.49244-52.87.78791-105.74 1.37884-158.612.19698-17.921.29547-35.752.68942-53.672.09849-7.846.59093-15.692.59093-23.627 0-10.966-3.44708-21.665-3.05313-32.631.09849-2.764.29546-5.528.29546-8.291.49245-38.783-.19697-77.655-.29546-116.438-.19697-42.884-.68941-85.858-.09848-128.742.09849-5.973.59093-11.679 1.47733-17.653 1.47732-11.233-.49244-22.021-.8864-33.255-.19697-5.438-.09848-10.788 0-16.226.09849-13.463.09849-26.836.09849-40.299.09849-49.036.0985-98.071.19699-147.107 0-17.742 0-35.395.09849-53.137 0-4.636.29546-9.362 0-13.998-.29547-5.527-1.87128-10.609-2.06825-16.137-1.08337-41.012-.98488-82.024-1.18186-122.946-.19697-33.612.29547-67.5806-.7879-101.4599-.19697-6.1517 2.95465-11.5011 2.85616-17.742-.19698-11.947-.39395-23.2698 2.5607-35.12754.09848-.62409-1.37884-.71325-1.47733-.17831z"
              opacity=".9"/>
        <path d="m1278.73.351249c-2.56 10.431251-3.34 20.862551-2.95 31.472051.2 4.8145.3 9.2723-1.58 13.9084-1.08 2.6747-1.28 4.7253-1.18 7.5783.1 3.3879.1 6.7758.1 10.1638.1 18.0095.2 36.019.3 53.9392.29 46.629.49 93.257 1.08 139.975.1 6.776.2 13.552.3 20.328.09 5.082 1.28 9.272 1.87 14.354 1.47 12.304.09 25.499.09 37.891-.09 48.145-.09 96.289-.19 144.522 0 19.882-.1 39.675-.1 59.557 0 4.992 0 9.896-.1 14.889 0 5.438-.2 10.788 0 16.226.3 11.234 2.27 22.022.79 33.255-1.77 13.195-1.58 26.301-1.68 39.496-.09 22.557 0 45.113.1 67.67.2 46.272.5 92.722.59 139.173 0 5.527 0 11.055-.09 16.493 0 3.032-.3 6.152-.4 9.183-.2 10.877 3.15 21.665 3.05 32.721-.09 15.245-.78 30.491-.98 45.648-.59 49.927-.99 99.766-1.38 149.696-.39 44.66-.59 89.33-1.38 134-.1 4.63-.19 9.18-.29 13.82 0 .98 2.36.89 2.36-.09 1.38-36.11.99-72.4 1.28-108.59.49-52.87.79-105.74 1.38-158.612.2-17.921.3-35.752.69-53.672.1-7.846.59-15.692.59-23.627 0-10.966-3.45-21.665-3.05-32.631.1-2.764.29-5.528.29-8.291.49-38.783-.19-77.655-.29-116.438-.2-42.884-.69-85.858-.1-128.742.1-5.973.59-11.679 1.48-17.653 1.47-11.233-.5-22.021-.89-33.255-.2-5.438-.1-10.788 0-16.226.1-13.463.1-26.836.1-40.299.1-49.036.1-98.071.19-147.107 0-17.742 0-35.395.1-53.137 0-4.636.3-9.362 0-13.998-.29-5.527-1.87-10.609-2.07-16.137-1.08-41.012-.98-82.024-1.18-122.946-.19-33.612.3-67.5806-.78-101.4599-.2-6.1517 2.95-11.5011 2.85-17.742-.2-11.947-.39-23.2698 2.56-35.127538.1-.624093-1.38-.713249-1.48-.178313z"
              opacity=".9"/>
    </g>
</svg>
